<svg width="95" height="96" viewBox="0 0 95 96" fill="none" xmlns="http://www.w3.org/2000/svg">
<path d="M17.7002 83.7599V15.0299L20.0002 11.1899H76.5L80.6202 15V81" stroke="#1B8488" stroke-width="0.5307" stroke-miterlimit="10"/>
<path d="M20.0004 11.1899L19.6904 83.7599" stroke="#1B8488" stroke-width="0.5307" stroke-miterlimit="10"/>
<path d="M21.9902 20.47H27.3702" stroke="#1B8488" stroke-width="1.5922" stroke-miterlimit="10"/>
<path d="M29.3901 20.47H34.7601" stroke="#1B8488" stroke-width="1.5922" stroke-miterlimit="10"/>
<path d="M36.4204 20.47H41.7904" stroke="#1B8488" stroke-width="1.5922" stroke-miterlimit="10"/>
<path d="M43.79 20.47H49.16" stroke="#1B8488" stroke-width="1.5922" stroke-miterlimit="10"/>
<path d="M51.23 20.47H56.6" stroke="#1B8488" stroke-width="1.5922" stroke-miterlimit="10"/>
<path d="M58.6201 20.47H64.0001" stroke="#1B8488" stroke-width="1.5922" stroke-miterlimit="10"/>
<path d="M65.6602 20.47H71.0302" stroke="#1B8488" stroke-width="1.5922" stroke-miterlimit="10"/>
<path d="M73.02 20.47H78.39" stroke="#1B8488" stroke-width="1.5922" stroke-miterlimit="10"/>
<path d="M21.9902 29.1499H27.3702" stroke="#1B8488" stroke-width="0.5307" stroke-miterlimit="10"/>
<path d="M21.9902 30.5299H27.3702" stroke="#1B8488" stroke-width="0.5307" stroke-miterlimit="10"/>
<path d="M21.9902 31.9099H27.3702" stroke="#1B8488" stroke-width="0.5307" stroke-miterlimit="10"/>
<path d="M21.9902 33.6799H27.3702" stroke="#1B8488" stroke-width="0.5307" stroke-miterlimit="10"/>
<path d="M51.23 62.6H56.6" stroke="#1B8488" stroke-width="0.5307" stroke-miterlimit="10"/>
<path d="M51.23 65.37H56.6" stroke="#1B8488" stroke-width="0.5307" stroke-miterlimit="10"/>
<path d="M51.23 67.1299H56.6" stroke="#1B8488" stroke-width="0.5307" stroke-miterlimit="10"/>
<path d="M51.23 68.8999H56.6" stroke="#1B8488" stroke-width="0.5307" stroke-miterlimit="10"/>
<path d="M51.23 70.2799H56.6" stroke="#1B8488" stroke-width="0.5307" stroke-miterlimit="10"/>
<path d="M51.23 72.5399H56.6" stroke="#1B8488" stroke-width="0.5307" stroke-miterlimit="10"/>
<path d="M51.23 73.4199H56.6" stroke="#1B8488" stroke-width="0.5307" stroke-miterlimit="10"/>
<path d="M51.23 74.3099H56.6" stroke="#1B8488" stroke-width="0.5307" stroke-miterlimit="10"/>
<path d="M51.23 75.4399H56.6" stroke="#1B8488" stroke-width="0.5307" stroke-miterlimit="10"/>
<path d="M51.23 77.95H56.6" stroke="#1B8488" stroke-width="0.5307" stroke-miterlimit="10"/>
<path d="M51.23 76.6899H56.6" stroke="#1B8488" stroke-width="0.5307" stroke-miterlimit="10"/>
<path d="M58.6201 36.4399H64.0001" stroke="#1B8488" stroke-width="0.5307" stroke-miterlimit="10"/>
<path d="M58.6201 40.5099H64.0001" stroke="#1B8488" stroke-width="0.5307" stroke-miterlimit="10"/>
<path d="M58.6201 46.1299H64.0001" stroke="#1B8488" stroke-width="0.5307" stroke-miterlimit="10"/>
<path d="M58.6201 50.61H64.0001" stroke="#1B8488" stroke-width="0.5307" stroke-miterlimit="10"/>
<path d="M36.4204 31.9099H41.7904" stroke="#1B8488" stroke-width="0.5307" stroke-miterlimit="10"/>
<path d="M36.4204 33.8199H41.7904" stroke="#1B8488" stroke-width="0.5307" stroke-miterlimit="10"/>
<path d="M36.4204 44.1899H41.7904" stroke="#1B8488" stroke-width="0.5307" stroke-miterlimit="10"/>
<path d="M36.4204 56.3099H41.7904" stroke="#1B8488" stroke-width="0.5307" stroke-miterlimit="10"/>
<path d="M29.3901 26.8799H34.7601" stroke="#1B8488" stroke-width="0.5307" stroke-miterlimit="10"/>
<path d="M29.3901 28.2699H34.7601" stroke="#1B8488" stroke-width="0.5307" stroke-miterlimit="10"/>
<path d="M43.79 24.5399H49.16" stroke="#1B8488" stroke-width="0.5307" stroke-miterlimit="10"/>
<path d="M21.9102 36.8199H27.2802" stroke="#1B8488" stroke-width="0.5307" stroke-miterlimit="10"/>
<path d="M21.9102 46.1299H27.2802" stroke="#1B8488" stroke-width="0.5307" stroke-miterlimit="10"/>
<path d="M21.9902 47.87H27.3702" stroke="#1B8488" stroke-width="0.5307" stroke-miterlimit="10"/>
<path d="M21.9102 54.0499H27.2802" stroke="#1B8488" stroke-width="0.5307" stroke-miterlimit="10"/>
<path d="M21.9902 65.37H27.3702" stroke="#1B8488" stroke-width="0.5307" stroke-miterlimit="10"/>
<path d="M21.9902 40.5099H27.3702" stroke="#1B8488" stroke-width="0.5307" stroke-miterlimit="10"/>
<path d="M58.6201 61.9199H64.0001" stroke="#1B8488" stroke-width="0.5307" stroke-miterlimit="10"/>
<path d="M58.6201 60.0299H64.0001" stroke="#1B8488" stroke-width="0.5307" stroke-miterlimit="10"/>
<path d="M48.2001 95.26C73.2352 95.26 93.5301 74.965 93.5301 49.93C93.5301 24.8949 73.2352 4.59998 48.2001 4.59998C23.1651 4.59998 2.87012 24.8949 2.87012 49.93C2.87012 74.965 23.1651 95.26 48.2001 95.26Z" stroke="#1B8488" stroke-width="0.5307" stroke-miterlimit="10"/>
<path d="M47.8002 93.4C72.8353 93.4 93.1302 73.1051 93.1302 48.07C93.1302 23.0349 72.8353 2.73999 47.8002 2.73999C22.7651 2.73999 2.47021 23.0349 2.47021 48.07C2.47021 73.1051 22.7651 93.4 47.8002 93.4Z" stroke="#1B8488" stroke-width="3.7151" stroke-miterlimit="10"/>
</svg>
