<svg width="96" height="96" viewBox="0 0 96 96" fill="none" xmlns="http://www.w3.org/2000/svg">
<path d="M23.4378 43L9.44287 35.6125L9.44299 21.5L22.5625 12L36.5676 19.3875L37.0002 34.8777L23.4378 43Z" stroke="#1B8488" stroke-width="1.0788" stroke-miterlimit="10"/>
<path d="M22.6001 11.6099L9 21.9999L9.56006 35.7099L23.4701 43.2499L36.9501 34.9599L36.5201 19.1499L22.6001 11.6099Z" stroke="#1B8488" stroke-width="1.0788" stroke-miterlimit="10"/>
<path d="M10 19.9998L15.7602 22.6497L30.3702 22.3497L36.5702 19.2397" stroke="#1B8488" stroke-width="1.0788" stroke-miterlimit="10"/>
<path d="M9.51025 35.7199L23.1803 36.6799L36.9003 34.9599L30.2603 22.2599L22.5503 11.6199L15.6503 22.5599L9.51025 35.7199Z" stroke="#1B8488" stroke-width="1.0788" stroke-miterlimit="10"/>
<path d="M23.6201 43.3698L23.3701 36.3798L30.4701 22.5498" stroke="#1B8488" stroke-width="1.0788" stroke-miterlimit="10"/>
<path d="M23.3599 36.0499L15.3999 22.4199" stroke="#1B8488" stroke-width="1.0788" stroke-miterlimit="10"/>
<g opacity="0.75">
<g opacity="0.75">
<g opacity="0.75">
<path opacity="0.75" d="M62.4497 84.1899L66.5797 75.8999" stroke="#1B8488" stroke-width="1.0788" stroke-miterlimit="10"/>
<path opacity="0.75" d="M66.8198 87.1098L72.1998 76.3198" stroke="#1B8488" stroke-width="1.0788" stroke-miterlimit="10"/>
<path opacity="0.75" d="M72.6797 87.0898L76.8097 78.7998" stroke="#1B8488" stroke-width="1.0788" stroke-miterlimit="10"/>
<path opacity="0.75" d="M47.52 80.3699L52.36 70.6499" stroke="#1B8488" stroke-width="1.0788" stroke-miterlimit="10"/>
<path opacity="0.75" d="M51.9497 81.5398L56.0797 73.2498" stroke="#1B8488" stroke-width="1.0788" stroke-miterlimit="10"/>
<path opacity="0.75" d="M43.3198 78.7299L47.4398 70.4399" stroke="#1B8488" stroke-width="1.0788" stroke-miterlimit="10"/>
<path opacity="0.75" d="M34.6299 69.3098L41.8999 69.3698" stroke="#1B8488" stroke-width="1.0788" stroke-miterlimit="10"/>
<path opacity="0.75" d="M36.5801 65.0798L43.0501 67.6498" stroke="#1B8488" stroke-width="1.0788" stroke-miterlimit="10"/>
<path opacity="0.75" d="M52.29 62.4199L53.79 66.9399" stroke="#1B8488" stroke-width="1.0788" stroke-miterlimit="10"/>
<path opacity="0.75" d="M54.96 62.6699L59.54 65.9199" stroke="#1B8488" stroke-width="1.0788" stroke-miterlimit="10"/>
<path opacity="0.75" d="M61.06 51.6299L55.27 53.5599" stroke="#1B8488" stroke-width="1.0788" stroke-miterlimit="10"/>
<path opacity="0.75" d="M57.1797 60.9898L62.6497 60.5798" stroke="#1B8488" stroke-width="1.0788" stroke-miterlimit="10"/>
<path opacity="0.75" d="M59.2797 48.1299L52.9097 50.2499" stroke="#1B8488" stroke-width="1.0788" stroke-miterlimit="10"/>
<path opacity="0.75" d="M53.4997 41.1599L49.6997 43.2599" stroke="#1B8488" stroke-width="1.0788" stroke-miterlimit="10"/>
<path opacity="0.75" d="M49.8001 37.5898L47.1201 41.2698" stroke="#1B8488" stroke-width="1.0788" stroke-miterlimit="10"/>
<g opacity="0.75">
<path opacity="0.75" d="M75.2601 85.5999C72.2801 86.7799 70.7601 87.3699 69.0201 87.2999C66.4201 87.1899 64.6201 85.9299 63.8001 85.3599C62.0501 84.1299 61.2301 82.7599 60.1201 80.8499C58.3601 77.8199 59.0201 77.4099 57.3601 75.1099C55.7201 72.8299 53.9201 71.6499 53.2201 71.2199C52.5001 70.7799 51.8301 70.4499 51.2501 70.1999C51.2501 70.1999 50.8901 70.0499 50.5901 69.9299C49.3001 69.4499 43.5001 71.2599 43.5001 71.2599C40.8401 72.0999 39.4901 72.5199 38.3701 72.3299C36.9901 72.0899 35.3101 71.2099 34.8701 69.6999C34.2901 67.6999 36.2101 65.6899 37.7601 64.7799C39.9601 63.4799 42.3901 63.7999 43.8401 63.9899C47.4201 64.4599 47.5801 65.8699 51.2101 66.7799C52.4301 67.0899 57.6901 68.4199 60.5201 65.9799C62.4601 64.2999 62.2401 61.7099 62.2101 61.3399C61.9501 58.7699 59.8101 57.0499 57.4201 55.1299C54.6101 52.8699 53.3601 52.8599 52.7101 51.1899C52.2101 49.9099 52.4801 48.7199 53.0001 46.4699C53.8101 42.9599 53.4001 42.5099 52.9101 40.9899C52.3001 39.0899 49.9801 38.2599 49.2201 37.9899C46.6201 37.0599 44.6101 37.0799 44.1501 38.1099C43.6201 39.3199 47.3701 41.4599 49.0501 42.4299C53.1601 44.7899 54.4001 44.1699 56.8001 45.9799C57.4601 46.4799 61.0601 49.1899 60.9601 53.6099C60.9601 53.8299 60.7801 58.2299 56.9501 61.0899C53.7301 63.4899 51.6101 62.0599 47.2701 64.3499C46.5101 64.7499 40.4601 67.9399 40.4101 72.5999C40.3601 76.6799 44.9401 79.2199 45.6801 79.6199C47.4601 80.5699 49.1501 80.8399 49.8301 80.9199C52.7001 81.2799 55.0301 80.5499 56.9201 79.9399C59.5301 79.0999 59.3901 78.6599 63.1501 77.1699C66.1301 75.9899 67.6501 75.3999 69.3901 75.4699C72.0401 75.5799 73.8701 76.8899 74.6101 77.4099C76.4601 78.7299 77.4201 80.4099 78.2901 81.9199C78.6401 82.5199 78.9401 83.0599 79.2601 83.8499" stroke="#1B8488" stroke-width="1.0788" stroke-miterlimit="10"/>
<path opacity="0.75" d="M36.5801 33.8599C37.0601 33.9799 37.5401 34.1199 38.0401 34.2999C41.1201 35.3999 42.9201 37.2299 43.7601 38.2199" stroke="#1B8488" stroke-width="1.0788" stroke-miterlimit="10"/>
<path opacity="0.75" d="M45.7699 37.3599C44.1999 37.5099 40.8899 37.6499 37.2499 36.2799C36.7599 36.0899 36.2899 35.8899 35.8599 35.6899" stroke="#1B8488" stroke-width="1.0788" stroke-miterlimit="10"/>
</g>
</g>
</g>
</g>
<path d="M48.0002 94.0699C73.4439 94.0699 94.0702 73.4437 94.0702 47.9999C94.0702 22.5562 73.4439 1.92993 48.0002 1.92993C22.5564 1.92993 1.93018 22.5562 1.93018 47.9999C1.93018 73.4437 22.5564 94.0699 48.0002 94.0699Z" stroke="#03733C" stroke-width="3.776" stroke-miterlimit="10"/>
<path d="M48.0002 94.0699C73.4439 94.0699 94.0702 73.4437 94.0702 47.9999C94.0702 22.5562 73.4439 1.92993 48.0002 1.92993C22.5564 1.92993 1.93018 22.5562 1.93018 47.9999C1.93018 73.4437 22.5564 94.0699 48.0002 94.0699Z" stroke="#1B8488" stroke-width="3.776" stroke-miterlimit="10"/>
</svg>
