<svg width="24" height="24" viewBox="0 0 24 24" fill="none" xmlns="http://www.w3.org/2000/svg">
<path d="M12 22C17.5228 22 22 17.5228 22 12C22 6.47715 17.5228 2 12 2C6.47715 2 2 6.47715 2 12C2 17.5228 6.47715 22 12 22Z" stroke="white" stroke-width="2" stroke-linecap="round" stroke-linejoin="round"/>
<path d="M13.2998 15.0889H11.0586C11.0645 14.5615 11.1055 14.1074 11.1816 13.7266C11.2637 13.3398 11.4014 12.9912 11.5947 12.6807C11.7939 12.3701 12.0576 12.0625 12.3857 11.7578C12.6611 11.5117 12.9014 11.2773 13.1064 11.0547C13.3115 10.832 13.4727 10.6035 13.5898 10.3691C13.707 10.1289 13.7656 9.8623 13.7656 9.56934C13.7656 9.22949 13.7129 8.94824 13.6074 8.72559C13.5078 8.49707 13.3555 8.32422 13.1504 8.20703C12.9512 8.08984 12.6992 8.03125 12.3945 8.03125C12.1426 8.03125 11.9082 8.08691 11.6914 8.19824C11.4746 8.30371 11.2959 8.46777 11.1553 8.69043C11.0205 8.91309 10.9502 9.20605 10.9443 9.56934H8.39551C8.41309 8.7666 8.59766 8.10449 8.94922 7.58301C9.30664 7.05566 9.78418 6.66602 10.3818 6.41406C10.9795 6.15625 11.6504 6.02734 12.3945 6.02734C13.2148 6.02734 13.918 6.16211 14.5039 6.43164C15.0898 6.69531 15.5381 7.08496 15.8486 7.60059C16.1592 8.11035 16.3145 8.73145 16.3145 9.46387C16.3145 9.97363 16.2148 10.4277 16.0156 10.8262C15.8164 11.2188 15.5557 11.585 15.2334 11.9248C14.9111 12.2646 14.5566 12.6162 14.1699 12.9795C13.8359 13.2783 13.6074 13.5918 13.4844 13.9199C13.3672 14.248 13.3057 14.6377 13.2998 15.0889ZM10.7949 17.8047C10.7949 17.4297 10.9238 17.1191 11.1816 16.873C11.4395 16.6211 11.7852 16.4951 12.2188 16.4951C12.6465 16.4951 12.9893 16.6211 13.2471 16.873C13.5107 17.1191 13.6426 17.4297 13.6426 17.8047C13.6426 18.168 13.5107 18.4756 13.2471 18.7275C12.9893 18.9795 12.6465 19.1055 12.2188 19.1055C11.7852 19.1055 11.4395 18.9795 11.1816 18.7275C10.9238 18.4756 10.7949 18.168 10.7949 17.8047Z" fill="white"/>
</svg>
