<svg width="26" height="26" viewBox="0 0 26 26" fill="none" xmlns="http://www.w3.org/2000/svg">
<path d="M1 11.4826C1 10.1774 1.63684 8.95421 2.70615 8.20569L10.7061 2.6057C12.0834 1.6416 13.9166 1.6416 15.2938 2.60569L23.2938 8.20569C24.3632 8.95421 25 10.1774 25 11.4826V22.6C25 23.2365 24.719 23.847 24.219 24.2971C23.7189 24.7471 23.0406 25 22.3333 25H3.66667C2.95942 25 2.28115 24.7471 1.78105 24.2971C1.28095 23.847 1 23.2365 1 22.6V11.4826Z" stroke="#E3F4FE" stroke-width="2" stroke-linecap="round" stroke-linejoin="round"/>
<path d="M9 25V17C9 14.7909 10.7909 13 13 13V13C15.2091 13 17 14.7909 17 17V25" stroke="#E3F4FE" stroke-width="2" stroke-linecap="round" stroke-linejoin="round"/>
</svg>
