<?xml version="1.0" encoding="utf-8"?>
<!-- Generator: Adobe Illustrator 26.0.3, SVG Export Plug-In . SVG Version: 6.00 Build 0)  -->
<svg version="1.1" id="Layer_1" xmlns="http://www.w3.org/2000/svg" xmlns:xlink="http://www.w3.org/1999/xlink" x="0px" y="0px"
	 viewBox="0 0 106 106" style="enable-background:new 0 0 106 106;" xml:space="preserve">
<style type="text/css">
	.st0{clip-path:url(#SVGID_00000120559081310232182530000013437328370168983702_);}
	.st1{fill:none;stroke:#1B8488;stroke-width:2.2629;stroke-miterlimit:10;}
	.st2{fill:none;stroke:#1B8488;stroke-width:1.1314;stroke-miterlimit:10;}
	.st3{clip-path:url(#SVGID_00000013151765712547693910000012894370048865162630_);}
	
		.st4{clip-path:url(#SVGID_00000039104332179089637910000011320348752637763209_);fill:none;stroke:#231F20;stroke-width:2.2629;stroke-miterlimit:10;}
	
		.st5{clip-path:url(#SVGID_00000015352551272456196930000011957307866298219966_);fill:none;stroke:#1B8488;stroke-width:4.2429;stroke-miterlimit:10;}
	
		.st6{clip-path:url(#SVGID_00000164515513108215273390000016910365872315067319_);fill:none;stroke:#231F20;stroke-width:2.2629;stroke-miterlimit:10;}
	.st7{clip-path:url(#SVGID_00000017474199616390671320000007336150379604884656_);}
	.st8{fill:none;stroke:#1B8488;stroke-width:1.4143;stroke-miterlimit:10;}
	.st9{clip-path:url(#SVGID_00000074400801616568533330000007602809326461526409_);}
	.st10{fill:none;stroke:#1B8488;stroke-width:1.6972;stroke-miterlimit:10;}
	.st11{fill:none;stroke:#1B8488;stroke-width:0.8486;stroke-miterlimit:10;}
</style>
<g>
	<g>
		<defs>
			<ellipse id="SVGID_1_" cx="53" cy="53" rx="50.8" ry="49.6"/>
		</defs>
		<clipPath id="SVGID_00000045604416939585219970000018081597747500769692_">
			<use xlink:href="#SVGID_1_"  style="overflow:visible;"/>
		</clipPath>
		<g id="XMLID_78_" style="clip-path:url(#SVGID_00000045604416939585219970000018081597747500769692_);">
			<path id="XMLID_87_" class="st1" d="M51.6,38.5c1,0.7,2.6,2,4,4c2,3,2.3,6.1,2.5,8.5c0.3,3.4-0.3,3.5-0.3,8.5c0,4,0.1,6,1.1,7.9
				c1.5,2.9,4.2,4.2,5.4,4.8c2.6,1.3,4.8,1.5,7.9,1.7c4.9,0.3,5.1-0.6,9.1,0c3.9,0.6,6.4,2,7.3,2.6c1.4,0.8,2.4,1.6,3.1,2.3"/>
			<path id="XMLID_86_" class="st1" d="M81.6,89.4c-1.1-0.7-2.6-2-4-4c-2-3-2.3-6.1-2.6-8.5c-0.3-3.4,0.3-3.5,0.3-8.5
				c-0.1-4-0.1-6-1.1-7.9c-1.6-2.9-4.2-4.2-5.4-4.8c-2.6-1.3-4.8-1.5-7.9-1.7c-4.9-0.3-5.1,0.6-9,0c-3.9-0.6-6.4-2-7.3-2.5
				c-1.4-0.8-2.4-1.6-3.1-2.3"/>
			<line id="XMLID_85_" class="st2" x1="66.6" y1="73" x2="75.2" y2="63.9"/>
			<line id="XMLID_84_" class="st2" x1="59.6" y1="69.9" x2="70.9" y2="58"/>
			<line id="XMLID_83_" class="st2" x1="57.2" y1="63.1" x2="65.9" y2="54"/>
			<path id="XMLID_82_" class="st1" d="M63.3,70.3"/>
			<line id="XMLID_81_" class="st2" x1="50.6" y1="54.2" x2="57.5" y2="46.9"/>
			<line id="XMLID_80_" class="st2" x1="79.1" y1="88.3" x2="90.4" y2="76.4"/>
			<line id="XMLID_79_" class="st2" x1="75.6" y1="82.7" x2="84.3" y2="73.6"/>
		</g>
	</g>
	<g>
		<defs>
			<ellipse id="SVGID_00000018942053406950484660000001155971379736025736_" cx="53" cy="53" rx="50.8" ry="49.6"/>
		</defs>
		<clipPath id="SVGID_00000024695209114212030140000000094138387314452383_">
			<use xlink:href="#SVGID_00000018942053406950484660000001155971379736025736_"  style="overflow:visible;"/>
		</clipPath>
		<g id="XMLID_65_" style="clip-path:url(#SVGID_00000024695209114212030140000000094138387314452383_);">
			<path id="XMLID_77_" class="st1" d="M15.5,1"/>
			<path id="XMLID_76_" class="st1" d="M14.1,0.5c1.1,0.7,2.6,2,4,4c2,3,2.3,6.1,2.5,8.5c0.3,3.4-0.4,3.5-0.3,8.5c0,4,0.1,6,1.1,7.9
				c1.5,2.9,4.2,4.2,5.4,4.8c2.6,1.3,4.8,1.5,7.9,1.7c4.9,0.3,5.1-0.6,9,0c3.9,0.6,6.4,2,7.3,2.5c1.4,0.8,2.4,1.6,3.1,2.3"/>
			<path id="XMLID_75_" class="st1" d="M42.7,50.2"/>
			<path id="XMLID_74_" class="st1" d="M44.2,51.4c-1-0.7-2.6-2-4-4c-2-3-2.3-6.1-2.5-8.5c-0.3-3.4,0.3-3.5,0.3-8.5
				c0-4-0.1-6-1.1-7.9c-1.5-2.9-4.2-4.2-5.4-4.8c-2.6-1.3-4.8-1.5-7.9-1.7c-4.9-0.3-5.1,0.6-9.1,0c-3.9-0.6-6.4-2-7.3-2.6
				c-1.4-0.8-2.4-1.6-3.1-2.3"/>
			<line id="XMLID_73_" class="st2" x1="29.1" y1="35" x2="37.8" y2="25.9"/>
			<line id="XMLID_72_" class="st2" x1="22.1" y1="31.9" x2="33.4" y2="20"/>
			<line id="XMLID_71_" class="st2" x1="19.8" y1="25.1" x2="28.4" y2="16"/>
			<path id="XMLID_70_" class="st1" d="M25.9,32.3"/>
			<line id="XMLID_69_" class="st2" x1="13.1" y1="16.2" x2="20.1" y2="8.9"/>
			<line id="XMLID_68_" class="st2" x1="6.4" y1="12.8" x2="16.6" y2="2.1"/>
			<line id="XMLID_67_" class="st2" x1="43.3" y1="51.3" x2="54.6" y2="39.5"/>
			<line id="XMLID_66_" class="st2" x1="38.1" y1="44.7" x2="46.8" y2="35.6"/>
		</g>
	</g>
	<g>
		<defs>
			<ellipse id="SVGID_00000062178426231832072110000013371174562387294389_" cx="53" cy="53" rx="50.8" ry="49.6"/>
		</defs>
		<clipPath id="SVGID_00000069376064665731905520000013139962851548203967_">
			<use xlink:href="#SVGID_00000062178426231832072110000013371174562387294389_"  style="overflow:visible;"/>
		</clipPath>
		
			<path id="XMLID_90_" style="clip-path:url(#SVGID_00000069376064665731905520000013139962851548203967_);fill:none;stroke:#231F20;stroke-width:2.2629;stroke-miterlimit:10;" d="
			M61.4,76.5"/>
	</g>
	<g>
		<defs>
			<ellipse id="SVGID_00000052070621527024163210000018020178161423890049_" cx="53" cy="53" rx="50.8" ry="49.6"/>
		</defs>
		<clipPath id="SVGID_00000047779300514140323440000013959906085333021569_">
			<use xlink:href="#SVGID_00000052070621527024163210000018020178161423890049_"  style="overflow:visible;"/>
		</clipPath>
		
			<ellipse id="XMLID_89_" style="clip-path:url(#SVGID_00000047779300514140323440000013959906085333021569_);fill:none;stroke:#1B8488;stroke-width:4.2429;stroke-miterlimit:10;" cx="53" cy="53" rx="48.7" ry="47.5"/>
		
			<use xlink:href="#SVGID_00000052070621527024163210000018020178161423890049_"  style="overflow:visible;fill:none;stroke:#1B8488;stroke-miterlimit:10;"/>
	</g>
	<g>
		<defs>
			<ellipse id="SVGID_00000081624617903247652950000008273350608833357711_" cx="53" cy="53" rx="50.8" ry="49.6"/>
		</defs>
		<clipPath id="SVGID_00000161625773182079785600000012152873089824504985_">
			<use xlink:href="#SVGID_00000081624617903247652950000008273350608833357711_"  style="overflow:visible;"/>
		</clipPath>
		
			<path id="XMLID_88_" style="clip-path:url(#SVGID_00000161625773182079785600000012152873089824504985_);fill:none;stroke:#231F20;stroke-width:2.2629;stroke-miterlimit:10;" d="
			M57.2,47.2"/>
	</g>
	<g>
		<defs>
			<ellipse id="SVGID_00000114068248335558135740000002107951987422278535_" cx="53" cy="53" rx="50.8" ry="49.6"/>
		</defs>
		<clipPath id="SVGID_00000123398727575366526200000012874881201044449706_">
			<use xlink:href="#SVGID_00000114068248335558135740000002107951987422278535_"  style="overflow:visible;"/>
		</clipPath>
		<g id="XMLID_52_" style="clip-path:url(#SVGID_00000123398727575366526200000012874881201044449706_);">
			<path id="XMLID_64_" class="st1" d="M43.7,65"/>
			<path id="XMLID_63_" class="st8" d="M43.8,64.3c-0.2,0.6-0.7,1.5-1.6,2.3c-1.3,1.3-2.8,1.7-3.9,2c-1.6,0.5-1.7,0.2-4.2,0.7
				c-2,0.4-2.9,0.6-3.8,1.3c-1.3,1-1.7,2.4-1.9,3.1c-0.4,1.4-0.3,2.5-0.1,4.1c0.3,2.5,0.8,2.5,0.9,4.4c0.1,2-0.4,3.3-0.6,3.8
				c-0.3,0.8-0.6,1.3-0.8,1.7"/>
			<path id="XMLID_62_" class="st1" d="M22,83"/>
			<path id="XMLID_61_" class="st8" d="M21.6,83.8c0.2-0.6,0.7-1.5,1.6-2.3c1.3-1.3,2.8-1.7,3.9-2c1.6-0.5,1.7-0.2,4.2-0.7
				c1.9-0.4,2.9-0.6,3.8-1.3c1.3-1,1.7-2.4,1.9-3.1c0.4-1.4,0.3-2.5,0.1-4.1c-0.3-2.5-0.8-2.5-0.8-4.4c-0.1-2,0.4-3.3,0.6-3.8
				c0.3-0.8,0.6-1.3,0.8-1.7"/>
			<line id="XMLID_60_" class="st2" x1="28.2" y1="74.9" x2="33.5" y2="78.3"/>
			<line id="XMLID_59_" class="st2" x1="29.2" y1="71.2" x2="36" y2="75.6"/>
			<line id="XMLID_58_" class="st2" x1="32.3" y1="69.3" x2="37.5" y2="72.8"/>
			<path id="XMLID_57_" class="st1" d="M29.3,73"/>
			<line id="XMLID_56_" class="st2" x1="36" y1="65.3" x2="40.2" y2="68"/>
			<line id="XMLID_55_" class="st2" x1="37.1" y1="61.7" x2="43.3" y2="65.7"/>
			<line id="XMLID_54_" class="st2" x1="22.1" y1="82.4" x2="29" y2="86.9"/>
			<line id="XMLID_53_" class="st2" x1="24.4" y1="80.2" x2="29.6" y2="83.6"/>
		</g>
	</g>
	<g>
		<defs>
			<ellipse id="SVGID_00000121253862510153675070000009402651950097337735_" cx="53" cy="53" rx="50.8" ry="49.6"/>
		</defs>
		<clipPath id="SVGID_00000119806613624296487410000003610948558326767015_">
			<use xlink:href="#SVGID_00000121253862510153675070000009402651950097337735_"  style="overflow:visible;"/>
		</clipPath>
		<g id="XMLID_11_" style="clip-path:url(#SVGID_00000119806613624296487410000003610948558326767015_);">
			<g id="XMLID_42_">
				<path id="XMLID_51_" class="st10" d="M87.2,42.1c-2.4-1.5-3.6-3.5-4.5-5.2c-1.3-2.3-0.9-2.5-2.6-6c-1.3-2.8-2-4.2-3.4-5.2
					c-2-1.5-4.2-1.7-5.3-1.7c-2.2-0.1-3.8,0.4-6,1.2c-3.5,1.3-3.3,2-6.2,2.8c-2.9,0.8-5.1,0.6-5.9,0.5"/>
				<path id="XMLID_50_" class="st10" d="M57.4,18.5C59.8,20,61,22,62,23.6c1.3,2.3,0.9,2.5,2.6,6c1.3,2.8,2,4.2,3.4,5.2
					c2,1.5,4.2,1.7,5.3,1.7c2.2,0.1,3.8-0.4,6-1.2c3.5-1.3,3.3-2,6.2-2.8c2.9-0.8,5.1-0.6,5.9-0.5"/>
				<line id="XMLID_49_" class="st11" x1="69.6" y1="24.1" x2="66.6" y2="33.1"/>
				<line id="XMLID_48_" class="st11" x1="75.4" y1="24.2" x2="71.5" y2="35.9"/>
				<line id="XMLID_47_" class="st11" x1="79.2" y1="28.2" x2="76.2" y2="37.2"/>
				<path id="XMLID_46_" class="st11" d="M72.7,25"/>
				<line id="XMLID_45_" class="st11" x1="86.7" y1="32.4" x2="84.3" y2="39.6"/>
				<line id="XMLID_44_" class="st11" x1="60.2" y1="20.1" x2="57.2" y2="29.1"/>
				<path id="XMLID_43_" class="st11" d="M88.2,43.2"/>
			</g>
		</g>
	</g>
</g>
</svg>
