<svg width="98" height="98" viewBox="0 0 98 98" fill="none" xmlns="http://www.w3.org/2000/svg">
<path d="M40.4605 73.6799L24.4805 54.6299L32.9905 31.2599L57.4805 26.9399L73.4605 45.9899L64.9605 69.3599L40.4605 73.6799Z" stroke="#1B8488" stroke-width="1.0905" stroke-miterlimit="10"/>
<path d="M57.4805 26.9399L32.9905 31.2599L24.4805 54.6299L40.4605 73.6799L64.9605 69.3599L73.4605 45.9899L57.4805 26.9399Z" stroke="#1B8488" stroke-width="1.0905" stroke-miterlimit="10"/>
<path d="M33.0205 31.4199L41.1005 39.1099L62.6305 47.1199L73.4905 46.1599" stroke="#1B8488" stroke-width="1.0905" stroke-miterlimit="10"/>
<path d="M24.4004 54.5999L43.8204 63.9199L64.8804 69.3299L62.5204 46.9199L57.4004 26.9099L40.9904 38.9199L24.4004 54.5999Z" stroke="#1B8488" stroke-width="1.0905" stroke-miterlimit="10"/>
<path d="M40.6104 73.95L44.2803 63.59L62.6504 47.47" stroke="#1B8488" stroke-width="1.0905" stroke-miterlimit="10"/>
<path d="M44.4705 63.0898L40.7104 38.5698" stroke="#1B8488" stroke-width="1.0905" stroke-miterlimit="10"/>
<path d="M49.0002 95.5699C74.7201 95.5699 95.5702 74.7198 95.5702 48.9999C95.5702 23.28 74.7201 2.42993 49.0002 2.42993C23.2803 2.42993 2.43018 23.28 2.43018 48.9999C2.43018 74.7198 23.2803 95.5699 49.0002 95.5699Z" stroke="#1B8488" stroke-width="3.8166" stroke-miterlimit="10"/>
</svg>
