<?xml version="1.0" encoding="utf-8"?>
<!-- Generator: Adobe Illustrator 26.0.3, SVG Export Plug-In . SVG Version: 6.00 Build 0)  -->
<svg version="1.1" id="Layer_1" xmlns="http://www.w3.org/2000/svg" xmlns:xlink="http://www.w3.org/1999/xlink" x="0px" y="0px"
	 viewBox="0 0 106 106" style="enable-background:new 0 0 106 106;" xml:space="preserve">
<style type="text/css">
	
		.st0{clip-path:url(#SVGID_00000114779871203360674310000013378704074487541408_);fill:#1B8488;stroke:#1B8488;stroke-miterlimit:10;}
	
		.st1{clip-path:url(#SVGID_00000140711181190500097910000010228740983228933280_);fill:none;stroke:#1B8488;stroke-width:2.2487;stroke-miterlimit:10;}
	
		.st2{clip-path:url(#SVGID_00000121968614506217751660000010337330622576415411_);fill:none;stroke:#1B8488;stroke-width:4.2163;stroke-miterlimit:10;}
	
		.st3{clip-path:url(#SVGID_00000170259847442562485330000006249767744208988850_);fill:none;stroke:#1B8488;stroke-width:2.2487;stroke-miterlimit:10;}
	
		.st4{clip-path:url(#SVGID_00000178195388019734325960000014293261141595779208_);fill:none;stroke:#1B8488;stroke-width:0.2811;stroke-miterlimit:10;}
	
		.st5{clip-path:url(#SVGID_00000001624961839170195050000009820129394588112262_);fill:none;stroke:#1B8488;stroke-width:4.2163;stroke-miterlimit:10;}
	
		.st6{clip-path:url(#SVGID_00000075861537116019914040000014604402326396148154_);fill:#1B8488;stroke:#1B8488;stroke-miterlimit:10;}
	
		.st7{clip-path:url(#SVGID_00000106857531463758788660000002569232388074110095_);fill:#1B8488;stroke:#1B8488;stroke-miterlimit:10;}
	
		.st8{clip-path:url(#SVGID_00000028283822361279796540000013427362665119306625_);fill:#1B8488;stroke:#1B8488;stroke-miterlimit:10;}
	
		.st9{clip-path:url(#SVGID_00000078765781302580027150000000032823126692533170_);fill:#1B8488;stroke:#1B8488;stroke-miterlimit:10;}
	
		.st10{clip-path:url(#SVGID_00000072263665589735517230000015916462046039103904_);fill:#1B8488;stroke:#1B8488;stroke-miterlimit:10;}
	
		.st11{clip-path:url(#SVGID_00000030484198863364329660000006669159984216591500_);fill:#1B8488;stroke:#1B8488;stroke-miterlimit:10;}
	
		.st12{clip-path:url(#SVGID_00000162351616954667355540000001743669600475115905_);fill:#1B8488;stroke:#1B8488;stroke-miterlimit:10;}
	
		.st13{clip-path:url(#SVGID_00000049217556240368288140000003581001482988250774_);fill:#1B8488;stroke:#1B8488;stroke-miterlimit:10;}
	
		.st14{clip-path:url(#SVGID_00000078754386707033783230000010263146303854468500_);fill:#1B8488;stroke:#1B8488;stroke-miterlimit:10;}
	
		.st15{clip-path:url(#SVGID_00000114759359959727066610000015756875292166937502_);fill:#1B8488;stroke:#1B8488;stroke-miterlimit:10;}
	
		.st16{clip-path:url(#SVGID_00000015329250264166520300000002588091798151047081_);fill:#1B8488;stroke:#1B8488;stroke-miterlimit:10;}
</style>
<g>
	<g>
		<defs>
			<path id="SVGID_1_" d="M103.5,53c0,27.2-22.6,49.3-50.4,49.3S2.5,80.2,2.5,53S25.3,3.7,53.1,3.7S103.5,25.8,103.5,53z"/>
		</defs>
		<clipPath id="SVGID_00000107568222302963362120000001617943683095209360_">
			<use xlink:href="#SVGID_1_"  style="overflow:visible;"/>
		</clipPath>
		
			<path id="XMLID_7_" style="clip-path:url(#SVGID_00000107568222302963362120000001617943683095209360_);fill:#1B8488;stroke:#1B8488;stroke-miterlimit:10;" d="
			M83.5,32.3L83.5,32.3c-1.4-1.1-1.6-3.1-0.5-4.5l8.9-11.2c1.1-1.4,3.2-1.6,4.5-0.5l0,0c1.4,1.1,1.6,3.1,0.5,4.5l-8.9,11.2
			C87,33.2,84.9,33.4,83.5,32.3z"/>
		<use xlink:href="#SVGID_1_"  style="overflow:visible;fill:none;stroke:#1B8488;stroke-miterlimit:10;"/>
	</g>
	<g>
		<defs>
			<path id="SVGID_00000066504172583667944800000014443900320554794372_" d="M103.5,53c0,27.2-22.6,49.3-50.4,49.3S2.5,80.2,2.5,53
				S25.3,3.7,53.1,3.7S103.5,25.8,103.5,53z"/>
		</defs>
		<clipPath id="SVGID_00000151533304795438741010000005122691197052175526_">
			<use xlink:href="#SVGID_00000066504172583667944800000014443900320554794372_"  style="overflow:visible;"/>
		</clipPath>
		
			<path id="XMLID_90_" style="clip-path:url(#SVGID_00000151533304795438741010000005122691197052175526_);fill:none;stroke:#1B8488;stroke-width:2.2487;stroke-miterlimit:10;" d="
			M61.4,76.3"/>
		
			<use xlink:href="#SVGID_00000066504172583667944800000014443900320554794372_"  style="overflow:visible;fill:none;stroke:#1B8488;stroke-miterlimit:10;"/>
	</g>
	<g>
		<defs>
			<path id="SVGID_00000063608626335163810060000005284009410325408393_" d="M103.5,53c0,27.2-22.6,49.3-50.4,49.3S2.5,80.2,2.5,53
				S25.3,3.7,53.1,3.7S103.5,25.8,103.5,53z"/>
		</defs>
		<clipPath id="SVGID_00000029032223856888424430000009887942567357892255_">
			<use xlink:href="#SVGID_00000063608626335163810060000005284009410325408393_"  style="overflow:visible;"/>
		</clipPath>
		
			<ellipse id="XMLID_89_" style="clip-path:url(#SVGID_00000029032223856888424430000009887942567357892255_);fill:none;stroke:#1B8488;stroke-width:4.2163;stroke-miterlimit:10;" cx="53.1" cy="53" rx="48.4" ry="47.2"/>
		
			<use xlink:href="#SVGID_00000063608626335163810060000005284009410325408393_"  style="overflow:visible;fill:none;stroke:#1B8488;stroke-miterlimit:10;"/>
	</g>
	<g>
		<defs>
			<path id="SVGID_00000024686082546419823590000011271511016615896496_" d="M103.5,53c0,27.2-22.6,49.3-50.4,49.3S2.5,80.2,2.5,53
				S25.3,3.7,53.1,3.7S103.5,25.8,103.5,53z"/>
		</defs>
		<clipPath id="SVGID_00000009582463362290673650000008451810567245443237_">
			<use xlink:href="#SVGID_00000024686082546419823590000011271511016615896496_"  style="overflow:visible;"/>
		</clipPath>
		
			<path id="XMLID_88_" style="clip-path:url(#SVGID_00000009582463362290673650000008451810567245443237_);fill:none;stroke:#1B8488;stroke-width:2.2487;stroke-miterlimit:10;" d="
			M57.3,47.2"/>
		
			<use xlink:href="#SVGID_00000024686082546419823590000011271511016615896496_"  style="overflow:visible;fill:none;stroke:#1B8488;stroke-miterlimit:10;"/>
	</g>
	<g>
		<defs>
			<path id="SVGID_00000078015871525801464780000014371576026591759257_" d="M103.5,53c0,27.2-22.6,49.3-50.4,49.3S2.5,80.2,2.5,53
				S25.3,3.7,53.1,3.7S103.5,25.8,103.5,53z"/>
		</defs>
		<clipPath id="SVGID_00000124120274808184796740000009310030114647848100_">
			<use xlink:href="#SVGID_00000078015871525801464780000014371576026591759257_"  style="overflow:visible;"/>
		</clipPath>
		
			<path id="XMLID_16_" style="clip-path:url(#SVGID_00000124120274808184796740000009310030114647848100_);fill:none;stroke:#1B8488;stroke-width:0.2811;stroke-miterlimit:10;" d="
			M52.4,79.1"/>
		
			<use xlink:href="#SVGID_00000078015871525801464780000014371576026591759257_"  style="overflow:visible;fill:none;stroke:#1B8488;stroke-miterlimit:10;"/>
	</g>
	<g>
		<defs>
			<path id="SVGID_00000100377509093182184420000013521154823810295936_" d="M103.5,53c0,27.2-22.6,49.3-50.4,49.3S2.5,80.2,2.5,53
				S25.3,3.7,53.1,3.7S103.5,25.8,103.5,53z"/>
		</defs>
		<clipPath id="SVGID_00000012472340561921345280000008831790052719923329_">
			<use xlink:href="#SVGID_00000100377509093182184420000013521154823810295936_"  style="overflow:visible;"/>
		</clipPath>
		
			<ellipse id="XMLID_15_" style="clip-path:url(#SVGID_00000012472340561921345280000008831790052719923329_);fill:none;stroke:#1B8488;stroke-width:4.2163;stroke-miterlimit:10;" cx="53.1" cy="53" rx="48.4" ry="47.2"/>
		
			<use xlink:href="#SVGID_00000100377509093182184420000013521154823810295936_"  style="overflow:visible;fill:none;stroke:#1B8488;stroke-miterlimit:10;"/>
	</g>
	<g>
		<defs>
			<path id="SVGID_00000129887132201881393180000006502774753710260145_" d="M103.5,53c0,27.2-22.6,49.3-50.4,49.3S2.5,80.2,2.5,53
				S25.3,3.7,53.1,3.7S103.5,25.8,103.5,53z"/>
		</defs>
		<clipPath id="SVGID_00000123441614624944629470000015556115259004363446_">
			<use xlink:href="#SVGID_00000129887132201881393180000006502774753710260145_"  style="overflow:visible;"/>
		</clipPath>
		
			<path id="XMLID_14_" style="clip-path:url(#SVGID_00000123441614624944629470000015556115259004363446_);fill:#1B8488;stroke:#1B8488;stroke-miterlimit:10;" d="
			M66.1,86.3L66.1,86.3c-1.4-1.1-1.6-3.2-0.5-4.5l8.9-11.2c1.1-1.4,3.2-1.6,4.5-0.5l0,0c1.4,1.1,1.6,3.2,0.5,4.5l-8.9,11.2
			C69.5,87.2,67.4,87.4,66.1,86.3z"/>
		
			<use xlink:href="#SVGID_00000129887132201881393180000006502774753710260145_"  style="overflow:visible;fill:none;stroke:#1B8488;stroke-miterlimit:10;"/>
	</g>
	<g>
		<defs>
			<path id="SVGID_00000170266649305435958630000000717030013859163068_" d="M103.5,53c0,27.2-22.6,49.3-50.4,49.3S2.5,80.2,2.5,53
				S25.3,3.7,53.1,3.7S103.5,25.8,103.5,53z"/>
		</defs>
		<clipPath id="SVGID_00000109723747356453868830000010686863069981747585_">
			<use xlink:href="#SVGID_00000170266649305435958630000000717030013859163068_"  style="overflow:visible;"/>
		</clipPath>
		
			<path id="XMLID_13_" style="clip-path:url(#SVGID_00000109723747356453868830000010686863069981747585_);fill:#1B8488;stroke:#1B8488;stroke-miterlimit:10;" d="
			M35.8,82.7L35.8,82.7c-1.5,0.9-3.5,0.4-4.4-1.2l-7.3-12.3c-0.9-1.5-0.4-3.5,1.1-4.4l0,0c1.5-0.9,3.5-0.4,4.4,1.2L37,78.3
			C37.9,79.8,37.4,81.8,35.8,82.7z"/>
		
			<use xlink:href="#SVGID_00000170266649305435958630000000717030013859163068_"  style="overflow:visible;fill:none;stroke:#1B8488;stroke-miterlimit:10;"/>
	</g>
	<g>
		<defs>
			<path id="SVGID_00000044147733603367463280000014880628619631285660_" d="M103.5,53c0,27.2-22.6,49.3-50.4,49.3S2.5,80.2,2.5,53
				S25.3,3.7,53.1,3.7S103.5,25.8,103.5,53z"/>
		</defs>
		<clipPath id="SVGID_00000140713666053922709100000015862722890204164790_">
			<use xlink:href="#SVGID_00000044147733603367463280000014880628619631285660_"  style="overflow:visible;"/>
		</clipPath>
		
			<path id="XMLID_12_" style="clip-path:url(#SVGID_00000140713666053922709100000015862722890204164790_);fill:#1B8488;stroke:#1B8488;stroke-miterlimit:10;" d="
			M71.2,37.7L71.2,37.7c-1.8,0.2-3.3-1.2-3.5-2.9l-1.2-14.3c-0.2-1.8,1.2-3.4,2.9-3.5l0,0c1.8-0.1,3.3,1.2,3.5,2.9l1.2,14.3
			C74.3,35.9,73,37.5,71.2,37.7z"/>
		
			<use xlink:href="#SVGID_00000044147733603367463280000014880628619631285660_"  style="overflow:visible;fill:none;stroke:#1B8488;stroke-miterlimit:10;"/>
	</g>
	<g>
		<defs>
			<path id="SVGID_00000068658131637434526200000009701347807084033704_" d="M103.5,53c0,27.2-22.6,49.3-50.4,49.3S2.5,80.2,2.5,53
				S25.3,3.7,53.1,3.7S103.5,25.8,103.5,53z"/>
		</defs>
		<clipPath id="SVGID_00000110436509170862391570000003118879060123912349_">
			<use xlink:href="#SVGID_00000068658131637434526200000009701347807084033704_"  style="overflow:visible;"/>
		</clipPath>
		
			<path id="XMLID_10_" style="clip-path:url(#SVGID_00000110436509170862391570000003118879060123912349_);fill:#1B8488;stroke:#1B8488;stroke-miterlimit:10;" d="
			M87.8,77.2L87.8,77.2c-1.8,0.2-3.3-1.2-3.5-2.9L83,60c-0.2-1.8,1.2-3.3,2.9-3.5l0,0c1.8-0.2,3.3,1.2,3.5,2.9l1.2,14.3
			C90.9,75.4,89.5,77,87.8,77.2z"/>
		
			<use xlink:href="#SVGID_00000068658131637434526200000009701347807084033704_"  style="overflow:visible;fill:none;stroke:#1B8488;stroke-miterlimit:10;"/>
	</g>
	<g>
		<defs>
			<path id="SVGID_00000150812225582172648160000017461696664146474674_" d="M103.5,53c0,27.2-22.6,49.3-50.4,49.3S2.5,80.2,2.5,53
				S25.3,3.7,53.1,3.7S103.5,25.8,103.5,53z"/>
		</defs>
		<clipPath id="SVGID_00000142898322200753172580000012655041991326866833_">
			<use xlink:href="#SVGID_00000150812225582172648160000017461696664146474674_"  style="overflow:visible;"/>
		</clipPath>
		
			<path id="XMLID_9_" style="clip-path:url(#SVGID_00000142898322200753172580000012655041991326866833_);fill:#1B8488;stroke:#1B8488;stroke-miterlimit:10;" d="
			M13.6,64.5L13.6,64.5c-1.4-1.1-1.6-3.2-0.5-4.5L22,48.8c1.1-1.4,3.1-1.6,4.5-0.5l0,0c1.4,1.1,1.6,3.2,0.5,4.5L18.1,64
			C17,65.4,14.9,65.6,13.6,64.5z"/>
		
			<use xlink:href="#SVGID_00000150812225582172648160000017461696664146474674_"  style="overflow:visible;fill:none;stroke:#1B8488;stroke-miterlimit:10;"/>
	</g>
	<g>
		<defs>
			<path id="SVGID_00000021083091687817737360000012867960749531232437_" d="M103.5,53c0,27.2-22.6,49.3-50.4,49.3S2.5,80.2,2.5,53
				S25.3,3.7,53.1,3.7S103.5,25.8,103.5,53z"/>
		</defs>
		<clipPath id="SVGID_00000088837892242106276810000005165879286098257067_">
			<use xlink:href="#SVGID_00000021083091687817737360000012867960749531232437_"  style="overflow:visible;"/>
		</clipPath>
		
			<path id="XMLID_8_" style="clip-path:url(#SVGID_00000088837892242106276810000005165879286098257067_);fill:#1B8488;stroke:#1B8488;stroke-miterlimit:10;" d="
			M42.3,65.4L42.3,65.4c-0.3-1.8,0.8-3.4,2.6-3.8L59,59.1c1.8-0.3,3.4,0.8,3.8,2.6l0,0c0.3,1.8-0.8,3.4-2.6,3.8L46.1,68
			C44.4,68.3,42.7,67.2,42.3,65.4z"/>
		
			<use xlink:href="#SVGID_00000021083091687817737360000012867960749531232437_"  style="overflow:visible;fill:none;stroke:#1B8488;stroke-miterlimit:10;"/>
	</g>
	<g>
		<defs>
			<path id="SVGID_00000007404149802392096210000004632225588738073011_" d="M103.5,53c0,27.2-22.6,49.3-50.4,49.3S2.5,80.2,2.5,53
				S25.3,3.7,53.1,3.7S103.5,25.8,103.5,53z"/>
		</defs>
		<clipPath id="SVGID_00000103975220147748674760000018364472614389778577_">
			<use xlink:href="#SVGID_00000007404149802392096210000004632225588738073011_"  style="overflow:visible;"/>
		</clipPath>
		
			<path id="XMLID_6_" style="clip-path:url(#SVGID_00000103975220147748674760000018364472614389778577_);fill:#1B8488;stroke:#1B8488;stroke-miterlimit:10;" d="
			M49.6,44.5L49.6,44.5c0.5-1.7,2.3-2.7,4-2.2l13.7,4c1.7,0.5,2.7,2.3,2.2,4l0,0c-0.5,1.7-2.3,2.7-4,2.2l-13.7-4
			C50.1,48.1,49.1,46.2,49.6,44.5z"/>
		
			<use xlink:href="#SVGID_00000007404149802392096210000004632225588738073011_"  style="overflow:visible;fill:none;stroke:#1B8488;stroke-miterlimit:10;"/>
	</g>
	<g>
		<defs>
			<path id="SVGID_00000043459005970775360150000013558106536394308009_" d="M103.5,53c0,27.2-22.6,49.3-50.4,49.3S2.5,80.2,2.5,53
				S25.3,3.7,53.1,3.7S103.5,25.8,103.5,53z"/>
		</defs>
		<clipPath id="SVGID_00000026847288455189292140000004014404408798900369_">
			<use xlink:href="#SVGID_00000043459005970775360150000013558106536394308009_"  style="overflow:visible;"/>
		</clipPath>
		
			<path id="XMLID_5_" style="clip-path:url(#SVGID_00000026847288455189292140000004014404408798900369_);fill:#1B8488;stroke:#1B8488;stroke-miterlimit:10;" d="
			M75.2,55.3L75.2,55.3c-1.3-1.2-1.5-3.2-0.3-4.6L84.3,40c1.2-1.3,3.2-1.5,4.6-0.3l0,0c1.3,1.2,1.5,3.2,0.3,4.6L79.7,55
			C78.6,56.4,76.5,56.5,75.2,55.3z"/>
		
			<use xlink:href="#SVGID_00000043459005970775360150000013558106536394308009_"  style="overflow:visible;fill:none;stroke:#1B8488;stroke-miterlimit:10;"/>
	</g>
	<g>
		<defs>
			<path id="SVGID_00000126280986500354689910000016609084637658165427_" d="M103.5,53c0,27.2-22.6,49.3-50.4,49.3S2.5,80.2,2.5,53
				S25.3,3.7,53.1,3.7S103.5,25.8,103.5,53z"/>
		</defs>
		<clipPath id="SVGID_00000158732607421735559930000001143134548689043336_">
			<use xlink:href="#SVGID_00000126280986500354689910000016609084637658165427_"  style="overflow:visible;"/>
		</clipPath>
		
			<path id="XMLID_4_" style="clip-path:url(#SVGID_00000158732607421735559930000001143134548689043336_);fill:#1B8488;stroke:#1B8488;stroke-miterlimit:10;" d="
			M40.9,20.4L40.9,20.4c0.9-1.5,2.9-2,4.4-1.1l12.3,7.4c1.5,0.9,2,2.9,1.1,4.4l0,0c-0.9,1.5-2.9,2-4.4,1.1L42,24.8
			C40.4,23.9,40,21.9,40.9,20.4z"/>
		
			<use xlink:href="#SVGID_00000126280986500354689910000016609084637658165427_"  style="overflow:visible;fill:none;stroke:#1B8488;stroke-miterlimit:10;"/>
	</g>
	<g>
		<defs>
			<path id="SVGID_00000091736216805869538020000006066012803295128252_" d="M103.5,53c0,27.2-22.6,49.3-50.4,49.3S2.5,80.2,2.5,53
				S25.3,3.7,53.1,3.7S103.5,25.8,103.5,53z"/>
		</defs>
		<clipPath id="SVGID_00000070807162985901134640000009041612692047273896_">
			<use xlink:href="#SVGID_00000091736216805869538020000006066012803295128252_"  style="overflow:visible;"/>
		</clipPath>
		
			<path id="XMLID_3_" style="clip-path:url(#SVGID_00000070807162985901134640000009041612692047273896_);fill:#1B8488;stroke:#1B8488;stroke-miterlimit:10;" d="
			M23.7,22.4L23.7,22.4c1.5-1,3.5-0.6,4.5,0.8L36.3,35c1,1.5,0.6,3.5-0.8,4.5l0,0c-1.5,1-3.5,0.6-4.5-0.8l-8.1-11.8
			C21.9,25.4,22.2,23.4,23.7,22.4z"/>
		
			<use xlink:href="#SVGID_00000091736216805869538020000006066012803295128252_"  style="overflow:visible;fill:none;stroke:#1B8488;stroke-miterlimit:10;"/>
	</g>
	<g>
		<defs>
			<path id="SVGID_00000179637951366490715090000009256803433718468790_" d="M103.5,53c0,27.2-22.6,49.3-50.4,49.3S2.5,80.2,2.5,53
				S25.3,3.7,53.1,3.7S103.5,25.8,103.5,53z"/>
		</defs>
		<clipPath id="SVGID_00000176018016927958166690000016235387834304351875_">
			<use xlink:href="#SVGID_00000179637951366490715090000009256803433718468790_"  style="overflow:visible;"/>
		</clipPath>
		
			<path id="XMLID_2_" style="clip-path:url(#SVGID_00000176018016927958166690000016235387834304351875_);fill:#1B8488;stroke:#1B8488;stroke-miterlimit:10;" d="
			M58.5,93.6L58.5,93.6c-1.3,1.2-3.3,1.2-4.6-0.1L44,83.3c-1.2-1.3-1.2-3.3,0.1-4.6l0,0c1.3-1.2,3.3-1.2,4.6,0.1l10,10.3
			C59.8,90.3,59.8,92.4,58.5,93.6z"/>
		
			<use xlink:href="#SVGID_00000179637951366490715090000009256803433718468790_"  style="overflow:visible;fill:none;stroke:#1B8488;stroke-miterlimit:10;"/>
	</g>
</g>
</svg>
