<svg width="96" height="96" viewBox="0 0 96 96" fill="none" xmlns="http://www.w3.org/2000/svg">
<path d="M69.8804 69.21C72.0004 71.24 73.7304 73.77 73.7304 74.84C73.7304 75.91 73.1504 77.58 72.4304 78.56C71.7204 79.54 69.9004 80.34 68.3804 80.34C66.8604 80.34 64.0304 78.55 62.0904 76.35L35.8204 46.76C33.8704 44.57 29.9504 43.28 27.1004 43.91C24.2504 44.53 20.4304 43.16 18.6204 40.86L16.0404 37.58C14.2304 35.28 13.6204 32.74 14.7004 31.93C15.7804 31.13 18.3504 31.78 20.4204 33.39C22.4904 35 25.1404 36.09 26.3004 35.82C27.4604 35.55 28.9204 34.24 29.5404 32.91C30.1504 31.57 29.2004 29.02 27.4204 27.24C25.6404 25.46 24.7604 23.27 25.4804 22.38C26.2004 21.49 28.8504 21.97 31.3804 23.45L33.8304 24.88C36.3604 26.36 38.1404 29.9 37.7904 32.75C37.4404 35.6 38.8804 39.59 41.0004 41.61L69.8804 69.21Z" stroke="#1B8488" stroke-width="1.5992" stroke-miterlimit="10"/>
<path d="M67.4803 40.84C66.3403 40.48 64.5603 41.04 63.5203 42.07L53.3003 52.23C52.2603 53.26 51.4103 54.47 51.4103 54.92C51.4103 55.37 50.6003 56.61 49.6003 57.69L30.5503 78.38C29.5603 79.46 27.8703 79.52 26.7903 78.53L21.6303 73.74C20.5603 72.74 20.5403 71.1 21.6003 70.08L42.0403 50.46C43.1003 49.44 44.2903 48.61 44.7003 48.61C45.1103 48.61 46.3603 47.84 47.4803 46.9L58.1103 38.01C59.2303 37.07 59.9403 35.64 59.6703 34.84C59.4003 34.04 59.5503 32.87 59.9903 32.25C60.4403 31.63 60.3003 30.02 59.7003 28.69L58.6703 26.42C58.0603 25.09 56.4103 23.67 55.0003 23.28L54.3103 23.09C52.9003 22.7 50.5403 22.38 49.0803 22.38H48.1003C46.6303 22.38 46.6203 22.22 48.0803 22.03L54.9203 21.12C56.3703 20.93 58.7003 21.14 60.0903 21.6L62.8703 22.52C64.2603 22.98 66.2003 24.25 67.1803 25.34L72.9303 31.74C73.9103 32.83 75.2103 34.81 75.8103 36.15L76.8403 38.42C77.4503 39.75 78.4503 40.7 79.0803 40.52C79.7003 40.34 80.9403 40.78 81.8303 41.49C82.7203 42.2 82.6403 43.67 81.6503 44.75L78.1303 48.59C77.1403 49.67 75.6303 49.9 74.7803 49.1C73.9303 48.3 73.2303 47.28 73.2303 46.83C73.2303 46.38 72.9103 45.44 72.5103 44.73C72.1103 44.02 71.2803 43 70.6603 42.46C70.0503 41.92 68.6103 41.19 67.4803 40.84Z" fill="white"/>
<path d="M67.4803 40.84C66.3403 40.48 64.5603 41.04 63.5203 42.07L53.3003 52.23C52.2603 53.26 51.4103 54.47 51.4103 54.92C51.4103 55.37 50.6003 56.61 49.6003 57.69L30.5503 78.38C29.5603 79.46 27.8703 79.52 26.7903 78.53L21.6303 73.74C20.5603 72.74 20.5403 71.1 21.6003 70.08L42.0403 50.46C43.1003 49.44 44.2903 48.61 44.7003 48.61C45.1103 48.61 46.3603 47.84 47.4803 46.9L58.1103 38.01C59.2303 37.07 59.9403 35.64 59.6703 34.84C59.4003 34.04 59.5503 32.87 59.9903 32.25C60.4403 31.63 60.3003 30.02 59.7003 28.69L58.6703 26.42C58.0603 25.09 56.4103 23.67 55.0003 23.28L54.3103 23.09C52.9003 22.7 50.5403 22.38 49.0803 22.38H48.1003C46.6303 22.38 46.6203 22.22 48.0803 22.03L54.9203 21.12C56.3703 20.93 58.7003 21.14 60.0903 21.6L62.8703 22.52C64.2603 22.98 66.2003 24.25 67.1803 25.34L72.9303 31.74C73.9103 32.83 75.2103 34.81 75.8103 36.15L76.8403 38.42C77.4503 39.75 78.4503 40.7 79.0803 40.52C79.7003 40.34 80.9403 40.78 81.8303 41.49C82.7203 42.2 82.6403 43.67 81.6503 44.75L78.1303 48.59C77.1403 49.67 75.6303 49.9 74.7803 49.1C73.9303 48.3 73.2303 47.28 73.2303 46.83C73.2303 46.38 72.9103 45.44 72.5103 44.73C72.1103 44.02 71.2803 43 70.6603 42.46C70.0503 41.92 68.6103 41.19 67.4803 40.84Z" stroke="#1B8488" stroke-width="1.5992" stroke-miterlimit="10"/>
<path d="M67.8003 76.81C69.3191 76.81 70.5503 75.6549 70.5503 74.23C70.5503 72.8051 69.3191 71.65 67.8003 71.65C66.2815 71.65 65.0503 72.8051 65.0503 74.23C65.0503 75.6549 66.2815 76.81 67.8003 76.81Z" stroke="#1B8488" stroke-width="1.5992" stroke-miterlimit="10"/>
<path d="M48.0002 93.53C73.1457 93.53 93.5302 73.1455 93.5302 48C93.5302 22.8544 73.1457 2.46997 48.0002 2.46997C22.8547 2.46997 2.47021 22.8544 2.47021 48C2.47021 73.1455 22.8547 93.53 48.0002 93.53Z" stroke="#1B8488" stroke-width="3.7314" stroke-miterlimit="10"/>
</svg>
