<svg width="98" height="98" viewBox="0 0 98 98" fill="none" xmlns="http://www.w3.org/2000/svg">
<path d="M45.9 24.4201L42.21 20.0301L44.17 14.6401L49.82 13.6401L53.51 18.0301L51.55 23.4201L45.9 24.4201Z" stroke="#1B8488" stroke-width="0.5433" stroke-miterlimit="10"/>
<path d="M49.82 13.6401L44.17 14.6401L42.21 20.0301L45.9 24.4201L51.55 23.4201L53.51 18.0301L49.82 13.6401Z" stroke="#1B8488" stroke-width="0.5433" stroke-miterlimit="10"/>
<path d="M44.1802 14.6702L46.0402 16.4502L51.0102 18.2902L53.5202 18.0702" stroke="#1B8488" stroke-width="0.5433" stroke-miterlimit="10"/>
<path d="M42.1899 20.0201L46.6699 22.1701L51.5299 23.4201L50.9899 18.2501L49.8099 13.6301L46.0199 16.4001L42.1899 20.0201Z" stroke="#1B8488" stroke-width="0.5433" stroke-miterlimit="10"/>
<path d="M45.9302 24.4801L46.7802 22.0901L51.0202 18.3801" stroke="#1B8488" stroke-width="0.5433" stroke-miterlimit="10"/>
<path d="M46.82 21.9801L45.96 16.3201" stroke="#1B8488" stroke-width="0.5433" stroke-miterlimit="10"/>
<path d="M39.8399 39.7402L36.1499 35.3502L38.1099 29.9602L43.7599 28.9602L47.4499 33.3602L45.4899 38.7502L39.8399 39.7402Z" stroke="#1B8488" stroke-width="0.5433" stroke-miterlimit="10"/>
<path d="M43.7599 28.9602L38.1099 29.9602L36.1499 35.3502L39.8399 39.7402L45.4899 38.7502L47.4499 33.3602L43.7599 28.9602Z" stroke="#1B8488" stroke-width="0.5433" stroke-miterlimit="10"/>
<path d="M38.1201 29.9902L39.9801 31.7702L44.9501 33.6102L47.4501 33.3902" stroke="#1B8488" stroke-width="0.5433" stroke-miterlimit="10"/>
<path d="M36.1299 35.3402L40.6099 37.4902L45.4699 38.7402L44.9199 33.5702L43.7399 28.9502L39.9599 31.7202L36.1299 35.3402Z" stroke="#1B8488" stroke-width="0.5433" stroke-miterlimit="10"/>
<path d="M39.8701 39.8002L40.7201 37.4102L44.9501 33.7002" stroke="#1B8488" stroke-width="0.5433" stroke-miterlimit="10"/>
<path d="M40.7596 37.3001L39.8896 31.6401" stroke="#1B8488" stroke-width="0.5433" stroke-miterlimit="10"/>
<path d="M51.8299 39.7402L48.1499 35.3502L50.1099 29.9602L55.7599 28.9602L59.4399 33.3602L57.4799 38.7502L51.8299 39.7402Z" stroke="#1B8488" stroke-width="0.5433" stroke-miterlimit="10"/>
<path d="M55.7599 28.9602L50.1099 29.9602L48.1499 35.3502L51.8299 39.7402L57.4799 38.7502L59.4399 33.3602L55.7599 28.9602Z" stroke="#1B8488" stroke-width="0.5433" stroke-miterlimit="10"/>
<path d="M50.1099 29.9902L51.9799 31.7702L56.9399 33.6102L59.4499 33.3902" stroke="#1B8488" stroke-width="0.5433" stroke-miterlimit="10"/>
<path d="M48.1299 35.3402L52.6099 37.4902L57.4599 38.7402L56.9199 33.5702L55.7399 28.9502L51.9499 31.7202L48.1299 35.3402Z" stroke="#1B8488" stroke-width="0.5433" stroke-miterlimit="10"/>
<path d="M51.8701 39.8002L52.7101 37.4102L56.9501 33.7002" stroke="#1B8488" stroke-width="0.5433" stroke-miterlimit="10"/>
<path d="M52.7596 37.3001L51.8896 31.6401" stroke="#1B8488" stroke-width="0.5433" stroke-miterlimit="10"/>
<path d="M52.3301 55.8401L48.6401 51.4501L50.6101 46.0601L56.2501 45.0601L59.9401 49.4501L57.9801 54.8401L52.3301 55.8401Z" stroke="#1B8488" stroke-width="0.5433" stroke-miterlimit="10"/>
<path d="M56.2501 45.0601L50.6101 46.0601L48.6401 51.4501L52.3301 55.8401L57.9801 54.8401L59.9401 49.4501L56.2501 45.0601Z" stroke="#1B8488" stroke-width="0.5433" stroke-miterlimit="10"/>
<path d="M50.6104 46.0901L52.4804 47.8701L57.4403 49.7101L59.9504 49.4901" stroke="#1B8488" stroke-width="0.5433" stroke-miterlimit="10"/>
<path d="M48.6201 51.44L53.1001 53.59L57.9601 54.84L57.4201 49.67L56.2401 45.05L52.4501 47.82L48.6201 51.44Z" stroke="#1B8488" stroke-width="0.5433" stroke-miterlimit="10"/>
<path d="M52.3604 55.9001L53.2104 53.51L57.4504 49.8" stroke="#1B8488" stroke-width="0.5433" stroke-miterlimit="10"/>
<path d="M53.2501 53.4L52.3901 47.74" stroke="#1B8488" stroke-width="0.5433" stroke-miterlimit="10"/>
<path d="M27.5203 55.8401L23.8403 51.4501L25.8003 46.0601L31.4503 45.0601L35.1303 49.4501L33.1703 54.8401L27.5203 55.8401Z" stroke="#1B8488" stroke-width="0.5433" stroke-miterlimit="10"/>
<path d="M31.4503 45.0601L25.8003 46.0601L23.8403 51.4501L27.5203 55.8401L33.1703 54.8401L35.1303 49.4501L31.4503 45.0601Z" stroke="#1B8488" stroke-width="0.5433" stroke-miterlimit="10"/>
<path d="M25.8105 46.0901L27.6705 47.8701L32.6405 49.7101L35.1405 49.4901" stroke="#1B8488" stroke-width="0.5433" stroke-miterlimit="10"/>
<path d="M23.8203 51.44L28.3003 53.59L33.1503 54.84L32.6103 49.67L31.4303 45.05L27.6403 47.82L23.8203 51.44Z" stroke="#1B8488" stroke-width="0.5433" stroke-miterlimit="10"/>
<path d="M27.5605 55.9001L28.4005 53.51L32.6405 49.8" stroke="#1B8488" stroke-width="0.5433" stroke-miterlimit="10"/>
<path d="M28.4501 53.4L27.5801 47.74" stroke="#1B8488" stroke-width="0.5433" stroke-miterlimit="10"/>
<path d="M39.9302 55.8401L36.2402 51.4501L38.2002 46.0601L43.8502 45.0601L47.5402 49.4501L45.5802 54.8401L39.9302 55.8401Z" stroke="#1B8488" stroke-width="0.5433" stroke-miterlimit="10"/>
<path d="M43.8502 45.0601L38.2002 46.0601L36.2402 51.4501L39.9302 55.8401L45.5802 54.8401L47.5402 49.4501L43.8502 45.0601Z" stroke="#1B8488" stroke-width="0.5433" stroke-miterlimit="10"/>
<path d="M38.2104 46.0901L40.0704 47.8701L45.0405 49.7101L47.5405 49.4901" stroke="#1B8488" stroke-width="0.5433" stroke-miterlimit="10"/>
<path d="M36.2202 51.44L40.7002 53.59L45.5602 54.84L45.0102 49.67L43.8302 45.05L40.0502 47.82L36.2202 51.44Z" stroke="#1B8488" stroke-width="0.5433" stroke-miterlimit="10"/>
<path d="M39.9604 55.9001L40.8105 53.51L45.0405 49.8" stroke="#1B8488" stroke-width="0.5433" stroke-miterlimit="10"/>
<path d="M40.85 53.4L39.98 47.74" stroke="#1B8488" stroke-width="0.5433" stroke-miterlimit="10"/>
<path d="M64.7303 55.81L61.0503 51.42L63.0103 46.03L68.6603 45.03L72.3403 49.43L70.3803 54.82L64.7303 55.81Z" stroke="#1B8488" stroke-width="0.5433" stroke-miterlimit="10"/>
<path d="M68.6603 45.03L63.0103 46.03L61.0503 51.42L64.7303 55.81L70.3803 54.82L72.3403 49.43L68.6603 45.03Z" stroke="#1B8488" stroke-width="0.5433" stroke-miterlimit="10"/>
<path d="M63.0103 46.0701L64.8802 47.8401L69.8402 49.6901L72.3503 49.4601" stroke="#1B8488" stroke-width="0.5433" stroke-miterlimit="10"/>
<path d="M61.0303 51.41L65.5103 53.56L70.3603 54.81L69.8203 49.64L68.6403 45.02L64.8503 47.79L61.0303 51.41Z" stroke="#1B8488" stroke-width="0.5433" stroke-miterlimit="10"/>
<path d="M64.7705 55.87L65.6105 53.48L69.8505 49.77" stroke="#1B8488" stroke-width="0.5433" stroke-miterlimit="10"/>
<path d="M65.66 53.37L64.79 47.71" stroke="#1B8488" stroke-width="0.5433" stroke-miterlimit="10"/>
<path d="M17.0601 70.5302L11.6501 71.4802L8.12012 67.2701L10.0101 62.1102L15.4201 61.1602L18.9401 65.3801L17.0601 70.5302Z" stroke="#1B8488" stroke-width="0.5433" stroke-miterlimit="10"/>
<path d="M11.67 71.8401L7.97998 67.4501L9.93998 62.0601L15.59 61.0601L19.28 65.4601L17.32 70.8501L11.67 71.8401Z" stroke="#1B8488" stroke-width="0.5433" stroke-miterlimit="10"/>
<path d="M15.59 61.0601L9.93998 62.0601L7.97998 67.4501L11.67 71.8401L17.32 70.8501L19.28 65.4601L15.59 61.0601Z" stroke="#1B8488" stroke-width="0.5433" stroke-miterlimit="10"/>
<path d="M9.9502 62.1001L11.8102 63.8701L16.7802 65.7201L19.2802 65.4901" stroke="#1B8488" stroke-width="0.5433" stroke-miterlimit="10"/>
<path d="M7.95996 67.4401L12.44 69.5901L17.3 70.8401L16.75 65.6701L15.57 61.0601L11.79 63.8201L7.95996 67.4401Z" stroke="#1B8488" stroke-width="0.5433" stroke-miterlimit="10"/>
<path d="M11.7002 71.9L12.5502 69.51L16.7802 65.8" stroke="#1B8488" stroke-width="0.5433" stroke-miterlimit="10"/>
<path d="M12.5897 69.4L11.7197 63.74" stroke="#1B8488" stroke-width="0.5433" stroke-miterlimit="10"/>
<path d="M27.5203 70.5302L22.1103 71.4802L18.5903 67.2701L20.4703 62.1102L25.8803 61.1602L29.4103 65.3801L27.5203 70.5302Z" stroke="#1B8488" stroke-width="0.5433" stroke-miterlimit="10"/>
<path d="M22.1299 71.8401L18.4399 67.4501L20.4099 62.0601L26.0599 61.0601L29.7399 65.4601L27.7799 70.8501L22.1299 71.8401Z" stroke="#1B8488" stroke-width="0.5433" stroke-miterlimit="10"/>
<path d="M26.0599 61.0601L20.4099 62.0601L18.4399 67.4501L22.1299 71.8401L27.7799 70.8501L29.7399 65.4601L26.0599 61.0601Z" stroke="#1B8488" stroke-width="0.5433" stroke-miterlimit="10"/>
<path d="M20.4102 62.1001L22.2802 63.8701L27.2402 65.7201L29.7502 65.4901" stroke="#1B8488" stroke-width="0.5433" stroke-miterlimit="10"/>
<path d="M18.4302 67.4401L22.9102 69.5901L27.7602 70.8401L27.2202 65.6701L26.0402 61.0601L22.2502 63.8201L18.4302 67.4401Z" stroke="#1B8488" stroke-width="0.5433" stroke-miterlimit="10"/>
<path d="M22.1704 71.9L23.0104 69.51L27.2504 65.8" stroke="#1B8488" stroke-width="0.5433" stroke-miterlimit="10"/>
<path d="M23.0499 69.4L22.1899 63.74" stroke="#1B8488" stroke-width="0.5433" stroke-miterlimit="10"/>
<path d="M37.9903 70.5302L32.5803 71.4802L29.0503 67.2701L30.9403 62.1102L36.3503 61.1602L39.8703 65.3801L37.9903 70.5302Z" stroke="#1B8488" stroke-width="0.5433" stroke-miterlimit="10"/>
<path d="M32.6002 71.8401L28.9102 67.4501L30.8702 62.0601L36.5202 61.0601L40.2102 65.4601L38.2502 70.8501L32.6002 71.8401Z" stroke="#1B8488" stroke-width="0.5433" stroke-miterlimit="10"/>
<path d="M36.5202 61.0601L30.8702 62.0601L28.9102 67.4501L32.6002 71.8401L38.2502 70.8501L40.2102 65.4601L36.5202 61.0601Z" stroke="#1B8488" stroke-width="0.5433" stroke-miterlimit="10"/>
<path d="M30.8804 62.1001L32.7404 63.8701L37.7104 65.7201L40.2104 65.4901" stroke="#1B8488" stroke-width="0.5433" stroke-miterlimit="10"/>
<path d="M28.8901 67.4401L33.3701 69.5901L38.2301 70.8401L37.6801 65.6701L36.5001 61.0601L32.7201 63.8201L28.8901 67.4401Z" stroke="#1B8488" stroke-width="0.5433" stroke-miterlimit="10"/>
<path d="M32.6304 71.9L33.4804 69.51L37.7104 65.8" stroke="#1B8488" stroke-width="0.5433" stroke-miterlimit="10"/>
<path d="M33.5199 69.4L32.6499 63.74" stroke="#1B8488" stroke-width="0.5433" stroke-miterlimit="10"/>
<path d="M48.45 70.5302L43.04 71.4802L39.52 67.2701L41.4 62.1102L46.81 61.1602L50.34 65.3801L48.45 70.5302Z" stroke="#1B8488" stroke-width="0.5433" stroke-miterlimit="10"/>
<path d="M43.0596 71.8401L39.3696 67.4501L41.3396 62.0601L46.9896 61.0601L50.6696 65.4601L48.7096 70.8501L43.0596 71.8401Z" stroke="#1B8488" stroke-width="0.5433" stroke-miterlimit="10"/>
<path d="M46.9896 61.0601L41.3396 62.0601L39.3696 67.4501L43.0596 71.8401L48.7096 70.8501L50.6696 65.4601L46.9896 61.0601Z" stroke="#1B8488" stroke-width="0.5433" stroke-miterlimit="10"/>
<path d="M41.3398 62.1001L43.2098 63.8701L48.1698 65.7201L50.6798 65.4901" stroke="#1B8488" stroke-width="0.5433" stroke-miterlimit="10"/>
<path d="M39.3599 67.4401L43.8399 69.5901L48.6899 70.8401L48.1499 65.6701L46.9699 61.0601L43.1799 63.8201L39.3599 67.4401Z" stroke="#1B8488" stroke-width="0.5433" stroke-miterlimit="10"/>
<path d="M43.0898 71.9L43.9398 69.51L48.1798 65.8" stroke="#1B8488" stroke-width="0.5433" stroke-miterlimit="10"/>
<path d="M43.9796 69.4L43.1196 63.74" stroke="#1B8488" stroke-width="0.5433" stroke-miterlimit="10"/>
<path d="M58.9205 70.5302L53.5105 71.4802L49.9805 67.2701L51.8705 62.1102L57.2805 61.1602L60.8005 65.3801L58.9205 70.5302Z" stroke="#1B8488" stroke-width="0.5433" stroke-miterlimit="10"/>
<path d="M53.5303 71.8401L49.8403 67.4501L51.8003 62.0601L57.4503 61.0601L61.1403 65.4601L59.1703 70.8501L53.5303 71.8401Z" stroke="#1B8488" stroke-width="0.5433" stroke-miterlimit="10"/>
<path d="M57.4503 61.0601L51.8003 62.0601L49.8403 67.4501L53.5303 71.8401L59.1703 70.8501L61.1403 65.4601L57.4503 61.0601Z" stroke="#1B8488" stroke-width="0.5433" stroke-miterlimit="10"/>
<path d="M51.8105 62.1001L53.6705 63.8701L58.6405 65.7201L61.1405 65.4901" stroke="#1B8488" stroke-width="0.5433" stroke-miterlimit="10"/>
<path d="M49.8203 67.4401L54.3003 69.5901L59.1603 70.8401L58.6103 65.6701L57.4303 61.0601L53.6503 63.8201L49.8203 67.4401Z" stroke="#1B8488" stroke-width="0.5433" stroke-miterlimit="10"/>
<path d="M53.5605 71.9L54.4105 69.51L58.6405 65.8" stroke="#1B8488" stroke-width="0.5433" stroke-miterlimit="10"/>
<path d="M54.4501 69.4L53.5801 63.74" stroke="#1B8488" stroke-width="0.5433" stroke-miterlimit="10"/>
<path d="M69.3804 70.5302L63.9704 71.4802L60.4404 67.2701L62.3304 62.1102L67.7404 61.1602L71.2704 65.3801L69.3804 70.5302Z" stroke="#1B8488" stroke-width="0.5433" stroke-miterlimit="10"/>
<path d="M63.9903 71.8401L60.3003 67.4501L62.2703 62.0601L67.9103 61.0601L71.6003 65.4601L69.6403 70.8501L63.9903 71.8401Z" stroke="#1B8488" stroke-width="0.5433" stroke-miterlimit="10"/>
<path d="M67.9103 61.0601L62.2703 62.0601L60.3003 67.4501L63.9903 71.8401L69.6403 70.8501L71.6003 65.4601L67.9103 61.0601Z" stroke="#1B8488" stroke-width="0.5433" stroke-miterlimit="10"/>
<path d="M62.2705 62.1001L64.1405 63.8701L69.1005 65.7201L71.6105 65.4901" stroke="#1B8488" stroke-width="0.5433" stroke-miterlimit="10"/>
<path d="M60.2803 67.4401L64.7603 69.5901L69.6203 70.8401L69.0803 65.6701L67.9003 61.0601L64.1103 63.8201L60.2803 67.4401Z" stroke="#1B8488" stroke-width="0.5433" stroke-miterlimit="10"/>
<path d="M64.0205 71.9L64.8705 69.51L69.1105 65.8" stroke="#1B8488" stroke-width="0.5433" stroke-miterlimit="10"/>
<path d="M64.9103 69.4L64.0503 63.74" stroke="#1B8488" stroke-width="0.5433" stroke-miterlimit="10"/>
<path d="M79.8502 70.5302L74.4402 71.4802L70.9102 67.2701L72.7902 62.1102L78.2102 61.1602L81.7302 65.3801L79.8502 70.5302Z" stroke="#1B8488" stroke-width="0.5433" stroke-miterlimit="10"/>
<path d="M74.45 71.8401L70.77 67.4501L72.73 62.0601L78.38 61.0601L82.07 65.4601L80.1 70.8501L74.45 71.8401Z" stroke="#1B8488" stroke-width="0.5433" stroke-miterlimit="10"/>
<path d="M78.38 61.0601L72.73 62.0601L70.77 67.4501L74.45 71.8401L80.1 70.8501L82.07 65.4601L78.38 61.0601Z" stroke="#1B8488" stroke-width="0.5433" stroke-miterlimit="10"/>
<path d="M72.7402 62.1001L74.6002 63.8701L79.5702 65.7201L82.0702 65.4901" stroke="#1B8488" stroke-width="0.5433" stroke-miterlimit="10"/>
<path d="M70.75 67.4401L75.23 69.5901L80.09 70.8401L79.54 65.6701L78.36 61.0601L74.58 63.8201L70.75 67.4401Z" stroke="#1B8488" stroke-width="0.5433" stroke-miterlimit="10"/>
<path d="M74.4902 71.9L75.3402 69.51L79.5702 65.8" stroke="#1B8488" stroke-width="0.5433" stroke-miterlimit="10"/>
<path d="M75.3798 69.4L74.5098 63.74" stroke="#1B8488" stroke-width="0.5433" stroke-miterlimit="10"/>
<path d="M90.3101 70.5302L84.9001 71.4802L81.3701 67.2701L83.2601 62.1102L88.6701 61.1602L92.2001 65.3801L90.3101 70.5302Z" stroke="#1B8488" stroke-width="0.5433" stroke-miterlimit="10"/>
<path d="M84.92 71.8401L81.23 67.4501L83.19 62.0601L88.84 61.0601L92.53 65.4601L90.57 70.8501L84.92 71.8401Z" stroke="#1B8488" stroke-width="0.5433" stroke-miterlimit="10"/>
<path d="M88.84 61.0601L83.19 62.0601L81.23 67.4501L84.92 71.8401L90.57 70.8501L92.53 65.4601L88.84 61.0601Z" stroke="#1B8488" stroke-width="0.5433" stroke-miterlimit="10"/>
<path d="M83.2002 62.1001L85.0602 63.8701L90.0302 65.7201L92.5402 65.4901" stroke="#1B8488" stroke-width="0.5433" stroke-miterlimit="10"/>
<path d="M81.21 67.4401L85.69 69.5901L90.55 70.8401L90.01 65.6701L88.83 61.0601L85.04 63.8201L81.21 67.4401Z" stroke="#1B8488" stroke-width="0.5433" stroke-miterlimit="10"/>
<path d="M84.9502 71.9L85.8002 69.51L90.0402 65.8" stroke="#1B8488" stroke-width="0.5433" stroke-miterlimit="10"/>
<path d="M85.84 69.4L84.98 63.74" stroke="#1B8488" stroke-width="0.5433" stroke-miterlimit="10"/>
<path d="M49.0001 95.4001C74.6261 95.4001 95.4001 74.6261 95.4001 49.0001C95.4001 23.3741 74.6261 2.6001 49.0001 2.6001C23.3741 2.6001 2.6001 23.3741 2.6001 49.0001C2.6001 74.6261 23.3741 95.4001 49.0001 95.4001Z" stroke="#1B8488" stroke-width="3.8028" stroke-miterlimit="10"/>
</svg>
