<svg width="96" height="96" viewBox="0 0 96 96" fill="none" xmlns="http://www.w3.org/2000/svg">
<path d="M48.0001 93.57C73.2229 93.57 93.6701 73.1228 93.6701 47.9C93.6701 22.6771 73.2229 2.22998 48.0001 2.22998C22.7772 2.22998 2.33008 22.6771 2.33008 47.9C2.33008 73.1228 22.7772 93.57 48.0001 93.57Z" stroke="#6C2B7D" stroke-width="3.7435" stroke-miterlimit="10"/>
<path d="M9.20698 61.5854H11.343L10.2202 58.8175L9.20698 61.5854ZM9.47333 58.8175H8.71083C8.49845 58.8175 8.34874 58.7896 8.26169 58.7339C8.17813 58.6747 8.13635 58.5773 8.13635 58.4415C8.13635 58.2987 8.17291 58.2012 8.24602 58.149C8.32262 58.0933 8.52804 58.0654 8.86229 58.0654H10.3507C10.5422 58.0654 10.671 58.0916 10.7372 58.1438C10.8068 58.1925 10.8695 58.2848 10.9252 58.4206L12.9672 63.523H13.056C13.244 63.523 13.3728 63.5491 13.4425 63.6014C13.5121 63.6536 13.5469 63.7476 13.5469 63.8834C13.5469 64.0261 13.5138 64.1254 13.4477 64.1811C13.3815 64.2333 13.2579 64.2594 13.0769 64.2594H11.6564C11.3917 64.2594 11.2211 64.2333 11.1445 64.1811C11.0714 64.1254 11.0349 64.0261 11.0349 63.8834C11.0349 63.7511 11.0749 63.6588 11.155 63.6066C11.2386 63.5509 11.3935 63.523 11.6198 63.523H12.1055L11.5989 62.28H8.94585L8.49671 63.523H9.0033C9.23309 63.523 9.38977 63.5509 9.47333 63.6066C9.55689 63.6588 9.59867 63.7511 9.59867 63.8834C9.59867 64.0261 9.56037 64.1254 9.48377 64.1811C9.41066 64.2333 9.24702 64.2594 8.99285 64.2594H7.61932C7.39649 64.2594 7.24852 64.2333 7.1754 64.1811C7.10228 64.1254 7.06573 64.0261 7.06573 63.8834C7.06573 63.7476 7.10228 63.6536 7.1754 63.6014C7.24852 63.5491 7.38953 63.523 7.59843 63.523H7.69766L9.47333 58.8175ZM14.7533 60.1754C14.7464 60.4365 14.715 60.6036 14.6593 60.6767C14.6071 60.7464 14.5027 60.7812 14.346 60.7812C14.2241 60.7812 14.1318 60.7498 14.0692 60.6872C14.01 60.621 13.9804 60.5253 13.9804 60.3999C13.9804 60.3999 13.9821 60.3738 13.9856 60.3216C13.9891 60.2659 13.9908 60.2102 13.9908 60.1545L14.0431 58.431C14.05 58.3022 14.0848 58.2099 14.1475 58.1542C14.2102 58.095 14.3077 58.0654 14.44 58.0654H18.9784C19.1107 58.0654 19.2082 58.095 19.2708 58.1542C19.3335 58.2099 19.3666 58.3022 19.3701 58.431L19.4275 60.1545C19.4275 60.2171 19.4293 60.2763 19.4327 60.332C19.4362 60.3877 19.438 60.4139 19.438 60.4104C19.438 60.5357 19.4049 60.6297 19.3387 60.6924C19.2726 60.7516 19.1734 60.7812 19.0411 60.7812C18.9018 60.7812 18.806 60.7464 18.7538 60.6767C18.7016 60.6036 18.672 60.4365 18.665 60.1754L18.6128 58.8175H17.1139V63.523H17.9182H18.1219C18.2681 63.523 18.3743 63.5526 18.4405 63.6118C18.5066 63.6675 18.5397 63.758 18.5397 63.8834C18.5397 64.0052 18.5084 64.0992 18.4457 64.1654C18.383 64.2281 18.2925 64.2594 18.1741 64.2594H15.2443C15.1259 64.2594 15.0354 64.2281 14.9727 64.1654C14.91 64.0992 14.8787 64.0052 14.8787 63.8834C14.8787 63.7546 14.9118 63.6623 14.9779 63.6066C15.0475 63.5509 15.1642 63.523 15.3278 63.523H15.5002H16.3044V58.8175H14.8056L14.7533 60.1754ZM24.7911 63.3611V62.1182H23.4959C23.3914 62.1182 23.3131 62.0903 23.2609 62.0346C23.2121 61.9789 23.1878 61.8936 23.1878 61.7787C23.1878 61.6464 23.2104 61.5559 23.2557 61.5071C23.3009 61.4584 23.388 61.434 23.5168 61.434H25.7729C25.8635 61.434 25.9296 61.4636 25.9714 61.5228C26.0167 61.5785 26.0393 61.6638 26.0393 61.7787C26.0393 61.9075 26.0097 61.9963 25.9505 62.045C25.8948 62.0938 25.7938 62.1182 25.6476 62.1182H25.5797V63.5648V63.6901C25.5797 63.7841 25.5693 63.8503 25.5484 63.8886C25.5275 63.9234 25.4857 63.9582 25.423 63.993C25.2246 64.1114 24.9356 64.2124 24.5561 64.296C24.1766 64.3795 23.7918 64.4213 23.4019 64.4213C22.4688 64.4213 21.715 64.1236 21.1405 63.5282C20.566 62.9329 20.2788 62.1564 20.2788 61.199C20.2788 60.2415 20.5591 59.4512 21.1196 58.8279C21.6837 58.2047 22.4009 57.8931 23.2713 57.8931C23.5081 57.8931 23.7448 57.921 23.9816 57.9767C24.2218 58.0289 24.4708 58.109 24.7284 58.2169C24.7632 58.1264 24.8102 58.062 24.8694 58.0237C24.9321 57.9819 25.0122 57.961 25.1097 57.961C25.2733 57.961 25.3812 58.0097 25.4335 58.1072C25.4892 58.2047 25.517 58.4293 25.517 58.7809V59.4912C25.517 59.6618 25.4874 59.7819 25.4282 59.8516C25.3691 59.9177 25.2663 59.9508 25.1201 59.9508C24.9391 59.9508 24.8085 59.8394 24.7284 59.6165C24.7006 59.5504 24.6779 59.4999 24.6605 59.4651C24.5317 59.19 24.3472 58.9777 24.1069 58.8279C23.8667 58.6782 23.5916 58.6034 23.2818 58.6034C22.6585 58.6034 22.1607 58.8297 21.7881 59.2823C21.4156 59.7314 21.2293 60.339 21.2293 61.105C21.2293 61.8953 21.4347 62.5238 21.8456 62.9903C22.2564 63.4569 22.803 63.6901 23.4855 63.6901C23.6839 63.6901 23.8876 63.664 24.0965 63.6118C24.3089 63.5596 24.5404 63.476 24.7911 63.3611ZM31.2044 58.2378C31.2392 58.1438 31.288 58.0776 31.3506 58.0393C31.4133 58.001 31.5038 57.9819 31.6222 57.9819C31.751 57.9819 31.8415 58.0132 31.8938 58.0759C31.946 58.1386 31.9721 58.2674 31.9721 58.4624C31.9721 58.8036 31.9756 59.1221 31.9826 59.4181C31.9895 59.7106 31.993 59.8376 31.993 59.7993C31.993 59.963 31.9651 60.0744 31.9094 60.1336C31.8537 60.1893 31.7545 60.2171 31.6118 60.2171C31.382 60.2171 31.2322 60.0535 31.1626 59.7262C31.1382 59.6287 31.1191 59.5539 31.1052 59.5016C31.039 59.2405 30.8806 59.0281 30.6299 58.8645C30.3792 58.6974 30.085 58.6138 29.7473 58.6138C29.131 58.6138 28.6366 58.8401 28.2641 59.2927C27.8915 59.7419 27.7053 60.346 27.7053 61.105C27.7053 61.864 27.8933 62.4698 28.2693 62.9224C28.6488 63.3716 29.1484 63.5961 29.7682 63.5961C29.9701 63.5961 30.1755 63.5683 30.3844 63.5126C30.5934 63.4534 30.7988 63.3663 31.0007 63.2514C31.0947 63.2027 31.2235 63.1209 31.3872 63.006C31.5508 62.8876 31.6675 62.8284 31.7371 62.8284C31.845 62.8284 31.9355 62.865 32.0087 62.9381C32.0853 63.0077 32.1236 63.0948 32.1236 63.1992C32.1236 63.3037 32.0818 63.4046 31.9982 63.5021C31.9181 63.5961 31.7667 63.7128 31.5439 63.852C31.2514 64.0435 30.9572 64.1845 30.6612 64.2751C30.3653 64.3656 30.0537 64.4109 29.7264 64.4109C28.8664 64.4109 28.1562 64.1079 27.5956 63.5021C27.035 62.8928 26.7548 62.1147 26.7548 61.1676C26.7548 60.2311 27.0385 59.4529 27.606 58.8332C28.1736 58.2134 28.8873 57.9035 29.7473 57.9035C29.9771 57.9035 30.2104 57.9314 30.4471 57.9871C30.6874 58.0428 30.9398 58.1264 31.2044 58.2378ZM37.6281 58.2378C37.663 58.1438 37.7117 58.0776 37.7744 58.0393C37.837 58.001 37.9276 57.9819 38.0459 57.9819C38.1748 57.9819 38.2653 58.0132 38.3175 58.0759C38.3697 58.1386 38.3959 58.2674 38.3959 58.4624C38.3959 58.8036 38.3993 59.1221 38.4063 59.4181C38.4133 59.7106 38.4167 59.8376 38.4167 59.7993C38.4167 59.963 38.3889 60.0744 38.3332 60.1336C38.2775 60.1893 38.1782 60.2171 38.0355 60.2171C37.8057 60.2171 37.656 60.0535 37.5864 59.7262C37.562 59.6287 37.5428 59.5539 37.5289 59.5016C37.4628 59.2405 37.3043 59.0281 37.0537 58.8645C36.803 58.6974 36.5088 58.6138 36.171 58.6138C35.5548 58.6138 35.0604 58.8401 34.6878 59.2927C34.3153 59.7419 34.129 60.346 34.129 61.105C34.129 61.864 34.317 62.4698 34.6931 62.9224C35.0726 63.3716 35.5722 63.5961 36.1919 63.5961C36.3939 63.5961 36.5993 63.5683 36.8082 63.5126C37.0171 63.4534 37.2225 63.3663 37.4245 63.2514C37.5185 63.2027 37.6473 63.1209 37.8109 63.006C37.9746 62.8876 38.0912 62.8284 38.1608 62.8284C38.2688 62.8284 38.3593 62.865 38.4324 62.9381C38.509 63.0077 38.5473 63.0948 38.5473 63.1992C38.5473 63.3037 38.5055 63.4046 38.422 63.5021C38.3419 63.5961 38.1904 63.7128 37.9676 63.852C37.6751 64.0435 37.3809 64.1845 37.085 64.2751C36.789 64.3656 36.4774 64.4109 36.1502 64.4109C35.2902 64.4109 34.5799 64.1079 34.0194 63.5021C33.4588 62.8928 33.1785 62.1147 33.1785 61.1676C33.1785 60.2311 33.4623 59.4529 34.0298 58.8332C34.5973 58.2134 35.3111 57.9035 36.171 57.9035C36.4008 57.9035 36.6341 57.9314 36.8709 57.9871C37.1111 58.0428 37.3635 58.1264 37.6281 58.2378ZM41.3257 61.5854H43.4617L42.3389 58.8175L41.3257 61.5854ZM41.5921 58.8175H40.8296C40.6172 58.8175 40.4675 58.7896 40.3804 58.7339C40.2969 58.6747 40.2551 58.5773 40.2551 58.4415C40.2551 58.2987 40.2916 58.2012 40.3648 58.149C40.4414 58.0933 40.6468 58.0654 40.981 58.0654H42.4695C42.6609 58.0654 42.7898 58.0916 42.8559 58.1438C42.9256 58.1925 42.9882 58.2848 43.0439 58.4206L45.086 63.523H45.1747C45.3627 63.523 45.4916 63.5491 45.5612 63.6014C45.6308 63.6536 45.6657 63.7476 45.6657 63.8834C45.6657 64.0261 45.6326 64.1254 45.5664 64.1811C45.5003 64.2333 45.3767 64.2594 45.1956 64.2594H43.7751C43.5105 64.2594 43.3399 64.2333 43.2633 64.1811C43.1902 64.1254 43.1536 64.0261 43.1536 63.8834C43.1536 63.7511 43.1936 63.6588 43.2737 63.6066C43.3573 63.5509 43.5122 63.523 43.7385 63.523H44.2242L43.7176 62.28H41.0646L40.6154 63.523H41.122C41.3518 63.523 41.5085 63.5509 41.5921 63.6066C41.6756 63.6588 41.7174 63.7511 41.7174 63.8834C41.7174 64.0261 41.6791 64.1254 41.6025 64.1811C41.5294 64.2333 41.3658 64.2594 41.1116 64.2594H39.7381C39.5152 64.2594 39.3673 64.2333 39.2941 64.1811C39.221 64.1254 39.1845 64.0261 39.1845 63.8834C39.1845 63.7476 39.221 63.6536 39.2941 63.6014C39.3673 63.5491 39.5083 63.523 39.7172 63.523H39.8164L41.5921 58.8175ZM50.4756 58.2378C50.5104 58.1438 50.5592 58.0776 50.6219 58.0393C50.6845 58.001 50.7751 57.9819 50.8934 57.9819C51.0223 57.9819 51.1128 58.0132 51.165 58.0759C51.2172 58.1386 51.2433 58.2674 51.2433 58.4624C51.2433 58.8036 51.2468 59.1221 51.2538 59.4181C51.2608 59.7106 51.2642 59.8376 51.2642 59.7993C51.2642 59.963 51.2364 60.0744 51.1807 60.1336C51.125 60.1893 51.0257 60.2171 50.883 60.2171C50.6532 60.2171 50.5035 60.0535 50.4339 59.7262C50.4095 59.6287 50.3903 59.5539 50.3764 59.5016C50.3103 59.2405 50.1518 59.0281 49.9012 58.8645C49.6505 58.6974 49.3563 58.6138 49.0185 58.6138C48.4023 58.6138 47.9079 58.8401 47.5353 59.2927C47.1628 59.7419 46.9765 60.346 46.9765 61.105C46.9765 61.864 47.1645 62.4698 47.5406 62.9224C47.9201 63.3716 48.4197 63.5961 49.0394 63.5961C49.2414 63.5961 49.4468 63.5683 49.6557 63.5126C49.8646 63.4534 50.07 63.3663 50.272 63.2514C50.366 63.2027 50.4948 63.1209 50.6584 63.006C50.8221 62.8876 50.9387 62.8284 51.0083 62.8284C51.1163 62.8284 51.2068 62.865 51.2799 62.9381C51.3565 63.0077 51.3948 63.0948 51.3948 63.1992C51.3948 63.3037 51.353 63.4046 51.2695 63.5021C51.1894 63.5961 51.0379 63.7128 50.8151 63.852C50.5226 64.0435 50.2284 64.1845 49.9325 64.2751C49.6365 64.3656 49.3249 64.4109 48.9976 64.4109C48.1377 64.4109 47.4274 64.1079 46.8668 63.5021C46.3063 62.8928 46.026 62.1147 46.026 61.1676C46.026 60.2311 46.3098 59.4529 46.8773 58.8332C47.4448 58.2134 48.1586 57.9035 49.0185 57.9035C49.2483 57.9035 49.4816 57.9314 49.7184 57.9871C49.9586 58.0428 50.211 58.1264 50.4756 58.2378Z" fill="#1B8488"/>
<path d="M8.25537 69.2427C8.2484 69.5039 8.21707 69.671 8.16136 69.7441C8.10914 69.8137 8.00468 69.8486 7.84801 69.8486C7.72615 69.8486 7.63388 69.8172 7.57121 69.7546C7.51202 69.6884 7.48243 69.5927 7.48243 69.4673C7.48243 69.4673 7.48417 69.4412 7.48765 69.389C7.49113 69.3333 7.49287 69.2776 7.49287 69.2219L7.5451 67.4984C7.55206 67.3696 7.58688 67.2773 7.64955 67.2216C7.71222 67.1624 7.80971 67.1328 7.94201 67.1328H12.4804C12.6127 67.1328 12.7102 67.1624 12.7729 67.2216C12.8356 67.2773 12.8686 67.3696 12.8721 67.4984L12.9296 69.2219C12.9296 69.2845 12.9313 69.3437 12.9348 69.3994C12.9383 69.4551 12.94 69.4812 12.94 69.4778C12.94 69.6031 12.9069 69.6971 12.8408 69.7598C12.7746 69.819 12.6754 69.8486 12.5431 69.8486C12.4038 69.8486 12.3081 69.8137 12.2558 69.7441C12.2036 69.671 12.174 69.5039 12.1671 69.2427L12.1148 67.8849H10.616V72.5904H11.4202H11.6239C11.7701 72.5904 11.8763 72.62 11.9425 72.6792C12.0086 72.7349 12.0417 72.8254 12.0417 72.9508C12.0417 73.0726 12.0104 73.1666 11.9477 73.2328C11.885 73.2954 11.7945 73.3268 11.6761 73.3268H8.74629C8.62791 73.3268 8.53739 73.2954 8.47471 73.2328C8.41204 73.1666 8.38071 73.0726 8.38071 72.9508C8.38071 72.8219 8.41378 72.7297 8.47994 72.674C8.54957 72.6183 8.66621 72.5904 8.82985 72.5904H9.00219H9.80647V67.8849H8.30759L8.25537 69.2427ZM15.5565 70.6528H17.6925L16.5697 67.8849L15.5565 70.6528ZM15.8229 67.8849H15.0604C14.848 67.8849 14.6983 67.857 14.6112 67.8013C14.5277 67.7421 14.4859 67.6446 14.4859 67.5089C14.4859 67.3661 14.5224 67.2686 14.5956 67.2164C14.6722 67.1607 14.8776 67.1328 15.2118 67.1328H16.7002C16.8917 67.1328 17.0206 67.1589 17.0867 67.2112C17.1563 67.2599 17.219 67.3522 17.2747 67.488L19.3167 72.5904H19.4055C19.5935 72.5904 19.7224 72.6165 19.792 72.6687C19.8616 72.721 19.8965 72.815 19.8965 72.9508C19.8965 73.0935 19.8634 73.1927 19.7972 73.2484C19.7311 73.3007 19.6075 73.3268 19.4264 73.3268H18.0059C17.7413 73.3268 17.5707 73.3007 17.4941 73.2484C17.421 73.1927 17.3844 73.0935 17.3844 72.9508C17.3844 72.8185 17.4244 72.7262 17.5045 72.674C17.5881 72.6183 17.743 72.5904 17.9693 72.5904H18.455L17.9484 71.3474H15.2954L14.8462 72.5904H15.3528C15.5826 72.5904 15.7393 72.6183 15.8229 72.674C15.9064 72.7262 15.9482 72.8185 15.9482 72.9508C15.9482 73.0935 15.9099 73.1927 15.8333 73.2484C15.7602 73.3007 15.5965 73.3268 15.3424 73.3268H13.9688C13.746 73.3268 13.598 73.3007 13.5249 73.2484C13.4518 73.1927 13.4153 73.0935 13.4153 72.9508C13.4153 72.815 13.4518 72.721 13.5249 72.6687C13.598 72.6165 13.7391 72.5904 13.948 72.5904H14.0472L15.8229 67.8849ZM24.7064 67.3052C24.7412 67.2112 24.79 67.145 24.8527 67.1067C24.9153 67.0684 25.0059 67.0493 25.1242 67.0493C25.2531 67.0493 25.3436 67.0806 25.3958 67.1433C25.448 67.2059 25.4741 67.3348 25.4741 67.5297C25.4741 67.8709 25.4776 68.1895 25.4846 68.4855C25.4916 68.7779 25.495 68.905 25.495 68.8667C25.495 69.0304 25.4672 69.1418 25.4115 69.201C25.3558 69.2567 25.2565 69.2845 25.1138 69.2845C24.884 69.2845 24.7343 69.1209 24.6646 68.7936C24.6403 68.6961 24.6211 68.6213 24.6072 68.569C24.541 68.3079 24.3826 68.0955 24.1319 67.9319C23.8813 67.7648 23.5871 67.6812 23.2493 67.6812C22.6331 67.6812 22.1387 67.9075 21.7661 68.3601C21.3936 68.8093 21.2073 69.4133 21.2073 70.1724C21.2073 70.9314 21.3953 71.5372 21.7713 71.9898C22.1509 72.4389 22.6505 72.6635 23.2702 72.6635C23.4722 72.6635 23.6776 72.6357 23.8865 72.58C24.0954 72.5208 24.3008 72.4337 24.5027 72.3188C24.5968 72.2701 24.7256 72.1883 24.8892 72.0734C25.0529 71.955 25.1695 71.8958 25.2391 71.8958C25.3471 71.8958 25.4376 71.9324 25.5107 72.0055C25.5873 72.0751 25.6256 72.1622 25.6256 72.2666C25.6256 72.3711 25.5838 72.472 25.5003 72.5695C25.4202 72.6635 25.2687 72.7802 25.0459 72.9194C24.7534 73.1109 24.4592 73.2519 24.1633 73.3424C23.8673 73.433 23.5557 73.4782 23.2284 73.4782C22.3685 73.4782 21.6582 73.1753 21.0976 72.5695C20.5371 71.9602 20.2568 71.1821 20.2568 70.235C20.2568 69.2984 20.5406 68.5203 21.1081 67.9005C21.6756 67.2808 22.3894 66.9709 23.2493 66.9709C23.4791 66.9709 23.7124 66.9988 23.9492 67.0545C24.1894 67.1102 24.4418 67.1938 24.7064 67.3052ZM31.1406 72.4285V71.1855H29.8454C29.741 71.1855 29.6626 71.1577 29.6104 71.102C29.5617 71.0463 29.5373 70.961 29.5373 70.8461C29.5373 70.7138 29.5599 70.6232 29.6052 70.5745C29.6504 70.5258 29.7375 70.5014 29.8663 70.5014H32.1225C32.213 70.5014 32.2791 70.531 32.3209 70.5902C32.3662 70.6459 32.3888 70.7312 32.3888 70.8461C32.3888 70.9749 32.3592 71.0637 32.3 71.1124C32.2443 71.1612 32.1433 71.1855 31.9971 71.1855H31.9292V72.6322V72.7575C31.9292 72.8515 31.9188 72.9177 31.8979 72.956C31.877 72.9908 31.8352 73.0256 31.7725 73.0604C31.5741 73.1788 31.2851 73.2798 30.9056 73.3633C30.5261 73.4469 30.1414 73.4887 29.7514 73.4887C28.8183 73.4887 28.0645 73.191 27.49 72.5956C26.9156 72.0003 26.6283 71.2238 26.6283 70.2664C26.6283 69.3089 26.9086 68.5185 27.4692 67.8953C28.0332 67.2721 28.7504 66.9605 29.6209 66.9605C29.8576 66.9605 30.0944 66.9883 30.3311 67.044C30.5714 67.0963 30.8203 67.1763 31.0779 67.2843C31.1128 67.1938 31.1598 67.1293 31.219 67.091C31.2816 67.0493 31.3617 67.0284 31.4592 67.0284C31.6228 67.0284 31.7308 67.0771 31.783 67.1746C31.8387 67.2721 31.8666 67.4967 31.8666 67.8483V68.5586C31.8666 68.7292 31.837 68.8493 31.7778 68.9189C31.7186 68.9851 31.6159 69.0182 31.4696 69.0182C31.2886 69.0182 31.158 68.9068 31.0779 68.6839C31.0501 68.6178 31.0275 68.5673 31.0101 68.5325C30.8812 68.2574 30.6967 68.045 30.4565 67.8953C30.2162 67.7456 29.9412 67.6708 29.6313 67.6708C29.0081 67.6708 28.5102 67.8971 28.1376 68.3497C27.7651 68.7988 27.5788 69.4064 27.5788 70.1724C27.5788 70.9627 27.7843 71.5912 28.1951 72.0577C28.6059 72.5242 29.1526 72.7575 29.835 72.7575C30.0334 72.7575 30.2371 72.7314 30.446 72.6792C30.6584 72.627 30.8899 72.5434 31.1406 72.4285ZM37.5644 72.4285V71.1855H36.2692C36.1647 71.1855 36.0864 71.1577 36.0342 71.102C35.9854 71.0463 35.961 70.961 35.961 70.8461C35.961 70.7138 35.9837 70.6232 36.0289 70.5745C36.0742 70.5258 36.1612 70.5014 36.2901 70.5014H38.5462C38.6367 70.5014 38.7029 70.531 38.7447 70.5902C38.7899 70.6459 38.8126 70.7312 38.8126 70.8461C38.8126 70.9749 38.783 71.0637 38.7238 71.1124C38.6681 71.1612 38.5671 71.1855 38.4209 71.1855H38.353V72.6322V72.7575C38.353 72.8515 38.3425 72.9177 38.3216 72.956C38.3007 72.9908 38.259 73.0256 38.1963 73.0604C37.9978 73.1788 37.7089 73.2798 37.3294 73.3633C36.9498 73.4469 36.5651 73.4887 36.1752 73.4887C35.2421 73.4887 34.4883 73.191 33.9138 72.5956C33.3393 72.0003 33.0521 71.2238 33.0521 70.2664C33.0521 69.3089 33.3324 68.5185 33.8929 67.8953C34.4569 67.2721 35.1742 66.9605 36.0446 66.9605C36.2814 66.9605 36.5181 66.9883 36.7549 67.044C36.9951 67.0963 37.244 67.1763 37.5017 67.2843C37.5365 67.1938 37.5835 67.1293 37.6427 67.091C37.7054 67.0493 37.7855 67.0284 37.8829 67.0284C38.0466 67.0284 38.1545 67.0771 38.2067 67.1746C38.2624 67.2721 38.2903 67.4967 38.2903 67.8483V68.5586C38.2903 68.7292 38.2607 68.8493 38.2015 68.9189C38.1423 68.9851 38.0396 69.0182 37.8934 69.0182C37.7123 69.0182 37.5818 68.9068 37.5017 68.6839C37.4738 68.6178 37.4512 68.5673 37.4338 68.5325C37.305 68.2574 37.1204 68.045 36.8802 67.8953C36.64 67.7456 36.3649 67.6708 36.055 67.6708C35.4318 67.6708 34.9339 67.8971 34.5614 68.3497C34.1889 68.7988 34.0026 69.4064 34.0026 70.1724C34.0026 70.9627 34.208 71.5912 34.6188 72.0577C35.0297 72.5242 35.5763 72.7575 36.2587 72.7575C36.4572 72.7575 36.6609 72.7314 36.8698 72.6792C37.0821 72.627 37.3137 72.5434 37.5644 72.4285ZM40.3741 69.2427C40.3671 69.5039 40.3358 69.671 40.2801 69.7441C40.2279 69.8137 40.1234 69.8486 39.9667 69.8486C39.8449 69.8486 39.7526 69.8172 39.6899 69.7546C39.6308 69.6884 39.6012 69.5927 39.6012 69.4673C39.6012 69.4673 39.6029 69.4412 39.6064 69.389C39.6099 69.3333 39.6116 69.2776 39.6116 69.2219L39.6638 67.4984C39.6708 67.3696 39.7056 67.2773 39.7683 67.2216C39.831 67.1624 39.9284 67.1328 40.0607 67.1328H44.5992C44.7315 67.1328 44.8289 67.1624 44.8916 67.2216C44.9543 67.2773 44.9874 67.3696 44.9908 67.4984L45.0483 69.2219C45.0483 69.2845 45.05 69.3437 45.0535 69.3994C45.057 69.4551 45.0587 69.4812 45.0587 69.4778C45.0587 69.6031 45.0257 69.6971 44.9595 69.7598C44.8934 69.819 44.7941 69.8486 44.6618 69.8486C44.5226 69.8486 44.4268 69.8137 44.3746 69.7441C44.3224 69.671 44.2928 69.5039 44.2858 69.2427L44.2336 67.8849H42.7347V72.5904H43.539H43.7427C43.8889 72.5904 43.9951 72.62 44.0612 72.6792C44.1274 72.7349 44.1605 72.8254 44.1605 72.9508C44.1605 73.0726 44.1291 73.1666 44.0665 73.2328C44.0038 73.2954 43.9133 73.3268 43.7949 73.3268H40.865C40.7466 73.3268 40.6561 73.2954 40.5935 73.2328C40.5308 73.1666 40.4994 73.0726 40.4994 72.9508C40.4994 72.8219 40.5325 72.7297 40.5987 72.674C40.6683 72.6183 40.7849 72.5904 40.9486 72.5904H41.1209H41.9252V67.8849H40.4263L40.3741 69.2427ZM50.4119 72.4285V71.1855H49.1167C49.0122 71.1855 48.9339 71.1577 48.8816 71.102C48.8329 71.0463 48.8085 70.961 48.8085 70.8461C48.8085 70.7138 48.8312 70.6232 48.8764 70.5745C48.9217 70.5258 49.0087 70.5014 49.1376 70.5014H51.3937C51.4842 70.5014 51.5504 70.531 51.5922 70.5902C51.6374 70.6459 51.66 70.7312 51.66 70.8461C51.66 70.9749 51.6305 71.0637 51.5713 71.1124C51.5156 71.1612 51.4146 71.1855 51.2684 71.1855H51.2005V72.6322V72.7575C51.2005 72.8515 51.19 72.9177 51.1691 72.956C51.1482 72.9908 51.1065 73.0256 51.0438 73.0604C50.8453 73.1788 50.5563 73.2798 50.1768 73.3633C49.7973 73.4469 49.4126 73.4887 49.0227 73.4887C48.0896 73.4887 47.3358 73.191 46.7613 72.5956C46.1868 72.0003 45.8996 71.2238 45.8996 70.2664C45.8996 69.3089 46.1798 68.5185 46.7404 67.8953C47.3044 67.2721 48.0217 66.9605 48.8921 66.9605C49.1288 66.9605 49.3656 66.9883 49.6024 67.044C49.8426 67.0963 50.0915 67.1763 50.3492 67.2843C50.384 67.1938 50.431 67.1293 50.4902 67.091C50.5529 67.0493 50.6329 67.0284 50.7304 67.0284C50.8941 67.0284 51.002 67.0771 51.0542 67.1746C51.1099 67.2721 51.1378 67.4967 51.1378 67.8483V68.5586C51.1378 68.7292 51.1082 68.8493 51.049 68.9189C50.9898 68.9851 50.8871 69.0182 50.7409 69.0182C50.5598 69.0182 50.4293 68.9068 50.3492 68.6839C50.3213 68.6178 50.2987 68.5673 50.2813 68.5325C50.1525 68.2574 49.9679 68.045 49.7277 67.8953C49.4875 67.7456 49.2124 67.6708 48.9025 67.6708C48.2793 67.6708 47.7814 67.8971 47.4089 68.3497C47.0363 68.7988 46.8501 69.4064 46.8501 70.1724C46.8501 70.9627 47.0555 71.5912 47.4663 72.0577C47.8772 72.5242 48.4238 72.7575 49.1062 72.7575C49.3047 72.7575 49.5084 72.7314 49.7173 72.6792C49.9296 72.627 50.1612 72.5434 50.4119 72.4285ZM54.099 70.6528H56.235L55.1122 67.8849L54.099 70.6528ZM54.3653 67.8849H53.6028C53.3905 67.8849 53.2407 67.857 53.1537 67.8013C53.0701 67.7421 53.0284 67.6446 53.0284 67.5089C53.0284 67.3661 53.0649 67.2686 53.138 67.2164C53.2146 67.1607 53.4201 67.1328 53.7543 67.1328H55.2427C55.4342 67.1328 55.563 67.1589 55.6292 67.2112C55.6988 67.2599 55.7615 67.3522 55.8172 67.488L57.8592 72.5904H57.948C58.136 72.5904 58.2648 72.6165 58.3345 72.6687C58.4041 72.721 58.4389 72.815 58.4389 72.9508C58.4389 73.0935 58.4059 73.1927 58.3397 73.2484C58.2736 73.3007 58.15 73.3268 57.9689 73.3268H56.5484C56.2838 73.3268 56.1132 73.3007 56.0366 73.2484C55.9634 73.1927 55.9269 73.0935 55.9269 72.9508C55.9269 72.8185 55.9669 72.7262 56.047 72.674C56.1306 72.6183 56.2855 72.5904 56.5118 72.5904H56.9975L56.4909 71.3474H53.8379L53.3887 72.5904H53.8953C54.1251 72.5904 54.2818 72.6183 54.3653 72.674C54.4489 72.7262 54.4907 72.8185 54.4907 72.9508C54.4907 73.0935 54.4524 73.1927 54.3758 73.2484C54.3027 73.3007 54.139 73.3268 53.8849 73.3268H52.5113C52.2885 73.3268 52.1405 73.3007 52.0674 73.2484C51.9943 73.1927 51.9577 73.0935 51.9577 72.9508C51.9577 72.815 51.9943 72.721 52.0674 72.6687C52.1405 72.6165 52.2815 72.5904 52.4904 72.5904H52.5897L54.3653 67.8849ZM59.6453 69.2427C59.6384 69.5039 59.607 69.671 59.5513 69.7441C59.4991 69.8137 59.3947 69.8486 59.238 69.8486C59.1161 69.8486 59.0239 69.8172 58.9612 69.7546C58.902 69.6884 58.8724 69.5927 58.8724 69.4673C58.8724 69.4673 58.8741 69.4412 58.8776 69.389C58.8811 69.3333 58.8829 69.2776 58.8829 69.2219L58.9351 67.4984C58.942 67.3696 58.9769 67.2773 59.0395 67.2216C59.1022 67.1624 59.1997 67.1328 59.332 67.1328H63.8704C64.0027 67.1328 64.1002 67.1624 64.1629 67.2216C64.2255 67.2773 64.2586 67.3696 64.2621 67.4984L64.3195 69.2219C64.3195 69.2845 64.3213 69.3437 64.3248 69.3994C64.3282 69.4551 64.33 69.4812 64.33 69.4778C64.33 69.6031 64.2969 69.6971 64.2308 69.7598C64.1646 69.819 64.0654 69.8486 63.9331 69.8486C63.7938 69.8486 63.698 69.8137 63.6458 69.7441C63.5936 69.671 63.564 69.5039 63.557 69.2427L63.5048 67.8849H62.0059V72.5904H62.8102H63.0139C63.1601 72.5904 63.2663 72.62 63.3325 72.6792C63.3986 72.7349 63.4317 72.8254 63.4317 72.9508C63.4317 73.0726 63.4004 73.1666 63.3377 73.2328C63.275 73.2954 63.1845 73.3268 63.0661 73.3268H60.1363C60.0179 73.3268 59.9274 73.2954 59.8647 73.2328C59.802 73.1666 59.7707 73.0726 59.7707 72.9508C59.7707 72.8219 59.8038 72.7297 59.8699 72.674C59.9395 72.6183 60.0562 72.5904 60.2198 72.5904H60.3922H61.1964V67.8849H59.6976L59.6453 69.2427ZM66.0691 69.2427C66.0621 69.5039 66.0308 69.671 65.9751 69.7441C65.9229 69.8137 65.8184 69.8486 65.6617 69.8486C65.5399 69.8486 65.4476 69.8172 65.3849 69.7546C65.3257 69.6884 65.2962 69.5927 65.2962 69.4673C65.2962 69.4673 65.2979 69.4412 65.3014 69.389C65.3049 69.3333 65.3066 69.2776 65.3066 69.2219L65.3588 67.4984C65.3658 67.3696 65.4006 67.2773 65.4633 67.2216C65.5259 67.1624 65.6234 67.1328 65.7557 67.1328H70.2941C70.4264 67.1328 70.5239 67.1624 70.5866 67.2216C70.6493 67.2773 70.6824 67.3696 70.6858 67.4984L70.7433 69.2219C70.7433 69.2845 70.745 69.3437 70.7485 69.3994C70.752 69.4551 70.7537 69.4812 70.7537 69.4778C70.7537 69.6031 70.7207 69.6971 70.6545 69.7598C70.5883 69.819 70.4891 69.8486 70.3568 69.8486C70.2175 69.8486 70.1218 69.8137 70.0696 69.7441C70.0173 69.671 69.9878 69.5039 69.9808 69.2427L69.9286 67.8849H68.4297V72.5904H69.234H69.4376C69.5839 72.5904 69.6901 72.62 69.7562 72.6792C69.8224 72.7349 69.8554 72.8254 69.8554 72.9508C69.8554 73.0726 69.8241 73.1666 69.7614 73.2328C69.6988 73.2954 69.6082 73.3268 69.4899 73.3268H66.56C66.4416 73.3268 66.3511 73.2954 66.2884 73.2328C66.2258 73.1666 66.1944 73.0726 66.1944 72.9508C66.1944 72.8219 66.2275 72.7297 66.2937 72.674C66.3633 72.6183 66.4799 72.5904 66.6436 72.5904H66.8159H67.6202V67.8849H66.1213L66.0691 69.2427ZM73.3702 70.6528H75.5063L74.3834 67.8849L73.3702 70.6528ZM73.6366 67.8849H72.8741C72.6617 67.8849 72.512 67.857 72.4249 67.8013C72.3414 67.7421 72.2996 67.6446 72.2996 67.5089C72.2996 67.3661 72.3362 67.2686 72.4093 67.2164C72.4859 67.1607 72.6913 67.1328 73.0255 67.1328H74.514C74.7055 67.1328 74.8343 67.1589 74.9004 67.2112C74.9701 67.2599 75.0327 67.3522 75.0885 67.488L77.1305 72.5904H77.2193C77.4073 72.5904 77.5361 72.6165 77.6057 72.6687C77.6754 72.721 77.7102 72.815 77.7102 72.9508C77.7102 73.0935 77.6771 73.1927 77.6109 73.2484C77.5448 73.3007 77.4212 73.3268 77.2401 73.3268H75.8196C75.555 73.3268 75.3844 73.3007 75.3078 73.2484C75.2347 73.1927 75.1981 73.0935 75.1981 72.9508C75.1981 72.8185 75.2382 72.7262 75.3182 72.674C75.4018 72.6183 75.5567 72.5904 75.7831 72.5904H76.2687L75.7622 71.3474H73.1091L72.66 72.5904H73.1665C73.3963 72.5904 73.553 72.6183 73.6366 72.674C73.7201 72.7262 73.7619 72.8185 73.7619 72.9508C73.7619 73.0935 73.7236 73.1927 73.647 73.2484C73.5739 73.3007 73.4103 73.3268 73.1561 73.3268H71.7826C71.5597 73.3268 71.4118 73.3007 71.3387 73.2484C71.2655 73.1927 71.229 73.0935 71.229 72.9508C71.229 72.815 71.2655 72.721 71.3387 72.6687C71.4118 72.6165 71.5528 72.5904 71.7617 72.5904H71.8609L73.6366 67.8849Z" fill="#1B8488"/>
<path d="M40.6323 29.0216L41.8281 27.2517L38.906 26.6326L40.6323 29.0216ZM38.4879 27.2514L38.0611 27.8832C37.9422 28.0592 37.8353 28.1676 37.7404 28.2086C37.6446 28.2447 37.5404 28.2247 37.4279 28.1487C37.3096 28.0688 37.2493 27.9839 37.247 27.8941C37.2437 27.7994 37.3356 27.6136 37.5227 27.3367L38.3559 26.1034C38.4631 25.9447 38.5569 25.8526 38.6372 25.827C38.7165 25.7966 38.8281 25.7963 38.9718 25.8262L44.3428 26.9905L44.3925 26.9169C44.4977 26.7611 44.5915 26.669 44.6737 26.6405C44.756 26.6121 44.8534 26.6359 44.9659 26.7119C45.0842 26.7918 45.1479 26.8747 45.157 26.9607C45.1632 27.0448 45.1157 27.1618 45.0143 27.3118L44.2191 28.4889C44.071 28.7082 43.9539 28.8349 43.8677 28.8691C43.7806 28.8985 43.6779 28.8733 43.5596 28.7934C43.45 28.7193 43.396 28.6345 43.3975 28.5389C43.3982 28.4385 43.4618 28.2945 43.5885 28.107L43.8604 27.7045L42.5469 27.4285L41.0617 29.6268L41.8402 30.6948L42.1238 30.275C42.2524 30.0846 42.3632 29.9704 42.4561 29.9323C42.5462 29.8923 42.646 29.9093 42.7557 29.9834C42.8739 30.0633 42.9347 30.1506 42.938 30.2452C42.9403 30.3351 42.8704 30.4853 42.7281 30.6959L41.9592 31.834C41.8345 32.0186 41.73 32.1266 41.6458 32.158C41.5587 32.1874 41.456 32.1621 41.3377 32.0822C41.2252 32.0062 41.1678 31.9233 41.1654 31.8334C41.1631 31.7436 41.2204 31.6122 41.3373 31.4391L41.3929 31.3568L38.4879 27.2514Z" fill="#1B8488"/>
<path d="M58.707 41.5673L60.8212 41.2631L59.3157 38.6833L58.707 41.5673ZM58.5765 38.7896L57.8217 38.8982C57.6115 38.9285 57.4594 38.9222 57.3653 38.8795C57.2742 38.8328 57.2189 38.7422 57.1996 38.6078C57.1793 38.4665 57.2016 38.3648 57.2665 38.3027C57.3344 38.2367 57.5337 38.1799 57.8646 38.1323L59.3378 37.9203C59.5274 37.893 59.6586 37.9005 59.7315 37.9428C59.8074 37.9812 59.8825 38.0636 59.957 38.19L62.7048 42.9496L62.7927 42.937C62.9788 42.9102 63.11 42.9177 63.1863 42.9595C63.2627 43.0013 63.3106 43.0894 63.3299 43.2238C63.3502 43.3651 63.3316 43.468 63.2741 43.5325C63.216 43.5937 63.0974 43.6371 62.9182 43.6629L61.5122 43.8652C61.2502 43.9028 61.0777 43.9013 60.9944 43.8605C60.9141 43.8158 60.8638 43.7228 60.8435 43.5815C60.8246 43.4505 60.8511 43.3535 60.9229 43.2904C60.9977 43.2234 61.1471 43.1737 61.3711 43.1415L61.8519 43.0723L61.1734 41.9142L58.5474 42.292L58.2799 43.5862L58.7813 43.5141C59.0087 43.4814 59.1678 43.4866 59.2584 43.5299C59.3486 43.5697 59.4031 43.655 59.4219 43.786C59.4422 43.9273 59.4185 44.031 59.3506 44.097C59.2856 44.1591 59.1274 44.2083 58.8758 44.2444L57.5163 44.44C57.2957 44.4718 57.1456 44.467 57.0657 44.4257C56.9854 44.381 56.9351 44.288 56.9148 44.1467C56.8955 44.0123 56.9183 43.914 56.9832 43.8519C57.0481 43.7898 57.184 43.7439 57.3908 43.7141L57.489 43.7L58.5765 38.7896Z" fill="#1B8488"/>
<path d="M63.9625 18.5543L65.0424 20.3973L66.8629 18.029L63.9625 18.5543ZM66.4853 17.3847L66.0998 16.7268C65.9924 16.5436 65.9408 16.4003 65.9448 16.297C65.9536 16.195 66.0166 16.1097 66.1338 16.041C66.257 15.9688 66.3596 15.9511 66.4416 15.9878C66.5284 16.0257 66.6563 16.1889 66.8253 16.4772L67.5778 17.7615C67.6746 17.9267 67.7172 18.051 67.7056 18.1345C67.6988 18.2192 67.6508 18.32 67.5619 18.4367L64.1919 22.7783L64.2368 22.8549C64.3319 23.0171 64.3745 23.1415 64.3646 23.228C64.3548 23.3145 64.2913 23.392 64.1741 23.4607C64.0509 23.5329 63.9486 23.5545 63.8671 23.5256C63.7886 23.4949 63.7036 23.4015 63.612 23.2453L62.8938 22.0196C62.76 21.7913 62.6963 21.6309 62.7026 21.5384C62.7137 21.4472 62.7808 21.3655 62.904 21.2933C63.0182 21.2264 63.118 21.2143 63.2036 21.257C63.2939 21.3009 63.3962 21.4205 63.5107 21.6158L63.7562 22.0348L64.5725 20.9693L63.2311 18.6802L61.9316 18.9212L62.1878 19.3582C62.3039 19.5565 62.3591 19.7058 62.3533 19.806C62.3505 19.9045 62.292 19.9872 62.1779 20.0541C62.0547 20.1263 61.9497 20.1434 61.8629 20.1055C61.7809 20.0688 61.6756 19.9408 61.5471 19.7216L60.8527 18.5365C60.74 18.3442 60.6877 18.2033 60.6958 18.1138C60.7069 18.0226 60.774 17.9409 60.8972 17.8687C61.0144 17.8001 61.114 17.7841 61.196 17.8207C61.278 17.8574 61.3718 17.9659 61.4775 18.1461L61.5276 18.2317L66.4853 17.3847Z" fill="#1B8488"/>
<path d="M66.8511 50.3121C66.8441 50.5732 66.8128 50.7403 66.7571 50.8134C66.7048 50.8831 66.6004 50.9179 66.4437 50.9179C66.3219 50.9179 66.2296 50.8866 66.1669 50.8239C66.1077 50.7577 66.0781 50.662 66.0781 50.5366C66.0781 50.5366 66.0799 50.5105 66.0834 50.4583C66.0868 50.4026 66.0886 50.3469 66.0886 50.2912L66.1408 48.5677C66.1478 48.4389 66.1826 48.3467 66.2453 48.2909C66.3079 48.2318 66.4054 48.2022 66.5377 48.2022H71.0761C71.2084 48.2022 71.3059 48.2318 71.3686 48.2909C71.4313 48.3467 71.4643 48.4389 71.4678 48.5677L71.5253 50.2912C71.5253 50.3539 71.527 50.413 71.5305 50.4688C71.534 50.5245 71.5357 50.5506 71.5357 50.5471C71.5357 50.6724 71.5026 50.7664 71.4365 50.8291C71.3703 50.8883 71.2711 50.9179 71.1388 50.9179C70.9995 50.9179 70.9038 50.8831 70.8516 50.8134C70.7993 50.7403 70.7697 50.5732 70.7628 50.3121L70.7105 48.9542H69.2117V53.6597H70.0159H70.2196C70.3659 53.6597 70.472 53.6893 70.5382 53.7485C70.6043 53.8042 70.6374 53.8948 70.6374 54.0201C70.6374 54.142 70.6061 54.236 70.5434 54.3021C70.4807 54.3648 70.3902 54.3961 70.2718 54.3961H67.342C67.2236 54.3961 67.1331 54.3648 67.0704 54.3021C67.0077 54.236 66.9764 54.142 66.9764 54.0201C66.9764 53.8913 67.0095 53.799 67.0756 53.7433C67.1453 53.6876 67.2619 53.6597 67.4256 53.6597H67.5979H68.4022V48.9542H66.9033L66.8511 50.3121Z" fill="#1B8488"/>
<path d="M59.53 55.8819C59.3781 56.0944 59.2586 56.2154 59.1715 56.2448C59.0892 56.2732 58.9832 56.2436 58.8534 56.1559C58.7524 56.0877 58.6935 56.0101 58.6766 55.923C58.6646 55.8351 58.6937 55.7392 58.7639 55.6353C58.7639 55.6353 58.7799 55.6147 58.8121 55.5733C58.8461 55.5291 58.8788 55.484 58.9099 55.4378L59.918 54.039C59.9959 53.9361 60.0764 53.8792 60.1595 53.8681C60.2446 53.8541 60.3419 53.8842 60.4515 53.9583L64.2121 56.4989C64.3217 56.5729 64.3859 56.652 64.4047 56.7361C64.4254 56.8174 64.4012 56.9123 64.332 57.021L63.4148 58.4812C63.3797 58.5332 63.348 58.5832 63.3197 58.6313C63.2914 58.6794 63.2782 58.702 63.2802 58.6991C63.21 58.803 63.13 58.8624 63.0401 58.8773C62.9521 58.8893 62.8533 58.8583 62.7437 58.7842C62.6283 58.7062 62.5685 58.6238 62.5642 58.5368C62.5618 58.447 62.6309 58.292 62.7713 58.0717L63.4881 56.9174L62.2462 56.0783L59.612 59.9773L60.2784 60.4275L60.4472 60.5415C60.5684 60.6234 60.6398 60.7074 60.6615 60.7934C60.6851 60.8766 60.6618 60.9702 60.5917 61.074C60.5235 61.175 60.4449 61.2353 60.3559 61.2551C60.2689 61.2719 60.1763 61.2472 60.0783 61.1809L57.6506 59.5408C57.5525 59.4745 57.495 59.3979 57.4782 59.3109C57.4633 59.221 57.4899 59.1255 57.5582 59.0246C57.6303 58.9178 57.7093 58.8599 57.7953 58.8508C57.8842 58.8436 57.9965 58.8858 58.132 58.9774L58.2748 59.0739L58.9413 59.5241L61.5754 55.6251L60.3335 54.7861L59.53 55.8819Z" fill="#1B8488"/>
<path d="M74.6789 23.0236C74.5369 23.2428 74.423 23.3691 74.3374 23.4025C74.2565 23.4347 74.1492 23.41 74.0155 23.3284C73.9115 23.2649 73.8491 23.1901 73.8282 23.1039C73.8122 23.0166 73.8368 22.9195 73.9022 22.8125C73.9022 22.8125 73.9172 22.7911 73.9474 22.7483C73.9794 22.7026 74.0099 22.656 74.039 22.6084L74.9816 21.1647C75.0547 21.0584 75.1325 20.9978 75.215 20.9829C75.2994 20.965 75.398 20.9905 75.5109 21.0595L79.3844 23.4245C79.4974 23.4934 79.5651 23.5695 79.5878 23.6526C79.6122 23.7328 79.5924 23.8288 79.5282 23.9406L78.6792 25.4415C78.6465 25.495 78.6172 25.5464 78.5911 25.5958C78.5651 25.6451 78.5529 25.6683 78.5547 25.6653C78.4894 25.7723 78.4122 25.8353 78.3231 25.8543C78.2358 25.8704 78.1357 25.8439 78.0228 25.775C77.9039 25.7024 77.8403 25.6228 77.832 25.5362C77.8256 25.4465 77.8874 25.2885 78.0175 25.062L78.6805 23.8758L77.4012 23.0948L74.9492 27.1109L75.6356 27.53L75.8095 27.6362C75.9343 27.7124 76.0095 27.793 76.0351 27.878C76.0625 27.96 76.0436 28.0545 75.9783 28.1615C75.9148 28.2655 75.8391 28.3294 75.7511 28.3532C75.6649 28.374 75.5714 28.3536 75.4703 28.2919L72.9697 26.7651C72.8686 26.7035 72.8077 26.6295 72.7869 26.5434C72.7679 26.4543 72.7901 26.3577 72.8536 26.2537C72.9207 26.1437 72.997 26.0822 73.0825 26.0692C73.171 26.0579 73.2851 26.0949 73.4247 26.1802L73.5718 26.27L74.2583 26.6891L76.7103 22.6729L75.431 21.8919L74.6789 23.0236Z" fill="#1B8488"/>
<path d="M62.0142 28.6069C61.9618 28.5215 61.9398 28.4423 61.9484 28.3694C61.9569 28.2964 61.9978 28.2134 62.0708 28.1203C62.1504 28.0189 62.2309 27.967 62.3124 27.9646C62.394 27.9622 62.5114 28.0212 62.6648 28.1416C62.9333 28.3522 63.186 28.5461 63.4231 28.7233C63.6575 28.8984 63.7596 28.9741 63.7295 28.9505C63.8583 29.0515 63.9287 29.1422 63.9409 29.2225C63.9503 29.3007 63.911 29.396 63.8229 29.5083C63.681 29.6891 63.4599 29.7058 63.1594 29.5586C63.0677 29.5176 62.997 29.4864 62.9473 29.4652C62.701 29.356 62.4361 29.3495 62.1526 29.4457C61.8664 29.5398 61.6191 29.7196 61.4106 29.9853C61.0302 30.4701 60.903 30.9988 61.0291 31.5713C61.1525 32.1416 61.5127 32.661 62.1099 33.1296C62.707 33.5981 63.2996 33.8242 63.8878 33.8078C64.4754 33.7865 64.9605 33.532 65.3431 33.0445C65.4677 32.8856 65.5726 32.7068 65.6578 32.5081C65.7402 32.3072 65.7985 32.0919 65.8328 31.8621C65.8524 31.758 65.8676 31.6062 65.8782 31.4065C65.8861 31.2047 65.9115 31.0764 65.9545 31.0216C66.0212 30.9367 66.1058 30.8881 66.2084 30.8757C66.3105 30.8584 66.4026 30.882 66.4848 30.9465C66.567 31.011 66.6206 31.1062 66.6457 31.2321C66.6703 31.3531 66.6685 31.5443 66.6405 31.8055C66.6106 32.1538 66.54 32.4723 66.4285 32.761C66.317 33.0497 66.1603 33.3228 65.9582 33.5803C65.4274 34.2568 64.7506 34.6286 63.928 34.6956C63.1026 34.7605 62.3174 34.5006 61.5724 33.916C60.8356 33.3379 60.3986 32.6343 60.2614 31.8053C60.1241 30.9762 60.321 30.2234 60.8518 29.5469C60.9937 29.3661 61.1596 29.1998 61.3496 29.0479C61.5417 28.8933 61.7632 28.7463 62.0142 28.6069Z" fill="#1B8488"/>
<path d="M52.7122 17.4178C52.7752 17.3397 52.8425 17.2926 52.9141 17.2762C52.9857 17.2599 53.0776 17.2706 53.1899 17.3083C53.312 17.3494 53.3878 17.4079 53.4173 17.484C53.4469 17.5601 53.4306 17.6905 53.3684 17.8753C53.2597 18.1988 53.1614 18.5019 53.0737 18.7846C52.9871 19.0641 52.9499 19.1856 52.9621 19.1493C52.9099 19.3045 52.848 19.4012 52.7764 19.4395C52.7058 19.4746 52.6029 19.4694 52.4675 19.4239C52.2497 19.3506 52.16 19.1478 52.1983 18.8154C52.2062 18.7152 52.2119 18.6381 52.2154 18.5842C52.2359 18.3156 52.1534 18.0638 51.9679 17.8287C51.7836 17.5904 51.5313 17.4174 51.2112 17.3098C50.627 17.1134 50.0862 17.1704 49.5888 17.4807C49.0925 17.7877 48.7234 18.301 48.4815 19.0205C48.2396 19.7399 48.2247 20.3741 48.4369 20.923C48.6535 21.4698 49.0556 21.8419 49.643 22.0394C49.8345 22.1037 50.0381 22.1428 50.2539 22.1566C50.4707 22.1671 50.6932 22.15 50.9213 22.1055C51.0259 22.0892 51.1741 22.0527 51.3658 21.996C51.5587 21.9359 51.6881 21.917 51.7541 21.9392C51.8564 21.9736 51.9306 22.0371 51.9766 22.1297C52.027 22.2201 52.0356 22.3148 52.0023 22.4138C51.969 22.5128 51.8972 22.5952 51.7869 22.661C51.6811 22.7246 51.5003 22.7869 51.2447 22.8479C50.9064 22.9362 50.5826 22.9761 50.2732 22.9676C49.9638 22.9591 49.654 22.9027 49.3438 22.7984C48.5286 22.5243 47.9518 22.0108 47.6135 21.2578C47.2764 20.5016 47.2587 19.6746 47.5605 18.7769C47.859 17.8891 48.376 17.2419 49.1115 16.8353C49.847 16.4287 50.6223 16.3624 51.4375 16.6365C51.6554 16.7098 51.8676 16.8105 52.0743 16.9388C52.2843 17.0681 52.4969 17.2278 52.7122 17.4178Z" fill="#1B8488"/>
<path d="M70.1357 43.2216L70.2886 41.988L69.0033 41.8287C68.8996 41.8159 68.8253 41.7786 68.7803 41.7169C68.7388 41.6556 68.7251 41.568 68.7392 41.454C68.7555 41.3227 68.7891 41.2356 68.84 41.1928C68.8909 41.15 68.9803 41.1365 69.1081 41.1524L71.3471 41.4299C71.437 41.441 71.499 41.4785 71.5332 41.5424C71.5712 41.6032 71.5832 41.6907 71.5691 41.8047C71.5532 41.9325 71.5129 42.017 71.4482 42.0581C71.3869 42.0996 71.2837 42.1114 71.1386 42.0934L71.0712 42.085L70.8933 43.5207L70.8779 43.6451C70.8663 43.7384 70.8478 43.8027 70.8224 43.8382C70.7973 43.8702 70.7516 43.8996 70.6851 43.9264C70.4736 44.0195 70.1744 44.0842 69.7875 44.1204C69.4006 44.1566 69.0137 44.1508 68.6267 44.1028C67.7007 43.9881 66.9892 43.5999 66.4923 42.9384C65.9955 42.2769 65.8059 41.471 65.9237 40.5209C66.0414 39.5707 66.4168 38.8208 67.0498 38.2713C67.6862 37.7221 68.4363 37.5011 69.3001 37.6082C69.535 37.6373 69.7666 37.6941 69.9947 37.7785C70.2267 37.8598 70.4639 37.9699 70.7063 38.1087C70.752 38.0232 70.8065 37.965 70.87 37.9343C70.9373 37.9006 71.0193 37.8897 71.1161 37.9017C71.2785 37.9218 71.3796 37.9834 71.4194 38.0866C71.4627 38.1902 71.4628 38.4165 71.4195 38.7655L71.3321 39.4704C71.3112 39.6397 71.267 39.7552 71.1997 39.8171C71.1328 39.8754 71.0268 39.8956 70.8817 39.8776C70.702 39.8554 70.5862 39.7287 70.5341 39.4977C70.5146 39.4287 70.4984 39.3758 70.4854 39.3391C70.3914 39.0503 70.2343 38.8168 70.0144 38.6387C69.7944 38.4606 69.5306 38.3524 69.2231 38.3143C68.6046 38.2377 68.0827 38.401 67.6573 38.8044C67.2323 39.2043 66.9727 39.7843 66.8785 40.5445C66.7813 41.3288 66.9079 41.9778 67.2582 42.4913C67.6085 43.0048 68.1223 43.3036 68.7995 43.3875C68.9965 43.4119 69.2018 43.411 69.4156 43.3849C69.6328 43.3592 69.8728 43.3048 70.1357 43.2216Z" fill="#1B8488"/>
<path d="M53.885 33.2527V32.0098H52.5898C52.4854 32.0098 52.407 31.9819 52.3548 31.9262C52.306 31.8705 52.2817 31.7852 52.2817 31.6703C52.2817 31.538 52.3043 31.4475 52.3496 31.3987C52.3948 31.35 52.4819 31.3256 52.6107 31.3256H54.8668C54.9574 31.3256 55.0235 31.3552 55.0653 31.4144C55.1106 31.4701 55.1332 31.5554 55.1332 31.6703C55.1332 31.7991 55.1036 31.8879 55.0444 31.9366C54.9887 31.9854 54.8877 32.0098 54.7415 32.0098H54.6736V33.4564V33.5817C54.6736 33.6757 54.6632 33.7419 54.6423 33.7802C54.6214 33.815 54.5796 33.8498 54.5169 33.8847C54.3185 34.003 54.0295 34.104 53.65 34.1876C53.2705 34.2711 52.8858 34.3129 52.4958 34.3129C51.5627 34.3129 50.8089 34.0152 50.2344 33.4198C49.66 32.8245 49.3727 32.0481 49.3727 31.0906C49.3727 30.1331 49.653 29.3428 50.2135 28.7195C50.7776 28.0963 51.4948 27.7847 52.3652 27.7847C52.602 27.7847 52.8388 27.8126 53.0755 27.8683C53.3157 27.9205 53.5647 28.0006 53.8223 28.1085C53.8571 28.018 53.9042 27.9536 53.9633 27.9153C54.026 27.8735 54.1061 27.8526 54.2036 27.8526C54.3672 27.8526 54.4752 27.9013 54.5274 27.9988C54.5831 28.0963 54.6109 28.3209 54.6109 28.6725V29.3828C54.6109 29.5534 54.5813 29.6735 54.5222 29.7432C54.463 29.8093 54.3603 29.8424 54.214 29.8424C54.033 29.8424 53.9024 29.731 53.8223 29.5081C53.7945 29.442 53.7718 29.3915 53.7544 29.3567C53.6256 29.0816 53.4411 28.8693 53.2008 28.7195C52.9606 28.5698 52.6856 28.495 52.3757 28.495C51.7525 28.495 51.2546 28.7213 50.882 29.1739C50.5095 29.623 50.3232 30.2306 50.3232 30.9966C50.3232 31.7869 50.5286 32.4154 50.9395 32.8819C51.3503 33.3485 51.8969 33.5817 52.5794 33.5817C52.7778 33.5817 52.9815 33.5556 53.1904 33.5034C53.4028 33.4512 53.6343 33.3676 53.885 33.2527Z" fill="#1B8488"/>
<path d="M85.3064 27.1603L85.5564 25.9427L84.2876 25.6822C84.1853 25.6612 84.1142 25.6181 84.0742 25.5531C84.0377 25.4887 84.0309 25.4002 84.054 25.2877C84.0806 25.1581 84.121 25.074 84.1752 25.0353C84.2293 24.9967 84.3195 24.9903 84.4457 25.0162L86.6558 25.4699C86.7445 25.4881 86.8033 25.5304 86.8323 25.5968C86.8655 25.6605 86.8705 25.7486 86.8474 25.8611C86.8215 25.9873 86.7746 26.0683 86.7068 26.1042C86.6425 26.1407 86.5387 26.1443 86.3954 26.1149L86.3289 26.1012L86.038 27.5184L86.0128 27.6412C85.9939 27.7333 85.9703 27.796 85.9422 27.8293C85.9147 27.8592 85.8668 27.8849 85.7984 27.9064C85.5802 27.9824 85.2768 28.0232 84.8882 28.0288C84.4996 28.0343 84.1144 27.9979 83.7324 27.9194C82.8183 27.7318 82.1398 27.2886 81.6967 26.5898C81.2537 25.8911 81.1284 25.0727 81.321 24.1348C81.5135 23.1969 81.947 22.479 82.6215 21.9812C83.2993 21.4841 84.0646 21.3231 84.9173 21.4982C85.1492 21.5458 85.3755 21.6207 85.5963 21.7229C85.8211 21.8223 86.0489 21.9508 86.2795 22.1084C86.3318 22.0267 86.3908 21.9731 86.4565 21.9474C86.5263 21.9191 86.609 21.9148 86.7045 21.9344C86.8648 21.9673 86.9607 22.0367 86.9923 22.1427C87.0272 22.2494 87.0093 22.475 86.9386 22.8195L86.7958 23.5153C86.7615 23.6824 86.7083 23.7941 86.6364 23.8504C86.5651 23.9033 86.4578 23.9151 86.3146 23.8857C86.1372 23.8493 86.0317 23.7139 85.9981 23.4795C85.9841 23.4091 85.9721 23.3551 85.962 23.3175C85.8911 23.0221 85.7531 22.7769 85.5478 22.582C85.3426 22.387 85.0882 22.2584 84.7847 22.196C84.1742 22.0707 83.6409 22.1923 83.185 22.5608C82.7297 22.9258 82.425 23.4835 82.271 24.2339C82.1121 25.0081 82.1869 25.665 82.4956 26.2047C82.8042 26.7443 83.2928 27.0828 83.9613 27.22C84.1557 27.2599 84.3604 27.2753 84.5756 27.2661C84.7941 27.2577 85.0378 27.2224 85.3064 27.1603Z" fill="#1B8488"/>
<path d="M28.1308 10.2407H30.2668L29.144 7.47277L28.1308 10.2407ZM28.3972 7.47277H27.6347C27.4223 7.47277 27.2726 7.44491 27.1855 7.38921C27.102 7.33002 27.0602 7.23253 27.0602 7.09674C27.0602 6.95399 27.0967 6.8565 27.1699 6.80428C27.2465 6.74857 27.4519 6.72072 27.7861 6.72072H29.2745C29.466 6.72072 29.5949 6.74683 29.661 6.79906C29.7306 6.8478 29.7933 6.94007 29.849 7.07585L31.891 12.1783H31.9798C32.1678 12.1783 32.2967 12.2044 32.3663 12.2566C32.4359 12.3089 32.4707 12.4029 32.4707 12.5386C32.4707 12.6814 32.4377 12.7806 32.3715 12.8363C32.3054 12.8886 32.1818 12.9147 32.0007 12.9147H30.5802C30.3156 12.9147 30.145 12.8886 30.0684 12.8363C29.9953 12.7806 29.9587 12.6814 29.9587 12.5386C29.9587 12.4063 29.9987 12.3141 30.0788 12.2619C30.1624 12.2061 30.3173 12.1783 30.5436 12.1783H31.0293L30.5227 10.9353H27.8697L27.4205 12.1783H27.9271C28.1569 12.1783 28.3136 12.2061 28.3972 12.2619C28.4807 12.3141 28.5225 12.4063 28.5225 12.5386C28.5225 12.6814 28.4842 12.7806 28.4076 12.8363C28.3345 12.8886 28.1708 12.9147 27.9167 12.9147H26.5431C26.3203 12.9147 26.1723 12.8886 26.0992 12.8363C26.0261 12.7806 25.9896 12.6814 25.9896 12.5386C25.9896 12.4029 26.0261 12.3089 26.0992 12.2566C26.1723 12.2044 26.3134 12.1783 26.5223 12.1783H26.6215L28.3972 7.47277Z" fill="#1B8488"/>
<path d="M75.3894 13.9418L77.4759 13.4843L75.7862 11.021L75.3894 13.9418ZM75.0567 11.181L74.3119 11.3443C74.1044 11.3898 73.9522 11.3947 73.8552 11.3589C73.7609 11.319 73.6992 11.2327 73.6702 11.1001C73.6396 10.9606 73.6544 10.8576 73.7146 10.7909C73.7775 10.7201 73.9722 10.6489 74.2987 10.5773L75.7526 10.2585C75.9397 10.2174 76.0711 10.2154 76.1469 10.2522C76.2254 10.2849 76.3063 10.3616 76.3898 10.4823L79.4775 15.029L79.5642 15.01C79.7478 14.9697 79.8793 14.9676 79.9585 15.0037C80.0377 15.0398 80.0918 15.1242 80.1209 15.2568C80.1515 15.3963 80.1404 15.5003 80.0877 15.5689C80.0343 15.6341 79.9192 15.686 79.7423 15.7248L78.3547 16.0291C78.0963 16.0858 77.924 16.0968 77.838 16.0622C77.7547 16.0235 77.6977 15.9344 77.6671 15.7949C77.6388 15.6657 77.6581 15.567 77.7252 15.4988C77.7949 15.4265 77.9402 15.3661 78.1613 15.3176L78.6357 15.2136L77.8746 14.108L75.2831 14.6763L75.1106 15.9866L75.6055 15.8781C75.8299 15.8289 75.9889 15.8225 76.0825 15.859C76.1753 15.8921 76.2359 15.9733 76.2642 16.1026C76.2948 16.242 76.2786 16.3471 76.2158 16.418C76.1555 16.4846 76.0013 16.5452 75.753 16.5996L74.4113 16.8938C74.1937 16.9416 74.0435 16.9478 73.9609 16.9124C73.8776 16.8737 73.8206 16.7846 73.79 16.6451C73.7609 16.5125 73.7765 16.4128 73.8367 16.3462C73.897 16.2795 74.0291 16.2238 74.2332 16.179L74.3301 16.1578L75.0567 11.181Z" fill="#1B8488"/>
<path d="M23.0272 20.0104L25.1196 20.4399L24.5763 17.5026L23.0272 20.0104ZM23.8447 17.3525L23.0978 17.1991C22.8897 17.1564 22.7487 17.099 22.6746 17.0269C22.6046 16.9521 22.5833 16.8482 22.6106 16.7152C22.6393 16.5754 22.6947 16.4872 22.7769 16.4508C22.8631 16.4116 23.0699 16.4256 23.3974 16.4929L24.8554 16.7922C25.043 16.8307 25.164 16.8822 25.2183 16.9466C25.2767 17.0084 25.3195 17.1114 25.3468 17.2556L26.321 22.6646L26.408 22.6825C26.5922 22.7203 26.7131 22.7718 26.7708 22.8369C26.8286 22.9021 26.8438 23.0012 26.8165 23.1342C26.7877 23.274 26.7354 23.3646 26.6594 23.4058C26.5841 23.4437 26.4577 23.4444 26.2804 23.408L24.8888 23.1223C24.6296 23.0691 24.4678 23.0092 24.4032 22.9427C24.3428 22.8734 24.3269 22.7689 24.3556 22.629C24.3823 22.4994 24.44 22.4171 24.529 22.382C24.622 22.3443 24.7794 22.3481 25.0011 22.3936L25.4769 22.4913L25.2306 21.1718L22.6317 20.6383L21.9417 21.7656L22.438 21.8675C22.6631 21.9137 22.811 21.9725 22.8816 22.0438C22.953 22.1118 22.9753 22.2106 22.9487 22.3402C22.92 22.48 22.8626 22.5695 22.7763 22.6087C22.6942 22.6452 22.5286 22.6378 22.2797 22.5867L20.9342 22.3105C20.7159 22.2657 20.5762 22.2104 20.515 22.1445C20.4546 22.0752 20.4388 21.9707 20.4675 21.8308C20.4948 21.6978 20.5495 21.6131 20.6316 21.5766C20.7137 21.5402 20.8571 21.5429 21.0618 21.5849L21.159 21.6049L23.8447 17.3525Z" fill="#1B8488"/>
<path d="M37.9223 16.4949C37.7138 16.6523 37.5636 16.732 37.4717 16.734C37.3847 16.7366 37.2924 16.6766 37.1947 16.5541C37.1187 16.4588 37.0857 16.3671 37.0956 16.2791C37.1105 16.1915 37.1669 16.1087 37.2649 16.0306C37.2649 16.0306 37.2864 16.0157 37.3294 15.9858C37.3751 15.9538 37.4198 15.9204 37.4633 15.8857L38.8435 14.8522C38.9485 14.7773 39.0424 14.747 39.125 14.7613C39.2103 14.7734 39.2943 14.8311 39.3767 14.9346L42.206 18.4832C42.2885 18.5867 42.3261 18.6813 42.3189 18.7672C42.3144 18.851 42.2629 18.9343 42.1643 19.0174L40.8526 20.1367C40.8036 20.1758 40.7584 20.214 40.717 20.2515C40.6756 20.2889 40.6563 20.3066 40.659 20.3044C40.561 20.3825 40.4669 20.4153 40.3766 20.4026C40.2891 20.3878 40.2041 20.3287 40.1216 20.2252C40.0348 20.1163 40.0023 20.0197 40.0242 19.9355C40.0488 19.8491 40.1611 19.7218 40.3609 19.5535L41.3901 18.6662L40.4557 17.4942L36.7764 20.4277L37.2778 21.0565L37.4047 21.2158C37.4959 21.3301 37.539 21.4316 37.5339 21.5202C37.5316 21.6067 37.4814 21.689 37.3834 21.7671C37.2882 21.8431 37.1951 21.8772 37.1043 21.8694C37.0163 21.8595 36.9353 21.8082 36.8615 21.7157L35.035 19.4248C34.9612 19.3323 34.9293 19.2419 34.9392 19.1539C34.9519 19.0636 35.0059 18.9805 35.1011 18.9045C35.2019 18.8242 35.2946 18.7926 35.3794 18.8096C35.4664 18.8293 35.5609 18.9031 35.6629 19.0311L35.7703 19.1658L36.2717 19.7947L39.951 16.8613L39.0166 15.6893L37.9223 16.4949Z" fill="#1B8488"/>
<path d="M68.2619 8.51804C68.3571 8.48665 68.4393 8.48353 68.5083 8.50866C68.5773 8.53378 68.6487 8.59263 68.7225 8.68519C68.8028 8.78591 68.8347 8.87623 68.8183 8.95614C68.8018 9.03604 68.7174 9.13677 68.5649 9.25832C68.2982 9.47103 68.0512 9.67235 67.8242 9.86229C67.5998 10.0501 67.5026 10.132 67.5326 10.1081C67.4046 10.2101 67.3001 10.2578 67.2191 10.2512C67.1408 10.2423 67.0572 10.1821 66.9682 10.0705C66.825 9.89081 66.8596 9.67174 67.0721 9.41326C67.1331 9.33343 67.1797 9.27179 67.2119 9.22834C67.3748 9.01383 67.4421 8.75756 67.4138 8.45954C67.3882 8.15934 67.2701 7.87721 67.0596 7.61314C66.6754 7.13128 66.1902 6.88579 65.6041 6.87666C65.0206 6.86536 64.4322 7.0963 63.8387 7.56947C63.2452 8.04264 62.8887 8.56732 62.7692 9.1435C62.6546 9.72024 62.7905 10.2509 63.1769 10.7355C63.3028 10.8934 63.4526 11.0366 63.6264 11.1652C63.8029 11.2917 63.999 11.398 64.2147 11.4843C64.3115 11.5274 64.4557 11.5772 64.6476 11.6335C64.8422 11.6876 64.9612 11.7419 65.0046 11.7964C65.0719 11.8808 65.0997 11.9743 65.0881 12.0771C65.0814 12.1804 65.0372 12.2646 64.9556 12.3297C64.8739 12.3948 64.7689 12.4251 64.6406 12.4206C64.5172 12.4165 64.3315 12.3708 64.0837 12.2834C63.7517 12.1741 63.458 12.032 63.2027 11.857C62.9475 11.6821 62.7178 11.4666 62.5138 11.2107C61.9777 10.5383 61.7717 9.79409 61.896 8.97812C62.0229 8.15998 62.4567 7.45571 63.1971 6.86533C63.9295 6.28147 64.7148 6.01823 65.5532 6.07562C66.3916 6.13302 67.0788 6.49793 67.6149 7.17035C67.7582 7.35003 67.8818 7.54979 67.9859 7.76964C68.0921 7.99221 68.1841 8.24168 68.2619 8.51804Z" fill="#1B8488"/>
<path d="M49.3493 9.97793L48.7208 8.9055L47.6034 9.56035C47.5132 9.61316 47.4316 9.62873 47.3583 9.60708C47.2881 9.58366 47.224 9.52238 47.1659 9.42325C47.099 9.3091 47.0727 9.21955 47.0871 9.15461C47.1015 9.08967 47.1643 9.02463 47.2755 8.9595L49.2221 7.81879C49.3002 7.77302 49.3722 7.76511 49.4382 7.79505C49.5054 7.82023 49.5681 7.88239 49.6262 7.98152C49.6913 8.09267 49.7106 8.18424 49.6842 8.25622C49.6608 8.32644 49.586 8.39852 49.4598 8.47245L49.4013 8.50678L50.1327 9.75495L50.1961 9.86309C50.2436 9.9442 50.268 10.0066 50.2694 10.0502C50.2689 10.0908 50.2505 10.1419 50.214 10.2037C50.1027 10.4061 49.9044 10.6394 49.6192 10.9033C49.334 11.1673 49.0232 11.3979 48.6867 11.595C47.8816 12.0668 47.0808 12.1911 46.2841 11.9679C45.4874 11.7446 44.847 11.22 44.3629 10.3939C43.8788 9.56775 43.721 8.74413 43.8896 7.92299C44.0611 7.1001 44.5224 6.46861 45.2734 6.02852C45.4777 5.90881 45.696 5.81314 45.9285 5.7415C46.1622 5.6651 46.4174 5.60833 46.6943 5.57118C46.6786 5.47548 46.6866 5.39614 46.7183 5.33317C46.7512 5.26543 46.8097 5.20692 46.8939 5.15763C47.035 5.07489 47.1528 5.06238 47.2472 5.12009C47.3445 5.17603 47.4821 5.35571 47.6599 5.65912L48.019 6.27194C48.1053 6.41913 48.1405 6.53773 48.1246 6.62774C48.107 6.71474 48.0351 6.79521 47.9089 6.86915C47.7527 6.96068 47.5837 6.93057 47.402 6.7788C47.3445 6.73581 47.2994 6.70369 47.2668 6.68245C47.0166 6.51027 46.75 6.42032 46.467 6.41261C46.1841 6.4049 45.9089 6.47939 45.6415 6.63606C45.1038 6.95116 44.7887 7.39815 44.6961 7.97703C44.6017 8.55291 44.7482 9.17128 45.1355 9.83217C45.5351 10.5141 46.0301 10.9524 46.6204 11.1473C47.2108 11.3421 47.8004 11.267 48.3891 10.9219C48.5604 10.8216 48.7229 10.6961 48.8767 10.5454C49.0336 10.393 49.1911 10.2038 49.3493 9.97793Z" fill="#1B8488"/>
<path d="M31.9201 32.6643L31.3743 31.5477L30.2108 32.1164C30.1169 32.1622 30.0343 32.1716 29.9629 32.1445C29.8947 32.1159 29.8353 32.0499 29.7849 31.9467C29.7268 31.8278 29.7074 31.7366 29.7266 31.6729C29.7459 31.6093 29.8134 31.5491 29.9291 31.4926L31.956 30.5019C32.0373 30.4622 32.1097 30.4597 32.1732 30.4946C32.2384 30.5247 32.2962 30.5914 32.3466 30.6947C32.4032 30.8104 32.4156 30.9031 32.3838 30.9729C32.3552 31.0412 32.2751 31.1074 32.1438 31.1716L32.0828 31.2014L32.718 32.501L32.773 32.6136C32.8143 32.6981 32.834 32.7621 32.832 32.8057C32.8285 32.8461 32.8063 32.8958 32.7653 32.9546C32.639 33.148 32.4237 33.3656 32.1194 33.6073C31.8152 33.849 31.4879 34.0555 31.1376 34.2267C30.2993 34.6364 29.4914 34.7 28.7139 34.4174C27.9364 34.1347 27.3375 33.5634 26.917 32.7032C26.4966 31.843 26.4014 31.01 26.6313 30.2039C26.8644 29.3964 27.3719 28.8015 28.1539 28.4193C28.3666 28.3154 28.5915 28.2365 28.8286 28.1825C29.0674 28.124 29.3262 28.0866 29.605 28.0704C29.5966 27.9738 29.6105 27.8953 29.6469 27.8349C29.6848 27.7699 29.7476 27.716 29.8352 27.6731C29.9822 27.6013 30.1006 27.5977 30.1903 27.6623C30.2831 27.7255 30.4068 27.915 30.5612 28.2309L30.873 28.869C30.9479 29.0222 30.9741 29.1431 30.9515 29.2317C30.9274 29.3171 30.8496 29.3919 30.7183 29.4561C30.5556 29.5356 30.3894 29.4929 30.2196 29.3278C30.1655 29.2806 30.123 29.2452 30.0921 29.2216C29.8556 29.0311 29.5966 28.9213 29.315 28.8923C29.0335 28.8633 28.7535 28.9168 28.4751 29.0528C27.9152 29.3265 27.5673 29.7484 27.4314 30.3186C27.2939 30.8857 27.3933 31.5133 27.7297 32.2014C28.0767 32.9114 28.5372 33.3858 29.1111 33.6245C29.6851 33.8633 30.2786 33.8328 30.8916 33.5332C31.0699 33.446 31.2414 33.3332 31.4062 33.1945C31.574 33.0543 31.7453 32.8776 31.9201 32.6643Z" fill="#1B8488"/>
<path d="M48.0001 93.7699C73.2229 93.7699 93.6701 73.3228 93.6701 48.0999C93.6701 22.8771 73.2229 2.42993 48.0001 2.42993C22.7772 2.42993 2.33008 22.8771 2.33008 48.0999C2.33008 73.3228 22.7772 93.7699 48.0001 93.7699Z" stroke="#1B8488" stroke-width="3.7435" stroke-miterlimit="10"/>
</svg>
