<svg width="96" height="101" viewBox="0 0 96 101" fill="none" xmlns="http://www.w3.org/2000/svg">
<path d="M11.7002 80.29C15.0302 79.42 18.3502 78.54 21.6802 77.67" stroke="#1B8488" stroke-width="0.5343" stroke-miterlimit="10"/>
<path d="M25.8101 76.84C29.1401 75.97 32.4601 75.09 35.7901 74.22" stroke="#1B8488" stroke-width="0.5343" stroke-miterlimit="10"/>
<path d="M40.25 73.1801C43.58 72.3101 46.9 71.4301 50.23 70.5601" stroke="#1B8488" stroke-width="0.5343" stroke-miterlimit="10"/>
<path d="M55.21 69.47C58.54 68.6 61.86 67.72 65.19 66.85" stroke="#1B8488" stroke-width="0.5343" stroke-miterlimit="10"/>
<path d="M69.3198 66.02C72.6498 65.15 75.9698 64.27 79.2998 63.4" stroke="#1B8488" stroke-width="0.5343" stroke-miterlimit="10"/>
<path d="M83.75 62.35C87.08 61.48 90.4 60.6 93.73 59.73" stroke="#1B8488" stroke-width="0.5343" stroke-miterlimit="10"/>
<path d="M31.5252 40.4055L31.4741 39.0249C31.4741 36.5533 31.8917 34.4824 32.7269 32.8119C33.3064 31.6529 34.5252 30.0762 36.3831 28.0819C37.6444 26.7353 38.4711 25.6444 38.8632 24.8092C39.2552 23.957 39.4512 23.0365 39.4512 22.0479C39.4512 20.173 38.8546 18.5792 37.6615 17.2668C36.4683 15.9543 35.0962 15.298 33.5451 15.298C31.9599 15.298 30.6133 15.9031 29.5054 17.1134C28.4145 18.3236 27.7071 20.2497 27.3832 22.8917L23.4969 22.3292C23.8719 18.7156 24.9373 16.0139 26.6929 14.2242C28.4656 12.4174 30.7411 11.514 33.5195 11.514C36.3149 11.514 38.6416 12.4771 40.4995 14.4032C42.3745 16.3122 43.3119 18.7582 43.3119 21.7411C43.3119 23.3774 43.0051 24.8774 42.3915 26.241C41.7779 27.6046 40.5506 29.2921 38.7097 31.3034C37.1416 32.9909 36.1615 34.329 35.7695 35.3176C35.3945 36.2891 35.1814 37.9851 35.1303 40.4055H31.5252ZM31.2695 49.6355V44.3941H35.5649V49.6355H31.2695Z" fill="#1B8488"/>
<path d="M47.9 98.63C73.1008 98.63 93.53 78.2007 93.53 53C93.53 27.7992 73.1008 7.37 47.9 7.37C22.6993 7.37 2.27002 27.7992 2.27002 53C2.27002 78.2007 22.6993 98.63 47.9 98.63Z" stroke="#FFC61B" stroke-width="3.7402" stroke-miterlimit="10"/>
<path d="M2.5 63.9999C33.55 56.8499 62.1798 50.8399 93.2298 43.6899" stroke="#1B8488" stroke-width="3.7402" stroke-miterlimit="10"/>
<path d="M24.5005 91.5C52.5005 84.35 59.0005 84.15 87.0005 77" stroke="#1B8488" stroke-width="3.7402" stroke-miterlimit="10"/>
<path d="M47.9 98.63C73.1008 98.63 93.53 78.2007 93.53 53C93.53 27.7992 73.1008 7.37 47.9 7.37C22.6993 7.37 2.27002 27.7992 2.27002 53C2.27002 78.2007 22.6993 98.63 47.9 98.63Z" stroke="#1B8488" stroke-width="3.7402" stroke-miterlimit="10"/>
</svg>
