<svg width="96" height="96" viewBox="0 0 96 96" fill="none" xmlns="http://www.w3.org/2000/svg">
<path d="M47.9199 93.3C73.0489 93.3 93.4199 72.929 93.4199 47.8C93.4199 22.6711 73.0489 2.30005 47.9199 2.30005C22.791 2.30005 2.41992 22.6711 2.41992 47.8C2.41992 72.929 22.791 93.3 47.9199 93.3Z" stroke="#1B8488" stroke-width="3.7289" stroke-miterlimit="10"/>
<path d="M49.5605 77.1001L39.4105 51.4301C37.0505 45.4601 40.0005 38.6501 45.9705 36.2901C51.9405 33.9301 58.7505 36.8801 61.1105 42.8501L71.2705 68.5201C73.6305 74.4901 70.6805 81.3001 64.7105 83.6601C58.7405 86.0201 51.9205 83.0701 49.5605 77.1001Z" stroke="#1B8488" stroke-width="1.5981" stroke-miterlimit="10"/>
<path d="M43.5103 1.06006C44.9903 1.78006 45.7203 2.96006 46.0503 3.49006C46.7603 4.64006 46.8903 5.64006 47.0503 7.03006C47.3103 9.23006 46.8203 9.30006 47.2103 11.0501C47.5903 12.7801 48.3403 13.9201 48.6403 14.3401C48.9403 14.7701 49.2603 15.1401 49.5303 15.4201C49.5303 15.4201 49.7003 15.6001 49.8503 15.7401C50.4803 16.3401 54.3003 16.7501 54.3003 16.7501C56.0503 16.9301 56.9403 17.0301 57.5403 17.4201C58.2803 17.9101 59.0403 18.8401 58.9103 19.8201C58.7503 21.1201 57.1303 21.8101 56.0003 21.9501C54.4003 22.1501 53.0703 21.3601 52.2803 20.8801C50.3203 19.7101 50.5803 18.8501 48.7103 17.4101C48.0803 16.9201 45.3603 14.8301 43.1103 15.5401C41.5603 16.0301 41.0403 17.5801 40.9703 17.8101C40.4803 19.3701 41.2903 20.9001 42.1903 22.6101C43.2503 24.6301 43.9803 24.9501 43.9403 26.0801C43.9103 26.9501 43.4503 27.5701 42.5903 28.7501C41.2403 30.5801 41.3703 30.9501 41.2703 31.9501C41.1503 33.2001 42.2903 34.2701 42.6603 34.6201C43.9303 35.8101 45.1103 36.3101 45.6303 35.8201C46.2403 35.2501 44.6003 33.0701 43.8703 32.0901C42.0703 29.6901 41.2003 29.7401 40.2603 28.0901C40.0003 27.6301 38.5903 25.1601 39.7603 22.6201C39.8203 22.5001 41.0203 19.9801 43.9603 19.2901C46.4303 18.7001 47.3003 20.0601 50.3903 19.8201C50.9303 19.7801 55.2403 19.4401 56.4403 16.7501C57.4903 14.4001 55.4703 11.7701 55.1403 11.3601C54.3503 10.3601 53.4303 9.78006 53.0603 9.56006C51.4803 8.63006 49.9503 8.47006 48.7003 8.35006C46.9803 8.18006 46.9403 8.47006 44.3903 8.40006C42.3703 8.34006 41.3303 8.30006 40.3403 7.82006C38.8303 7.09006 38.1003 5.88006 37.8003 5.39006C37.0603 4.16006 36.9203 2.95006 36.8003 1.85006" stroke="#1B8488" stroke-width="1.0654" stroke-miterlimit="10"/>
</svg>
