<?xml version="1.0" encoding="utf-8"?>
<!-- Generator: Adobe Illustrator 26.0.3, SVG Export Plug-In . SVG Version: 6.00 Build 0)  -->
<svg version="1.1" id="Layer_1" xmlns="http://www.w3.org/2000/svg" xmlns:xlink="http://www.w3.org/1999/xlink" x="0px" y="0px"
	 viewBox="0 0 106 106" style="enable-background:new 0 0 106 106;" xml:space="preserve">
<style type="text/css">
	.st0{clip-path:url(#SVGID_00000047030458006847638240000008597251325957872815_);}
	.st1{fill:none;stroke:#1B8488;stroke-width:0.5781;stroke-miterlimit:10;}
	.st2{fill:#1B8488;stroke:#1B8488;stroke-miterlimit:10;}
	.st3{fill:#8FD7F3;stroke:#1B8488;stroke-miterlimit:10;}
	
		.st4{clip-path:url(#SVGID_00000106841940846144054640000001014169545681244581_);fill:none;stroke:#1B8488;stroke-width:4.3356;stroke-miterlimit:10;}
</style>
<g>
	<g>
		<defs>
			<ellipse id="SVGID_1_" cx="53" cy="53" rx="51.9" ry="50.6"/>
		</defs>
		<clipPath id="SVGID_00000113322940416686946720000003625179055400224665_">
			<use xlink:href="#SVGID_1_"  style="overflow:visible;"/>
		</clipPath>
		<g id="XMLID_31_" style="clip-path:url(#SVGID_00000113322940416686946720000003625179055400224665_);">
			<line id="XMLID_63_" class="st1" x1="116.8" y1="56.1" x2="81.1" y2="60.2"/>
			<g id="XMLID_33_">
				<line id="XMLID_62_" class="st1" x1="50.1" y1="60.5" x2="56.4" y2="68"/>
				<line id="XMLID_61_" class="st1" x1="56.4" y1="68" x2="74.1" y2="82.1"/>
				<line id="XMLID_60_" class="st1" x1="74.1" y1="82.1" x2="81.1" y2="60.9"/>
				<line id="XMLID_59_" class="st1" x1="81.1" y1="60.9" x2="56.4" y2="48.8"/>
				<line id="XMLID_58_" class="st1" x1="64.8" y1="36" x2="74.1" y2="18.2"/>
				<line id="XMLID_57_" class="st1" x1="53.3" y1="33.2" x2="64.8" y2="36"/>
				<line id="XMLID_56_" class="st1" x1="64.8" y1="36" x2="74.1" y2="42.2"/>
				<line id="XMLID_55_" class="st1" x1="74.1" y1="42.2" x2="56.4" y2="48.8"/>
				<line id="XMLID_54_" class="st1" x1="56.4" y1="48.8" x2="29.5" y2="63.4"/>
				<line id="XMLID_53_" class="st1" x1="56.4" y1="48.8" x2="53.3" y2="33.2"/>
				<line id="XMLID_52_" class="st1" x1="56.4" y1="48.8" x2="56.4" y2="68"/>
				<line id="XMLID_51_" class="st1" x1="49.4" y1="61.6" x2="30.6" y2="86.5"/>
				<line id="XMLID_50_" class="st1" x1="50.1" y1="60.5" x2="29.5" y2="63.4"/>
				<line id="XMLID_49_" class="st1" x1="29.5" y1="63.4" x2="23.5" y2="34.8"/>
				<line id="XMLID_48_" class="st1" x1="81.1" y1="60.9" x2="64.8" y2="38.9"/>
				<line id="XMLID_47_" class="st1" x1="64.8" y1="34.6" x2="22.5" y2="35.5"/>
				<ellipse id="XMLID_29_" class="st2" cx="81.1" cy="60.9" rx="7" ry="6.4"/>
				<ellipse id="XMLID_28_" class="st2" cx="74.1" cy="82.1" rx="7" ry="6.4"/>
				<ellipse id="XMLID_27_" class="st2" cx="74.1" cy="18.2" rx="4.7" ry="4.3"/>
				<ellipse id="XMLID_26_" class="st2" cx="30.6" cy="86.5" rx="4.7" ry="4.3"/>
				<ellipse id="XMLID_24_" class="st2" cx="53.3" cy="33.1" rx="3.2" ry="2.9"/>
				<ellipse id="XMLID_23_" class="st2" cx="56.4" cy="48.8" rx="3.2" ry="2.9"/>
				<ellipse id="XMLID_22_" class="st2" cx="29.5" cy="63.4" rx="3.1" ry="2.9"/>
				<ellipse id="XMLID_21_" class="st2" cx="56.4" cy="68" rx="3.2" ry="2.9"/>
				<ellipse id="XMLID_20_" class="st2" cx="64.8" cy="36" rx="3.2" ry="2.9"/>
				<ellipse id="XMLID_19_" class="st2" cx="74.1" cy="42.2" rx="3.2" ry="2.9"/>
				<line id="XMLID_36_" class="st1" x1="22.5" y1="35.5" x2="50.1" y2="60.5"/>
				<ellipse id="XMLID_17_" class="st2" cx="50.1" cy="60.5" rx="3.2" ry="2.9"/>
				<ellipse id="XMLID_11_" class="st2" cx="22.5" cy="35.5" rx="7" ry="6.4"/>
			</g>
			<ellipse id="XMLID_25_" class="st3" cx="116.8" cy="56.1" rx="7" ry="6.4"/>
		</g>
	</g>
	<g>
		<defs>
			<ellipse id="SVGID_00000008130654648457910540000011485567678883207819_" cx="53" cy="53" rx="51.9" ry="50.6"/>
		</defs>
		<clipPath id="SVGID_00000020400204865640462610000005329876563189884593_">
			<use xlink:href="#SVGID_00000008130654648457910540000011485567678883207819_"  style="overflow:visible;"/>
		</clipPath>
		
			<ellipse id="XMLID_64_" style="clip-path:url(#SVGID_00000020400204865640462610000005329876563189884593_);fill:none;stroke:#1B8488;stroke-width:4.3356;stroke-miterlimit:10;" cx="53" cy="53" rx="49.7" ry="48.6"/>
		
			<use xlink:href="#SVGID_00000008130654648457910540000011485567678883207819_"  style="overflow:visible;fill:none;stroke:#1B8488;stroke-miterlimit:10;"/>
	</g>
</g>
</svg>
