<svg width="98" height="98" viewBox="0 0 98 98" fill="none" xmlns="http://www.w3.org/2000/svg">
<path d="M49.1699 95.31C74.7241 95.31 95.4399 74.5942 95.4399 49.04C95.4399 23.4858 74.7241 2.77002 49.1699 2.77002C23.6157 2.77002 2.8999 23.4858 2.8999 49.04C2.8999 74.5942 23.6157 95.31 49.1699 95.31Z" stroke="#03733C" stroke-width="3.7926" stroke-miterlimit="10"/>
<path d="M45.5702 64.1199L33.9502 50.2699L40.1402 33.2799L57.9402 30.1399L69.5602 43.9899L63.3802 60.9799L45.5702 64.1199Z" stroke="#1B8488" stroke-width="1.0836" stroke-miterlimit="10"/>
<path d="M57.9402 30.1399L40.1402 33.2799L33.9502 50.2699L45.5702 64.1199L63.3802 60.9799L69.5602 43.9899L57.9402 30.1399Z" stroke="#1B8488" stroke-width="1.0836" stroke-miterlimit="10"/>
<path d="M40.1602 33.3999L46.0302 38.9899L61.6902 44.8099L69.5802 44.1099" stroke="#1B8488" stroke-width="1.0836" stroke-miterlimit="10"/>
<path d="M33.8901 50.2499L48.0101 57.0299L63.3201 60.9599L61.6101 44.6699L57.8801 30.1199L45.9501 38.8499L33.8901 50.2499Z" stroke="#1B8488" stroke-width="1.0836" stroke-miterlimit="10"/>
<path d="M45.6802 64.3198L48.3502 56.7798L61.7002 45.0698" stroke="#1B8488" stroke-width="1.0836" stroke-miterlimit="10"/>
<path d="M48.48 56.4299L45.75 38.5999" stroke="#1B8488" stroke-width="1.0836" stroke-miterlimit="10"/>
<path d="M35.7201 66.99C38.835 66.99 41.3601 64.4648 41.3601 61.35C41.3601 58.2351 38.835 55.71 35.7201 55.71C32.6052 55.71 30.0801 58.2351 30.0801 61.35C30.0801 64.4648 32.6052 66.99 35.7201 66.99Z" fill="#1B8488"/>
<path d="M44.6498 69.1098C47.7647 69.1098 50.2898 66.5847 50.2898 63.4698C50.2898 60.3549 47.7647 57.8298 44.6498 57.8298C41.5349 57.8298 39.0098 60.3549 39.0098 63.4698C39.0098 66.5847 41.5349 69.1098 44.6498 69.1098Z" fill="#1B8488"/>
<path d="M56.54 79.7499C62.7753 79.7499 67.83 74.6952 67.83 68.4599C67.83 62.2246 62.7753 57.1699 56.54 57.1699C50.3047 57.1699 45.25 62.2246 45.25 68.4599C45.25 74.6952 50.3047 79.7499 56.54 79.7499Z" fill="#1B8488"/>
<path d="M56.2001 68.57C59.3149 68.57 61.8401 66.0449 61.8401 62.93C61.8401 59.8152 59.3149 57.29 56.2001 57.29C53.0852 57.29 50.5601 59.8152 50.5601 62.93C50.5601 66.0449 53.0852 68.57 56.2001 68.57Z" fill="#1B8488"/>
<path d="M62.85 72.0901C65.9648 72.0901 68.49 69.5649 68.49 66.4501C68.49 63.3352 65.9648 60.8101 62.85 60.8101C59.7351 60.8101 57.21 63.3352 57.21 66.4501C57.21 69.5649 59.7351 72.0901 62.85 72.0901Z" fill="#1B8488"/>
<path d="M27.41 69.75C30.5249 69.75 33.05 67.2249 33.05 64.11C33.05 60.9951 30.5249 58.47 27.41 58.47C24.2951 58.47 21.77 60.9951 21.77 64.11C21.77 67.2249 24.2951 69.75 27.41 69.75Z" fill="#1B8488"/>
<path d="M59.0799 67.98C62.1948 67.98 64.7199 65.4548 64.7199 62.3399C64.7199 59.2251 62.1948 56.7 59.0799 56.7C55.9651 56.7 53.4399 59.2251 53.4399 62.3399C53.4399 65.4548 55.9651 67.98 59.0799 67.98Z" fill="#1B8488"/>
<path d="M68.0101 70.1098C71.125 70.1098 73.6501 67.5847 73.6501 64.4698C73.6501 61.3549 71.125 58.8298 68.0101 58.8298C64.8952 58.8298 62.3701 61.3549 62.3701 64.4698C62.3701 67.5847 64.8952 70.1098 68.0101 70.1098Z" fill="#1B8488"/>
<path d="M79.5702 69.56C82.6851 69.56 85.2102 67.0349 85.2102 63.92C85.2102 60.8051 82.6851 58.28 79.5702 58.28C76.4553 58.28 73.9302 60.8051 73.9302 63.92C73.9302 67.0349 76.4553 69.56 79.5702 69.56Z" fill="#1B8488"/>
<path d="M86.7499 73.6299C89.8647 73.6299 92.3899 71.1047 92.3899 67.9899C92.3899 64.875 89.8647 62.3499 86.7499 62.3499C83.635 62.3499 81.1099 64.875 81.1099 67.9899C81.1099 71.1047 83.635 73.6299 86.7499 73.6299Z" fill="#1B8488"/>
<path d="M50.7699 70.75C53.8848 70.75 56.4099 68.2249 56.4099 65.11C56.4099 61.9951 53.8848 59.47 50.7699 59.47C47.655 59.47 45.1299 61.9951 45.1299 65.11C45.1299 68.2249 47.655 70.75 50.7699 70.75Z" fill="#1B8488"/>
<path d="M12.62 71.0801C15.7349 71.0801 18.26 68.5549 18.26 65.4401C18.26 62.3252 15.7349 59.8 12.62 59.8C9.5051 59.8 6.97998 62.3252 6.97998 65.4401C6.97998 68.5549 9.5051 71.0801 12.62 71.0801Z" fill="#1B8488"/>
<path d="M21.5502 73.1999C24.665 73.1999 27.1902 70.6748 27.1902 67.5599C27.1902 64.445 24.665 61.9199 21.5502 61.9199C18.4353 61.9199 15.9102 64.445 15.9102 67.5599C15.9102 70.6748 18.4353 73.1999 21.5502 73.1999Z" fill="#1B8488"/>
<path d="M33.1 72.6599C36.2148 72.6599 38.74 70.1348 38.74 67.0199C38.74 63.905 36.2148 61.3799 33.1 61.3799C29.9851 61.3799 27.46 63.905 27.46 67.0199C27.46 70.1348 29.9851 72.6599 33.1 72.6599Z" fill="#1B8488"/>
<path d="M39.7499 76.1799C42.8647 76.1799 45.3899 73.6548 45.3899 70.5399C45.3899 67.425 42.8647 64.8999 39.7499 64.8999C36.635 64.8999 34.1099 67.425 34.1099 70.5399C34.1099 73.6548 36.635 76.1799 39.7499 76.1799Z" fill="#1B8488"/>
<path d="M12.6898 62.4499C15.8047 62.4499 18.3298 59.9248 18.3298 56.8099C18.3298 53.695 15.8047 51.1699 12.6898 51.1699C9.57492 51.1699 7.0498 53.695 7.0498 56.8099C7.0498 59.9248 9.57492 62.4499 12.6898 62.4499Z" fill="#1B8488"/>
<path d="M21.62 64.03C24.7349 64.03 27.26 61.5049 27.26 58.39C27.26 55.2751 24.7349 52.75 21.62 52.75C18.5051 52.75 15.98 55.2751 15.98 58.39C15.98 61.5049 18.5051 64.03 21.62 64.03Z" fill="#1B8488"/>
<path d="M30.4701 60.24C33.585 60.24 36.1101 57.7148 36.1101 54.6C36.1101 51.4851 33.585 48.96 30.4701 48.96C27.3552 48.96 24.8301 51.4851 24.8301 54.6C24.8301 57.7148 27.3552 60.24 30.4701 60.24Z" fill="#1B8488"/>
<path d="M39.8202 66.4699C42.9351 66.4699 45.4602 63.9448 45.4602 60.8299C45.4602 57.7151 42.9351 55.1899 39.8202 55.1899C36.7053 55.1899 34.1802 57.7151 34.1802 60.8299C34.1802 63.9448 36.7053 66.4699 39.8202 66.4699Z" fill="#1B8488"/>
<path d="M12.6898 55.7299C15.8047 55.7299 18.3298 53.2048 18.3298 50.09C18.3298 46.9751 15.8047 44.45 12.6898 44.45C9.57492 44.45 7.0498 46.9751 7.0498 50.09C7.0498 53.2048 9.57492 55.7299 12.6898 55.7299Z" fill="#1B8488"/>
<path d="M21.62 57.8501C24.7349 57.8501 27.26 55.325 27.26 52.2101C27.26 49.0952 24.7349 46.5701 21.62 46.5701C18.5051 46.5701 15.98 49.0952 15.98 52.2101C15.98 55.325 18.5051 57.8501 21.62 57.8501Z" fill="#1B8488"/>
<path d="M48.8301 95.2299C74.3843 95.2299 95.1001 74.5142 95.1001 48.9599C95.1001 23.4057 74.3843 2.68994 48.8301 2.68994C23.2758 2.68994 2.56006 23.4057 2.56006 48.9599C2.56006 74.5142 23.2758 95.2299 48.8301 95.2299Z" stroke="#1B8488" stroke-width="3.7926" stroke-miterlimit="10"/>
</svg>
