<svg width="100" height="100" viewBox="0 0 100 100" fill="none" xmlns="http://www.w3.org/2000/svg">
<path d="M22.3201 34.7499C23.1601 34.4299 26.3601 34.1599 29.4201 34.1599H66.9301C69.9901 34.1599 73.4001 34.2499 74.5101 34.3699C75.6201 34.4899 77.4001 35.0499 78.4701 35.6099C79.5401 36.1799 81.4801 37.6599 82.7801 38.9099C84.0901 40.1499 85.6101 42.2399 86.1701 43.5499C86.7301 44.8599 87.4401 47.1999 87.7501 48.7499C88.0601 50.3099 88.2301 52.4399 88.1201 53.4999C88.0101 54.5599 87.7101 56.0799 87.4501 56.8899C87.1901 57.6999 86.3601 59.3799 85.6101 60.6199C84.8601 61.8599 83.5401 63.5899 82.6701 64.4699C81.8001 65.3399 80.1201 66.6099 78.9401 67.2999C77.7601 67.9799 75.6701 68.7999 74.3001 69.1099C72.9301 69.4199 70.8501 69.6799 69.6601 69.6799C68.4701 69.6799 66.5401 69.3199 65.3601 68.8899C64.1801 68.4599 62.3501 67.5899 61.2901 66.9699C60.2301 66.3499 58.6301 65.1799 57.7301 64.3699C56.8301 63.5599 55.7601 62.2399 55.3601 61.4299C54.9601 60.6199 54.2001 59.4799 53.6901 58.8999C53.1801 58.3199 52.3101 57.4999 51.7701 57.0899C51.2301 56.6799 50.1201 56.3399 49.3101 56.3399C48.5001 56.3399 47.1801 56.6999 46.3701 57.1299C45.5601 57.5599 44.5401 58.5299 44.1101 59.2799C43.6701 60.0299 42.6601 61.3499 41.8501 62.2199C41.0401 63.0899 39.8401 64.2699 39.1701 64.8499C38.5101 65.4199 37.3001 66.3399 36.4901 66.8899C35.6801 67.4399 34.1901 68.1799 33.1701 68.5499C32.1501 68.9199 30.3001 69.3199 29.0401 69.4499C27.7901 69.5799 25.7001 69.4299 24.3901 69.1199C23.0901 68.8099 21.0201 68.1699 19.7901 67.6999C18.5601 67.2299 16.8601 66.2499 16.0001 65.5199C15.1401 64.7899 13.9001 63.4699 13.2501 62.5799C12.6001 61.6899 11.6001 60.0499 11.0301 58.9299C10.4601 57.8099 9.84013 55.7799 9.66013 54.4199C9.48013 53.0599 9.41013 51.0699 9.51013 50.0099C9.61013 48.9499 10.0801 47.1599 10.5501 46.0299C11.0201 44.8999 11.8301 43.2599 12.3501 42.3799C12.8701 41.4999 14.1301 40.0599 15.1501 39.1999C16.1701 38.3399 17.8501 37.1199 18.9001 36.4999C19.9301 35.8499 21.4701 35.0699 22.3201 34.7499Z" stroke="#1B8488" stroke-width="1.668" stroke-miterlimit="10"/>
<path d="M8.83016 55.78C9.33016 55.78 9.75016 55.37 9.75016 54.86V48.96C9.75016 48.46 9.34016 48.04 8.83016 48.04C8.33016 48.04 7.91016 48.45 7.91016 48.96V54.86C7.92016 55.36 8.33016 55.78 8.83016 55.78Z" stroke="#1B8488" stroke-width="1.668" stroke-miterlimit="10"/>
<path d="M89.3004 55.78C89.8004 55.78 90.2204 55.37 90.2204 54.86V48.96C90.2204 48.46 89.8104 48.04 89.3004 48.04C88.8004 48.04 88.3804 48.45 88.3804 48.96V54.86C88.3804 55.37 88.8004 55.78 89.3004 55.78Z" stroke="#1B8488" stroke-width="1.668" stroke-miterlimit="10"/>
<path d="M57.2704 33.1099C57.2704 32.6099 56.8604 32.1899 56.3504 32.1899H42.0704C41.5704 32.1899 41.1504 32.5999 41.1504 33.1099C41.1504 33.6099 41.5604 34.0299 42.0704 34.0299H56.3604C56.8604 34.0299 57.2704 33.6199 57.2704 33.1099Z" stroke="#1B8488" stroke-width="1.668" stroke-miterlimit="10"/>
<path d="M23.6101 35.57C24.4101 35.26 27.5801 35.01 30.6301 35.01H65.8201C68.8801 35.01 72.2501 35.1 73.3001 35.21C74.3601 35.32 76.0601 35.85 77.0701 36.39C78.0801 36.93 79.9301 38.34 81.1801 39.53C82.4301 40.72 83.8801 42.7 84.4101 43.95C84.9401 45.19 85.6201 47.42 85.9201 48.9C86.2201 50.38 86.3701 52.42 86.2701 53.42C86.1701 54.43 85.8801 55.88 85.6301 56.65C85.3801 57.42 84.5901 59.02 83.8801 60.2C83.1701 61.38 81.9101 63.03 81.0801 63.86C80.2501 64.69 78.6501 65.9 77.5301 66.55C76.4001 67.2 74.4201 67.98 73.1101 68.27C71.8101 68.57 69.8201 68.81 68.6901 68.81C67.5601 68.81 65.7201 68.47 64.6001 68.06C63.4801 67.65 61.7301 66.82 60.7201 66.23C59.7101 65.64 58.1901 64.52 57.3301 63.75C56.4701 62.98 55.4501 61.72 55.0701 60.95C54.6901 60.18 53.9701 59.1 53.4801 58.54C52.9901 57.98 52.1701 57.21 51.6501 56.82C51.1301 56.43 50.0801 56.11 49.3101 56.11C48.5401 56.11 47.2801 56.45 46.5101 56.86C45.7401 57.27 44.7701 58.2 44.3601 58.91C43.9501 59.62 42.9801 60.88 42.2101 61.71C41.4401 62.54 40.2901 63.67 39.6601 64.21C39.0301 64.76 37.8801 65.63 37.1101 66.15C36.3401 66.67 34.9201 67.38 33.9501 67.73C32.9801 68.08 31.2101 68.46 30.0201 68.59C28.8301 68.71 26.8401 68.57 25.5901 68.27C24.3501 67.97 22.3801 67.36 21.2101 66.92C20.0401 66.47 18.4201 65.54 17.6001 64.84C16.7801 64.14 15.6001 62.88 14.9801 62.04C14.3601 61.2 13.4101 59.63 12.8601 58.56C12.3201 57.49 11.7301 55.56 11.5601 54.26C11.3901 52.96 11.3201 51.07 11.4201 50.06C11.5201 49.05 11.9601 47.34 12.4101 46.27C12.8601 45.2 13.6301 43.64 14.1301 42.79C14.6301 41.95 15.8301 40.58 16.8001 39.76C17.7701 38.94 19.3701 37.78 20.3701 37.19C21.3301 36.61 22.8101 35.87 23.6101 35.57Z" stroke="#1B8488" stroke-width="1.668" stroke-miterlimit="10"/>
<path d="M18.9599 48.0499C18.9399 47.3499 18.9999 45.8299 19.8899 44.1899C20.2899 43.4399 21.1299 42.1899 22.6699 41.2599C24.0599 40.4199 25.3799 40.2299 26.0699 40.1799" stroke="#1B8488" stroke-width="1.668" stroke-miterlimit="10"/>
<path d="M50 97.48C76.2225 97.48 97.48 76.2225 97.48 50C97.48 23.7775 76.2225 2.52002 50 2.52002C23.7775 2.52002 2.52002 23.7775 2.52002 50C2.52002 76.2225 23.7775 97.48 50 97.48Z" stroke="#1B8488" stroke-width="3.8919" stroke-miterlimit="10"/>
</svg>
