<svg width="98" height="98" viewBox="0 0 98 98" fill="none" xmlns="http://www.w3.org/2000/svg">
<path d="M10.1499 52.1299C12.2799 48.4999 16.1699 42.9099 22.6599 37.9399C26.4999 34.9999 35.8499 28.0499 49.3599 28.0799C61.1099 28.0999 69.4099 33.3899 72.6899 35.5399C81.1999 41.1199 85.7699 48.1599 87.8399 51.8999" stroke="#1B8488" stroke-width="3.8209" stroke-miterlimit="10"/>
<path d="M10.1499 49.8699C12.2799 53.0099 16.1699 57.8399 22.6599 62.1399C26.4999 64.6899 35.8499 70.6899 49.3599 70.6699C61.1099 70.6499 69.4099 66.0799 72.6899 64.2199C81.1999 59.3999 85.7699 53.3099 87.8399 50.0799" stroke="#1B8488" stroke-width="3.8209" stroke-miterlimit="10"/>
<path d="M47.6098 60.9C56.2254 60.9 63.2098 53.9156 63.2098 45.2999C63.2098 36.6843 56.2254 29.7 47.6098 29.7C38.9941 29.7 32.0098 36.6843 32.0098 45.2999C32.0098 53.9156 38.9941 60.9 47.6098 60.9Z" fill="#1B8488"/>
<path d="M37.5701 49C37.5501 47.9 37.6401 45.53 39.0101 42.99C39.6401 41.83 40.9401 39.87 43.3401 38.42C45.5101 37.11 47.5601 36.82 48.6301 36.74" stroke="white" stroke-width="3.8209" stroke-miterlimit="10"/>
<path d="M48.9999 95.6199C74.7474 95.6199 95.6199 74.7474 95.6199 48.9999C95.6199 23.2524 74.7474 2.37988 48.9999 2.37988C23.2524 2.37988 2.37988 23.2524 2.37988 48.9999C2.37988 74.7474 23.2524 95.6199 48.9999 95.6199Z" stroke="#1B8488" stroke-width="3.8209" stroke-miterlimit="10"/>
</svg>
