<svg width="98" height="98" viewBox="0 0 98 98" fill="none" xmlns="http://www.w3.org/2000/svg">
<path d="M25.9701 32.13L18.3601 33L13.8101 26.85L16.8601 19.83L24.4701 18.96L29.0201 25.12L25.9701 32.13Z" stroke="#1B8488" stroke-width="0.5437" stroke-miterlimit="10"/>
<path d="M16.8601 19.83L13.8101 26.85L18.3601 33L25.9701 32.13L29.0201 25.12L24.4701 18.96L16.8601 19.83Z" stroke="#1B8488" stroke-width="0.5437" stroke-miterlimit="10"/>
<path d="M13.8599 26.87L17.1999 26.1L22.9199 21.93L24.5099 18.98" stroke="#1B8488" stroke-width="0.5437" stroke-miterlimit="10"/>
<path d="M18.3398 33.0198L24.0298 29.6098L28.9998 25.1298L22.8498 21.9298L16.8398 19.8398L17.1398 26.0998L18.3398 33.0198Z" stroke="#1B8488" stroke-width="0.5437" stroke-miterlimit="10"/>
<path d="M26.0603 32.14L24.0303 29.44L23.0103 21.99" stroke="#1B8488" stroke-width="0.5437" stroke-miterlimit="10"/>
<path d="M23.93 29.3099L17 26.1099" stroke="#1B8488" stroke-width="0.5437" stroke-miterlimit="10"/>
<path d="M57.9396 37.13C56.4796 37.72 54.3696 38.46 51.7396 38.95C46.3396 39.97 41.9996 39.35 40.1396 39.01C36.0696 38.26 33.2196 36.91 32.5496 36.59C29.5196 35.12 27.3096 33.35 25.8496 32.01" stroke="#1B8488" stroke-width="0.5437" stroke-miterlimit="10"/>
<path d="M17.4399 49L27.0399 52.44L28.8699 62.48L21.0799 69.08L11.4699 65.64L9.6499 55.6L17.4399 49Z" stroke="#1B8488" stroke-width="0.5437" stroke-miterlimit="10"/>
<path d="M21.0799 69.08L28.8699 62.48L27.0399 52.44L17.4399 49L9.6499 55.6L11.4699 65.64L21.0799 69.08Z" stroke="#1B8488" stroke-width="0.5437" stroke-miterlimit="10"/>
<path d="M28.8197 62.4299L24.3697 61.3799L15.0797 62.9999L11.4297 65.5899" stroke="#1B8488" stroke-width="0.5437" stroke-miterlimit="10"/>
<path d="M27.0797 52.4399L18.2697 53.1499L9.67969 55.5899L15.1597 63.0499L21.1097 69.0799L24.4397 61.4299L27.0797 52.4399Z" stroke="#1B8488" stroke-width="0.5437" stroke-miterlimit="10"/>
<path d="M15 62.8799L18.17 53.3699L17.33 48.93L15.47 36.95" stroke="#1B8488" stroke-width="0.5437" stroke-miterlimit="10"/>
<path d="M18.21 53.5798L24.62 61.4898" stroke="#1B8488" stroke-width="0.5437" stroke-miterlimit="10"/>
<path d="M52.8095 27.5701L46.2495 19.7501L49.7495 10.1601L59.7995 8.39014L66.3595 16.2101L62.8595 25.8001L52.8095 27.5701Z" stroke="#1B8488" stroke-width="0.5437" stroke-miterlimit="10"/>
<path d="M59.7995 8.39014L49.7495 10.1601L46.2495 19.7501L52.8095 27.5701L62.8595 25.8001L66.3595 16.2101L59.7995 8.39014Z" stroke="#1B8488" stroke-width="0.5437" stroke-miterlimit="10"/>
<path d="M49.7598 10.2302L53.0698 13.3902L61.9098 16.6702L66.3698 16.2802" stroke="#1B8488" stroke-width="0.5437" stroke-miterlimit="10"/>
<path d="M46.2197 19.7401L54.1897 23.5701L62.8297 25.7901L61.8597 16.5901L59.7597 8.38013L53.0297 13.3101L46.2197 19.7401Z" stroke="#1B8488" stroke-width="0.5437" stroke-miterlimit="10"/>
<path d="M52.8696 27.6801L54.3796 23.4301L61.9196 16.8201" stroke="#1B8488" stroke-width="0.5437" stroke-miterlimit="10"/>
<path d="M54.4597 23.2302L52.9097 13.1602" stroke="#1B8488" stroke-width="0.5437" stroke-miterlimit="10"/>
<path d="M64.6098 74.5101L58.0498 66.6901L61.5398 57.1001L71.5898 55.3301L78.1498 63.1501L74.6598 72.7401L64.6098 74.5101Z" stroke="#1B8488" stroke-width="0.5437" stroke-miterlimit="10"/>
<path d="M71.5898 55.3301L61.5398 57.1001L58.0498 66.6901L64.6098 74.5101L74.6598 72.7401L78.1498 63.1501L71.5898 55.3301Z" stroke="#1B8488" stroke-width="0.5437" stroke-miterlimit="10"/>
<path d="M61.5498 57.1702L64.8598 60.3302L73.6998 63.6102L78.1598 63.2202" stroke="#1B8488" stroke-width="0.5437" stroke-miterlimit="10"/>
<path d="M58.0098 66.6801L65.9798 70.5101L74.6198 72.7301L73.6598 63.5301L71.5498 55.3201L64.8198 60.2501L58.0098 66.6801Z" stroke="#1B8488" stroke-width="0.5437" stroke-miterlimit="10"/>
<path d="M64.6699 74.62L66.1699 70.37L73.7099 63.76" stroke="#1B8488" stroke-width="0.5437" stroke-miterlimit="10"/>
<path d="M66.25 70.1701L64.71 60.1001" stroke="#1B8488" stroke-width="0.5437" stroke-miterlimit="10"/>
<path d="M48.9998 95.4301C74.6424 95.4301 95.4298 74.6426 95.4298 49.0001C95.4298 23.3575 74.6424 2.57007 48.9998 2.57007C23.3572 2.57007 2.56982 23.3575 2.56982 49.0001C2.56982 74.6426 23.3572 95.4301 48.9998 95.4301Z" stroke="#1B8488" stroke-width="3.8058" stroke-miterlimit="10"/>
<path d="M20.46 85.63L87.43 25.79" stroke="#1B8488" stroke-width="1.6311" stroke-miterlimit="10" stroke-dasharray="5.44 5.44"/>
</svg>
