<svg width="96" height="96" viewBox="0 0 96 96" fill="none" xmlns="http://www.w3.org/2000/svg">
<path d="M32.8803 51.91C33.7303 50.43 35.2303 49.41 36.2103 49.66C37.1903 49.91 38.8303 50.11 39.8403 50.11C40.8503 50.11 42.5103 49.91 43.5203 49.66C44.5303 49.41 46.2603 48.75 47.3703 48.2C48.4703 47.64 49.8403 46.92 50.4003 46.6C50.9703 46.28 51.7503 46.01 52.1303 46.01C52.5203 46.01 53.1503 46.01 53.5403 46.01C53.9303 46.01 54.4403 46.27 54.6803 46.6C54.9203 46.92 55.3803 47.73 55.7103 48.4C56.0403 49.07 56.7003 50.2 57.1703 50.91C57.6503 51.62 56.1303 52.4 53.7903 52.64L38.6503 54.18C36.3203 54.42 33.7103 54.61 32.8603 54.61C32.0303 54.61 32.0303 53.4 32.8803 51.91Z" fill="#1B8488"/>
<path d="M32.8803 51.91C33.7303 50.43 35.2303 49.41 36.2103 49.66C37.1903 49.91 38.8303 50.11 39.8403 50.11C40.8503 50.11 42.5103 49.91 43.5203 49.66C44.5303 49.41 46.2603 48.75 47.3703 48.2C48.4703 47.64 49.8403 46.92 50.4003 46.6C50.9703 46.28 51.7503 46.01 52.1303 46.01C52.5203 46.01 53.1503 46.01 53.5403 46.01C53.9303 46.01 54.4403 46.27 54.6803 46.6C54.9203 46.92 55.3803 47.73 55.7103 48.4C56.0403 49.07 56.7003 50.2 57.1703 50.91C57.6503 51.62 56.1303 52.4 53.7903 52.64L38.6503 54.18C36.3203 54.42 33.7103 54.61 32.8603 54.61C32.0303 54.61 32.0303 53.4 32.8803 51.91Z" stroke="#1B8488" stroke-width="0.5331" stroke-miterlimit="10"/>
<path d="M56.8901 50.3099L63.5501 63.1099C66.2601 68.3099 68.4701 73.8199 68.4701 75.3499C68.4701 76.8799 68.0301 78.5299 67.5001 79.0099C66.9701 79.4999 61.7301 79.8899 55.8701 79.8899H36.0101C30.1501 79.8899 24.6701 79.4399 23.8501 78.8799C23.0301 78.3199 22.3501 76.6199 22.3501 75.0899C22.3501 73.5599 24.5201 68.0299 27.1701 62.7999L32.5501 52.2099" fill="#1B8488"/>
<path d="M56.8901 50.3099L63.5501 63.1099C66.2601 68.3099 68.4701 73.8199 68.4701 75.3499C68.4701 76.8799 68.0301 78.5299 67.5001 79.0099C66.9701 79.4999 61.7301 79.8899 55.8701 79.8899H36.0101C30.1501 79.8899 24.6701 79.4399 23.8501 78.8799C23.0301 78.3199 22.3501 76.6199 22.3501 75.0899C22.3501 73.5599 24.5201 68.0299 27.1701 62.7999L32.5501 52.2099" stroke="#1B8488" stroke-width="0.5331" stroke-miterlimit="10"/>
<path d="M53.88 60.35C54.7692 60.35 55.49 59.6292 55.49 58.74C55.49 57.8508 54.7692 57.13 53.88 57.13C52.9908 57.13 52.27 57.8508 52.27 58.74C52.27 59.6292 52.9908 60.35 53.88 60.35Z" fill="#F8F6F9" stroke="#1B8488" stroke-width="0.5331" stroke-miterlimit="10"/>
<path d="M39.4802 72.73C41.7059 72.73 43.5102 70.9258 43.5102 68.7C43.5102 66.4743 41.7059 64.67 39.4802 64.67C37.2545 64.67 35.4502 66.4743 35.4502 68.7C35.4502 70.9258 37.2545 72.73 39.4802 72.73Z" fill="#F8F6F9" stroke="#1B8488" stroke-width="0.5331" stroke-miterlimit="10"/>
<path d="M35.4502 66.06C36.7039 66.06 37.7202 65.0437 37.7202 63.79C37.7202 62.5363 36.7039 61.52 35.4502 61.52C34.1965 61.52 33.1802 62.5363 33.1802 63.79C33.1802 65.0437 34.1965 66.06 35.4502 66.06Z" fill="#F8F6F9" stroke="#1B8488" stroke-width="0.5331" stroke-miterlimit="10"/>
<path d="M38.0499 30.4C37.9799 24.54 37.3399 18.95 36.6099 17.99C35.8899 17.03 39.5999 16.24 44.8599 16.24C50.1199 16.24 53.8299 17.03 53.0999 17.99C52.3699 18.95 51.7699 24.43 51.7699 30.16C51.7699 35.89 53.9999 44.83 56.7299 50.02L63.5499 62.99C66.2799 68.18 68.5199 73.67 68.5199 75.2C68.5199 76.73 68.0799 78.38 67.5499 78.86C67.0199 79.35 61.7799 79.74 55.9199 79.74H36.0599C30.1999 79.74 24.7199 79.29 23.8999 78.73C23.0799 78.17 22.3999 76.47 22.3999 74.94C22.3999 73.41 24.5699 67.88 27.2199 62.65L33.3399 50.59C35.9899 45.36 38.1099 36.29 38.0399 30.42L38.0499 30.4Z" stroke="#1B8488" stroke-width="1.5992" stroke-miterlimit="10"/>
<path d="M48.0002 93.53C73.1457 93.53 93.5302 73.1455 93.5302 48C93.5302 22.8544 73.1457 2.46997 48.0002 2.46997C22.8547 2.46997 2.47021 22.8544 2.47021 48C2.47021 73.1455 22.8547 93.53 48.0002 93.53Z" stroke="#1B8488" stroke-width="3.7314" stroke-miterlimit="10"/>
</svg>
