<svg width="98" height="98" viewBox="0 0 98 98" fill="none" xmlns="http://www.w3.org/2000/svg">
<path d="M38.5102 49.79C43.779 49.79 48.0502 45.5188 48.0502 40.25C48.0502 34.9812 43.779 30.71 38.5102 30.71C33.2414 30.71 28.9702 34.9812 28.9702 40.25C28.9702 45.5188 33.2414 49.79 38.5102 49.79Z" fill="#1B8488"/>
<path d="M62.86 50.98C67.6041 50.98 71.45 47.1342 71.45 42.39C71.45 37.6459 67.6041 33.8 62.86 33.8C58.1159 33.8 54.27 37.6459 54.27 42.39C54.27 47.1342 58.1159 50.98 62.86 50.98Z" fill="#1B8488"/>
<path d="M32.1998 79.9C29.2098 79.9 26.7598 77.45 26.7598 74.46V63.76C26.7598 60.77 25.3398 57.69 23.6098 56.92C21.8798 56.15 19.3198 54.57 17.9298 53.42C16.5398 52.27 14.2398 50.03 12.8198 48.45C11.3898 46.87 9.62982 44.47 8.89982 43.13C8.16982 41.78 7.56982 39.95 7.56982 39.07C7.56982 38.18 7.81982 37.05 8.12982 36.55C8.43982 36.05 9.22982 35.42 9.87982 35.15C10.5298 34.88 11.6098 34.88 12.2598 35.15C12.9198 35.42 13.8598 36.24 14.3598 36.97C14.8598 37.7 15.9598 39.34 16.8098 40.61C17.6598 41.88 19.4498 43.9 20.7998 45.09C22.1498 46.28 24.7698 48.08 26.6198 49.08C28.4698 50.08 32.2798 51.5 35.0998 52.23C37.9098 52.96 41.6298 54.1 43.3698 54.75C45.0998 55.41 47.6598 56.79 49.0498 57.83C50.4398 58.87 52.6398 60.98 53.9498 62.52C55.2598 64.06 56.8398 66.47 57.4498 67.87C58.0698 69.27 58.9798 71.64 59.4798 73.12C59.9798 74.61 60.5498 76.74 60.7398 77.86C60.9298 78.98 59.3598 79.89 57.2398 79.89C55.1198 79.89 53.1298 79.01 52.8298 77.93C52.5298 76.85 51.8298 74.96 51.2898 73.73C50.7498 72.5 49.7398 70.67 49.0498 69.67C48.3598 68.67 47.4698 67.53 47.0898 67.15C46.6998 66.76 46.4398 68.9 46.4998 71.89L46.5498 74.47C46.6098 77.46 44.2198 79.91 41.2298 79.91H32.1998V79.9Z" fill="#1B8488"/>
<path d="M67.2099 80.4601C64.9399 80.4601 62.8699 78.9501 62.6099 77.1001C62.3499 75.2501 61.6599 72.3801 61.0699 70.7201C60.4799 69.0601 59.2999 66.5101 58.4499 65.0401C57.5999 63.5801 56.3399 61.7801 55.6499 61.0501C54.9599 60.3201 54.0699 59.2901 53.6899 58.7701C53.2999 58.2501 54.1199 57.4001 55.5099 56.8801C56.8999 56.3601 59.1699 55.7101 60.5499 55.4401C61.9399 55.1701 64.1799 54.6301 65.5199 54.2501C66.8699 53.8601 69.1699 53.0101 70.6299 52.3601C72.0899 51.7001 74.1799 50.5101 75.2499 49.7001C76.3199 48.8901 78.0299 47.3801 79.0299 46.3401C80.0299 45.3001 81.3599 43.5001 81.9699 42.3501C82.5899 41.1901 83.3699 39.9301 83.7199 39.5501C84.0699 39.1701 84.8599 38.6601 85.4699 38.4301C86.0799 38.2001 87.0999 38.1701 87.7099 38.3601C88.3299 38.5501 89.0199 39.0901 89.2499 39.5501C89.4799 40.0101 89.7799 40.8001 89.9199 41.3001C90.0499 41.8001 90.0499 42.7801 89.9199 43.4701C89.7899 44.1601 89.1099 45.5801 88.4099 46.6201C87.7199 47.6601 86.4899 49.3601 85.6799 50.4001C84.8699 51.4401 83.3299 52.9201 82.2499 53.6901C81.1699 54.4601 79.4699 55.7101 78.4699 56.4601C77.4699 57.2101 75.8599 58.3101 74.8999 58.9101C73.9399 59.5101 72.7399 60.0901 72.2399 60.2101C71.7399 60.3301 71.3299 62.8701 71.3299 65.8601V75.0201C71.3399 78.0101 69.4799 80.4601 67.2099 80.4601Z" fill="#1B8488"/>
<path d="M49.0001 95.4401C74.6482 95.4401 95.4401 74.6482 95.4401 49.0001C95.4401 23.352 74.6482 2.56006 49.0001 2.56006C23.352 2.56006 2.56006 23.352 2.56006 49.0001C2.56006 74.6482 23.352 95.4401 49.0001 95.4401Z" stroke="#1B8488" stroke-width="3.8064" stroke-miterlimit="10"/>
</svg>
